<svg xmlns="http://www.w3.org/2000/svg" xmlns:xlink="http://www.w3.org/1999/xlink" width="500" zoomAndPan="magnify" viewBox="0 0 375 374.999991" height="500" preserveAspectRatio="xMidYMid meet" version="1.0"><defs><clipPath id="a5db53937f"><path d="M 265 137 L 339.203125 137 L 339.203125 326 L 265 326 Z M 265 137 " clip-rule="nonzero"/></clipPath><clipPath id="6bd305e2cd"><path d="M 35.453125 48 L 91 48 L 91 109 L 35.453125 109 Z M 35.453125 48 " clip-rule="nonzero"/></clipPath></defs><path fill="#e2e2e2" d="M 236.050781 374.75 L 99.464844 374.75 C 79.285156 374.75 62.976562 358.421875 62.976562 338.21875 L 62.976562 71.476562 L 272.542969 71.476562 L 272.542969 338.21875 C 272.542969 358.421875 256.234375 374.75 236.050781 374.75 Z M 236.050781 374.75 " fill-opacity="1" fill-rule="nonzero"/><path fill="#ffe359" d="M 227.082031 358.21875 L 108.230469 358.21875 C 93.554688 358.21875 81.730469 343.523438 81.730469 325.359375 L 81.730469 93.519531 L 253.582031 93.519531 L 253.582031 325.359375 C 253.582031 343.523438 241.761719 358.21875 227.082031 358.21875 Z M 227.082031 358.21875 " fill-opacity="1" fill-rule="nonzero"/><g clip-path="url(#a5db53937f)"><path fill="#e2e2e2" d="M 308.421875 137.398438 L 265.816406 137.398438 L 265.816406 170.050781 L 292.929688 170.050781 C 303.324219 170.050781 310.664062 182.296875 310.664062 192.703125 L 310.664062 271.6875 C 310.664062 282.09375 303.324219 292.503906 292.929688 292.503906 L 265.816406 292.503906 L 265.816406 325.15625 L 308.421875 325.15625 C 325.546875 325.15625 339.203125 309.851562 339.203125 292.707031 L 339.203125 171.683594 C 339.203125 154.539062 325.546875 137.398438 308.421875 137.398438 Z M 308.421875 137.398438 " fill-opacity="1" fill-rule="nonzero"/></g><path fill="#f4f4f4" d="M 145.335938 89.84375 L 84.175781 89.84375 C 70.3125 89.84375 58.898438 78.414062 58.898438 64.539062 L 58.898438 56.984375 C 58.898438 32.085938 78.875 12.085938 103.746094 12.085938 C 128.617188 12.085938 148.597656 32.085938 148.597656 56.984375 L 148.597656 86.578125 C 148.800781 88.414062 147.167969 89.84375 145.335938 89.84375 Z M 145.335938 89.84375 " fill-opacity="1" fill-rule="nonzero"/><path fill="#f4f4f4" d="M 183.863281 101.886719 L 144.722656 101.886719 C 130.859375 101.886719 119.445312 90.457031 119.445312 76.578125 L 119.445312 45.148438 C 119.445312 20.25 139.421875 0.25 164.292969 0.25 C 189.164062 0.25 209.140625 20.25 209.140625 45.148438 L 209.140625 76.578125 C 209.140625 90.457031 197.726562 101.886719 183.863281 101.886719 Z M 183.863281 101.886719 " fill-opacity="1" fill-rule="nonzero"/><path fill="#f4f4f4" d="M 254.808594 93.925781 L 215.664062 93.925781 C 201.804688 93.925781 190.386719 82.496094 190.386719 68.621094 L 190.386719 61.066406 C 190.386719 36.167969 210.367188 16.167969 235.238281 16.167969 C 260.105469 16.167969 280.085938 36.167969 280.085938 61.066406 L 280.085938 68.621094 C 280.085938 82.496094 268.667969 93.925781 254.808594 93.925781 Z M 254.808594 93.925781 " fill-opacity="1" fill-rule="nonzero"/><path fill="#f4f4f4" d="M 287.21875 42.699219 C 272.339844 42.699219 260.3125 54.742188 260.3125 69.4375 L 260.3125 98.007812 C 260.3125 100.046875 261.941406 101.886719 264.183594 101.886719 L 287.015625 101.886719 C 302.714844 101.886719 315.351562 89.027344 315.351562 73.515625 L 315.351562 71.066406 C 315.351562 55.355469 302.714844 42.699219 287.21875 42.699219 Z M 287.21875 42.699219 " fill-opacity="1" fill-rule="nonzero"/><path fill="#f4f4f4" d="M 285.792969 98.414062 C 285.792969 83.519531 273.765625 71.476562 259.089844 71.476562 L 230.546875 71.476562 C 228.507812 71.476562 226.675781 73.109375 226.675781 75.355469 L 226.675781 98.210938 C 226.675781 113.925781 239.515625 126.578125 255.011719 126.578125 L 257.457031 126.578125 C 273.152344 126.578125 285.792969 113.925781 285.792969 98.414062 Z M 285.792969 98.414062 " fill-opacity="1" fill-rule="nonzero"/><g clip-path="url(#6bd305e2cd)"><path fill="#f4f4f4" d="M 63.585938 108.210938 C 78.46875 108.210938 90.496094 96.171875 90.496094 81.273438 L 90.496094 52.699219 C 90.496094 50.660156 88.867188 48.824219 86.625 48.824219 L 63.789062 48.824219 C 48.296875 49.027344 35.453125 61.679688 35.453125 77.394531 L 35.453125 79.84375 C 35.453125 95.355469 48.09375 108.210938 63.585938 108.210938 Z M 63.585938 108.210938 " fill-opacity="1" fill-rule="nonzero"/></g><path fill="#f4f4f4" d="M 195.890625 108.621094 L 196.300781 108.210938 C 203.230469 101.273438 203.230469 89.84375 196.300781 82.90625 L 159.402344 45.761719 C 156.140625 42.496094 150.839844 42.496094 147.375 45.761719 L 112.308594 81.070312 C 104.765625 88.621094 104.765625 101.070312 112.308594 108.621094 C 135.34375 131.683594 172.855469 131.683594 195.890625 108.621094 Z M 195.890625 108.621094 " fill-opacity="1" fill-rule="nonzero"/><path fill="#f4f4f4" d="M 61.957031 67.804688 L 98.039062 67.804688 C 107.007812 67.804688 114.347656 75.148438 114.347656 84.128906 L 114.347656 96.785156 C 114.347656 112.089844 101.914062 124.335938 86.828125 124.335938 C 71.539062 124.335938 59.304688 111.886719 59.304688 96.785156 L 59.304688 70.660156 C 58.898438 69.027344 60.324219 67.804688 61.957031 67.804688 Z M 61.957031 67.804688 " fill-opacity="1" fill-rule="nonzero"/><path fill="#efd555" d="M 118.425781 334.136719 C 111.902344 334.136719 106.601562 328.832031 106.601562 322.300781 L 106.601562 155.558594 C 106.601562 149.03125 111.902344 143.722656 118.425781 143.722656 C 124.949219 143.722656 130.25 149.03125 130.25 155.558594 L 130.25 322.300781 C 130.25 328.832031 124.949219 334.136719 118.425781 334.136719 Z M 118.425781 334.136719 " fill-opacity="1" fill-rule="nonzero"/><path fill="#efd555" d="M 167.148438 334.136719 C 160.625 334.136719 155.324219 328.832031 155.324219 322.300781 L 155.324219 155.558594 C 155.324219 149.03125 160.625 143.722656 167.148438 143.722656 C 173.671875 143.722656 178.972656 149.03125 178.972656 155.558594 L 178.972656 322.300781 C 178.765625 328.832031 173.46875 334.136719 167.148438 334.136719 Z M 167.148438 334.136719 " fill-opacity="1" fill-rule="nonzero"/><path fill="#efd555" d="M 215.664062 334.136719 C 209.140625 334.136719 203.84375 328.832031 203.84375 322.300781 L 203.84375 155.558594 C 203.84375 149.03125 209.140625 143.722656 215.664062 143.722656 C 222.1875 143.722656 227.488281 149.03125 227.488281 155.558594 L 227.488281 322.300781 C 227.488281 328.832031 222.1875 334.136719 215.664062 334.136719 Z M 215.664062 334.136719 " fill-opacity="1" fill-rule="nonzero"/><path fill="#f4f4f4" d="M 212.402344 179.03125 C 224.023438 179.03125 233.605469 169.4375 233.605469 158.007812 L 233.605469 78.621094 C 233.605469 69.84375 226.46875 62.90625 217.910156 62.90625 L 207.308594 62.90625 C 198.542969 62.90625 191.609375 70.046875 191.609375 78.621094 L 191.609375 157.804688 C 191.40625 169.4375 200.988281 179.03125 212.402344 179.03125 Z M 212.402344 179.03125 " fill-opacity="1" fill-rule="nonzero"/></svg>