<svg xmlns="http://www.w3.org/2000/svg" xmlns:xlink="http://www.w3.org/1999/xlink" width="500" zoomAndPan="magnify" viewBox="0 0 375 374.999991" height="500" preserveAspectRatio="xMidYMid meet" version="1.0"><defs><clipPath id="30fbddaefd"><path d="M 187.5 375 C 291.054688 375 375 291.054688 375 187.5 C 375 83.945312 291.054688 0 187.5 0 C 83.945312 0 0 83.945312 0 187.5 C 0 291.054688 83.945312 375 187.5 375 " clip-rule="nonzero"/></clipPath><clipPath id="6d90176607"><path d="M 124.628906 274.109375 L 189.734375 274.109375 L 189.734375 337.46875 L 124.628906 337.46875 Z M 124.628906 274.109375 " clip-rule="nonzero"/></clipPath><clipPath id="ed7246ed32"><path d="M 193 274 L 258.878906 274 L 258.878906 337.492188 L 193 337.492188 Z M 193 274 " clip-rule="nonzero"/></clipPath><clipPath id="4b254a3bcd"><path d="M 175.355469 190.496094 L 206.507812 190.496094 L 206.507812 239.863281 L 175.355469 239.863281 Z M 175.355469 190.496094 " clip-rule="nonzero"/></clipPath><clipPath id="3676579b48"><path d="M 49.140625 152.03125 L 114.246094 152.03125 L 114.246094 215.386719 L 49.140625 215.386719 Z M 49.140625 152.03125 " clip-rule="nonzero"/></clipPath><clipPath id="73fd33355e"><path d="M 117 152 L 183.390625 152 L 183.390625 215.410156 L 117 215.410156 Z M 117 152 " clip-rule="nonzero"/></clipPath><clipPath id="68bfead1ab"><path d="M 100 68.417969 L 131 68.417969 L 131 117.78125 L 100 117.78125 Z M 100 68.417969 " clip-rule="nonzero"/></clipPath><clipPath id="53bee23cb4"><path d="M 191.917969 152.03125 L 257 152.03125 L 257 215.386719 L 191.917969 215.386719 Z M 191.917969 152.03125 " clip-rule="nonzero"/></clipPath><clipPath id="9c6570495c"><path d="M 260 152 L 326.167969 152 L 326.167969 215.410156 L 260 215.410156 Z M 260 152 " clip-rule="nonzero"/></clipPath><clipPath id="f585bfe0d4"><path d="M 242.644531 68.417969 L 273.792969 68.417969 L 273.792969 117.78125 L 242.644531 117.78125 Z M 242.644531 68.417969 " clip-rule="nonzero"/></clipPath></defs><g clip-path="url(#30fbddaefd)"><rect x="-37.5" width="450" fill="#fbf7ef" y="-37.499999" height="449.999989" fill-opacity="1"/></g><path fill="#8f7650" d="M 164.015625 253.664062 C 163.984375 253.417969 163.957031 253.179688 163.917969 252.933594 C 163.824219 251.898438 163.707031 250.835938 163.652344 249.75 C 163.617188 248.664062 163.535156 247.574219 163.574219 246.46875 L 163.601562 244.828125 C 163.621094 244.28125 163.675781 243.738281 163.710938 243.203125 C 163.753906 242.664062 163.78125 242.132812 163.835938 241.609375 C 163.910156 241.089844 163.984375 240.574219 164.054688 240.070312 C 164.132812 239.5625 164.1875 239.066406 164.277344 238.585938 C 164.378906 238.109375 164.480469 237.640625 164.582031 237.183594 C 164.765625 236.273438 164.960938 235.417969 165.21875 234.648438 C 165.457031 233.878906 165.660156 233.167969 165.863281 232.550781 C 166.109375 231.945312 166.320312 231.417969 166.492188 230.980469 C 166.839844 230.121094 167.035156 229.628906 167.035156 229.628906 C 167.035156 229.628906 166.9375 230.148438 166.761719 231.0625 C 166.679688 231.515625 166.574219 232.066406 166.453125 232.699219 C 166.371094 233.335938 166.308594 234.058594 166.226562 234.839844 C 166.125 235.617188 166.097656 236.46875 166.09375 237.367188 C 166.082031 237.8125 166.074219 238.269531 166.0625 238.738281 C 166.066406 239.207031 166.109375 239.6875 166.128906 240.171875 C 166.15625 240.65625 166.179688 241.148438 166.207031 241.648438 C 166.25 242.144531 166.320312 242.648438 166.378906 243.152344 C 166.445312 243.652344 166.492188 244.160156 166.570312 244.667969 L 166.84375 246.183594 C 167 247.195312 167.277344 248.191406 167.5 249.167969 C 167.742188 250.144531 168.042969 251.09375 168.308594 252.007812 C 168.628906 252.910156 168.886719 253.789062 169.21875 254.601562 C 169.523438 255.417969 169.828125 256.179688 170.136719 256.871094 C 170.730469 258.261719 171.292969 259.375 171.695312 260.128906 C 171.902344 260.515625 172.058594 260.789062 172.15625 260.953125 C 172.214844 261.046875 172.601562 261.605469 172.980469 262.15625 C 177.140625 254.332031 182.457031 247.289062 187.855469 243.078125 C 182.765625 232.394531 172.945312 214.757812 170.371094 208.53125 C 164.136719 213.351562 154.054688 230.285156 151.425781 240.515625 C 156.351562 245.605469 160.550781 249.984375 164.015625 253.664062 " fill-opacity="1" fill-rule="nonzero"/><path fill="#8f7650" d="M 207.625 259.933594 C 208.019531 259.1875 208.535156 258.152344 209.082031 256.871094 C 209.390625 256.179688 209.695312 255.417969 210 254.601562 C 210.332031 253.789062 210.589844 252.910156 210.910156 252.007812 C 211.175781 251.09375 211.476562 250.144531 211.71875 249.167969 C 211.941406 248.191406 212.21875 247.195312 212.375 246.183594 L 212.648438 244.667969 C 212.726562 244.160156 212.773438 243.652344 212.839844 243.152344 C 212.894531 242.648438 212.96875 242.144531 213.011719 241.648438 C 213.039062 241.148438 213.0625 240.65625 213.089844 240.171875 C 213.109375 239.6875 213.148438 239.207031 213.15625 238.738281 C 213.144531 238.269531 213.136719 237.8125 213.125 237.367188 C 213.121094 236.46875 213.09375 235.617188 212.988281 234.839844 C 212.910156 234.058594 212.847656 233.335938 212.765625 232.699219 C 212.644531 232.066406 212.542969 231.515625 212.453125 231.0625 C 212.28125 230.148438 212.183594 229.628906 212.183594 229.628906 C 212.183594 229.628906 212.378906 230.121094 212.726562 230.980469 C 212.898438 231.417969 213.113281 231.945312 213.355469 232.550781 C 213.558594 233.167969 213.761719 233.878906 214 234.648438 C 214.257812 235.417969 214.453125 236.273438 214.636719 237.183594 C 214.734375 237.640625 214.835938 238.109375 214.941406 238.585938 C 215.03125 239.066406 215.085938 239.5625 215.164062 240.070312 C 215.234375 240.574219 215.308594 241.089844 215.378906 241.609375 C 215.4375 242.132812 215.464844 242.664062 215.507812 243.203125 C 215.542969 243.738281 215.597656 244.28125 215.617188 244.828125 L 215.644531 246.46875 C 215.683594 247.574219 215.601562 248.664062 215.566406 249.75 C 215.515625 250.835938 215.394531 251.898438 215.300781 252.933594 C 215.152344 253.957031 215.054688 254.960938 214.871094 255.898438 C 214.835938 256.101562 214.800781 256.292969 214.765625 256.492188 C 218.8125 252.152344 224.128906 246.582031 230.71875 239.785156 C 227.8125 229.496094 218.054688 213.238281 211.96875 208.53125 C 209.371094 214.8125 199.398438 232.714844 194.347656 243.367188 C 199.101562 247.191406 203.773438 253.183594 207.625 259.933594 " fill-opacity="1" fill-rule="nonzero"/><g clip-path="url(#6d90176607)"><path fill="#8f7650" d="M 160.570312 291.113281 C 150.824219 285 141.402344 281.175781 132.289062 277.476562 C 129.667969 276.410156 127.128906 275.382812 124.617188 274.3125 C 126.527344 279.246094 127.691406 283.90625 128.90625 288.769531 C 130.707031 295.992188 132.570312 303.457031 137.1875 312.480469 C 145.007812 327.773438 158.929688 336.214844 177.8125 337.339844 C 172.492188 334.726562 166.253906 331.023438 160.691406 326.421875 C 159.054688 325.097656 157.496094 323.679688 156.007812 322.246094 C 155.257812 321.535156 154.558594 320.777344 153.847656 320.0625 C 153.171875 319.308594 152.5 318.570312 151.84375 317.839844 C 151.222656 317.082031 150.609375 316.335938 150.007812 315.605469 C 149.445312 314.847656 148.894531 314.109375 148.355469 313.390625 C 147.332031 311.914062 146.386719 310.511719 145.609375 309.160156 C 144.777344 307.839844 144.171875 306.539062 143.566406 305.433594 C 143.039062 304.28125 142.554688 303.296875 142.203125 302.460938 C 141.535156 300.785156 141.152344 299.824219 141.152344 299.824219 C 141.152344 299.824219 141.628906 300.738281 142.457031 302.339844 C 142.886719 303.128906 143.464844 304.058594 144.09375 305.136719 C 144.800781 306.167969 145.519531 307.378906 146.464844 308.589844 C 147.355469 309.835938 148.414062 311.117188 149.546875 312.445312 C 150.136719 313.089844 150.742188 313.753906 151.363281 314.429688 C 152.011719 315.074219 152.675781 315.738281 153.347656 316.40625 C 154.054688 317.046875 154.769531 317.695312 155.492188 318.351562 C 156.246094 318.976562 156.984375 319.628906 157.769531 320.242188 C 159.335938 321.472656 160.957031 322.679688 162.644531 323.785156 C 169.351562 328.289062 176.785156 331.523438 182.46875 333.429688 C 185.308594 334.394531 187.714844 335.046875 189.386719 335.457031 C 189.664062 335.523438 191.484375 310.488281 160.570312 291.113281 " fill-opacity="1" fill-rule="nonzero"/></g><g clip-path="url(#ed7246ed32)"><path fill="#8f7650" d="M 193.125 335.0625 C 194.617188 334.664062 196.445312 334.132812 198.511719 333.429688 C 204.191406 331.523438 211.625 328.289062 218.332031 323.785156 C 220.023438 322.679688 221.640625 321.472656 223.207031 320.242188 C 223.996094 319.628906 224.730469 318.976562 225.488281 318.351562 C 226.210938 317.695312 226.925781 317.046875 227.628906 316.40625 C 228.300781 315.738281 228.964844 315.074219 229.617188 314.429688 C 230.234375 313.753906 230.839844 313.089844 231.429688 312.445312 C 232.5625 311.117188 233.621094 309.835938 234.515625 308.589844 C 235.457031 307.378906 236.179688 306.167969 236.882812 305.136719 C 237.515625 304.058594 238.089844 303.128906 238.519531 302.339844 C 239.351562 300.738281 239.824219 299.824219 239.824219 299.824219 C 239.824219 299.824219 239.441406 300.785156 238.773438 302.460938 C 238.421875 303.296875 237.941406 304.28125 237.414062 305.433594 C 236.808594 306.539062 236.199219 307.839844 235.371094 309.160156 C 234.589844 310.511719 233.648438 311.914062 232.625 313.390625 C 232.085938 314.109375 231.53125 314.847656 230.96875 315.605469 C 230.371094 316.335938 229.757812 317.082031 229.132812 317.839844 C 228.476562 318.570312 227.804688 319.308594 227.128906 320.0625 C 226.417969 320.777344 225.71875 321.535156 224.972656 322.246094 C 223.480469 323.679688 221.925781 325.097656 220.289062 326.421875 C 214.636719 331.09375 208.285156 334.851562 202.914062 337.46875 C 223.207031 337.035156 238.109375 328.519531 246.308594 312.480469 C 250.921875 303.457031 252.789062 295.992188 254.589844 288.769531 C 255.804688 283.90625 256.96875 279.246094 258.878906 274.3125 C 256.367188 275.382812 253.828125 276.410156 251.207031 277.476562 C 242.097656 281.175781 232.671875 285 222.925781 291.113281 C 195.402344 308.359375 192.5 327.902344 193.125 335.0625 " fill-opacity="1" fill-rule="nonzero"/></g><g clip-path="url(#4b254a3bcd)"><path fill="#8f7650" d="M 180.886719 224.605469 C 183.433594 229.472656 186.007812 234.398438 188.140625 238.6875 L 190.914062 208.628906 L 193.769531 239.558594 C 195.976562 235.074219 198.726562 229.8125 201.449219 224.617188 C 203.179688 221.3125 204.859375 218.097656 206.300781 215.277344 C 202.855469 206.042969 196.925781 197.503906 190.914062 190.496094 C 184.640625 197.636719 179 205.761719 175.664062 214.539062 C 177.179688 217.527344 179.003906 221.015625 180.886719 224.605469 " fill-opacity="1" fill-rule="nonzero"/></g><path fill="#8f7650" d="M 135.9375 274.238281 C 141.808594 276.628906 147.808594 279.148438 153.972656 282.339844 C 152.960938 279.113281 151.8125 274.996094 150.878906 270.828125 C 150.363281 268.585938 149.914062 266.328125 149.550781 264.207031 C 149.351562 263.148438 149.199219 262.121094 149.058594 261.144531 C 148.90625 260.171875 148.773438 259.25 148.683594 258.398438 C 148.464844 256.695312 148.332031 255.273438 148.257812 254.277344 C 148.171875 253.285156 148.125 252.71875 148.125 252.71875 C 148.125 252.71875 148.273438 253.265625 148.535156 254.230469 C 148.785156 255.191406 149.167969 256.558594 149.6875 258.179688 C 149.925781 258.996094 150.21875 259.867188 150.535156 260.789062 C 150.847656 261.707031 151.175781 262.675781 151.554688 263.667969 C 152.28125 265.652344 153.109375 267.753906 154 269.820312 C 155.757812 273.964844 157.738281 278 159.316406 280.949219 C 160.097656 282.433594 160.785156 283.640625 161.261719 284.472656 C 161.550781 284.960938 162.320312 286.355469 162.886719 287.398438 C 162.890625 287.398438 162.890625 287.402344 162.890625 287.402344 C 163.488281 287.777344 164.066406 288.152344 164.640625 288.53125 C 164.988281 281.496094 167.628906 273.015625 171.519531 265.078125 C 164.527344 257.035156 146.898438 238.972656 141.574219 233.523438 C 137.367188 240.675781 134.023438 263.933594 135.9375 274.238281 " fill-opacity="1" fill-rule="nonzero"/><path fill="#8f7650" d="M 217.351562 289.554688 C 217.742188 289.289062 218.128906 289.019531 218.53125 288.75 C 219.433594 287.175781 220.6875 284.984375 220.988281 284.472656 C 221.46875 283.640625 222.152344 282.433594 222.933594 280.949219 C 224.515625 278 226.492188 273.964844 228.25 269.820312 C 229.140625 267.753906 229.96875 265.652344 230.695312 263.667969 C 231.074219 262.675781 231.40625 261.707031 231.714844 260.789062 C 232.035156 259.867188 232.328125 258.996094 232.566406 258.179688 C 233.082031 256.558594 233.46875 255.191406 233.714844 254.230469 C 233.976562 253.265625 234.125 252.71875 234.125 252.71875 C 234.125 252.71875 234.078125 253.285156 233.996094 254.277344 C 233.921875 255.273438 233.789062 256.695312 233.570312 258.398438 C 233.476562 259.25 233.34375 260.171875 233.195312 261.144531 C 233.054688 262.121094 232.898438 263.148438 232.703125 264.207031 C 232.335938 266.328125 231.890625 268.585938 231.375 270.828125 C 230.367188 275.324219 229.105469 279.777344 228.042969 283.09375 C 228.039062 283.097656 228.039062 283.097656 228.039062 283.101562 C 233.9375 279.957031 239.679688 277.476562 245.300781 275.160156 C 247.617188 265.398438 244.195312 240.898438 239.859375 233.523438 C 234.621094 238.886719 217.464844 256.460938 210.253906 264.691406 C 214.441406 273.128906 217.222656 282.21875 217.351562 289.554688 " fill-opacity="1" fill-rule="nonzero"/><path fill="#8f7650" d="M 169.027344 290.085938 C 169.027344 290.59375 169.074219 291.113281 169.101562 291.628906 C 178.105469 298.273438 184.261719 308.066406 188.175781 314.566406 L 190.914062 273.417969 L 193.886719 314.566406 C 197.488281 307.667969 203.410156 300.113281 212.792969 292.859375 C 212.886719 291.925781 212.933594 291 212.933594 290.085938 C 212.933594 276.308594 201.863281 254.535156 190.980469 246.410156 C 180.097656 254.535156 169.027344 276.308594 169.027344 290.085938 " fill-opacity="1" fill-rule="nonzero"/><path fill="#8f7650" d="M 88.527344 131.582031 C 88.496094 131.335938 88.46875 131.097656 88.429688 130.851562 C 88.335938 129.816406 88.21875 128.753906 88.164062 127.671875 C 88.128906 126.582031 88.046875 125.492188 88.085938 124.386719 L 88.113281 122.746094 C 88.132812 122.203125 88.1875 121.65625 88.222656 121.121094 C 88.265625 120.585938 88.292969 120.054688 88.351562 119.53125 C 88.421875 119.011719 88.496094 118.496094 88.566406 117.988281 C 88.644531 117.484375 88.699219 116.988281 88.789062 116.503906 C 88.894531 116.027344 88.996094 115.558594 89.09375 115.101562 C 89.277344 114.191406 89.472656 113.339844 89.730469 112.566406 C 89.96875 111.796875 90.171875 111.089844 90.375 110.46875 C 90.621094 109.863281 90.832031 109.335938 91.003906 108.902344 C 91.351562 108.039062 91.546875 107.546875 91.546875 107.546875 C 91.546875 107.546875 91.449219 108.066406 91.273438 108.980469 C 91.191406 109.433594 91.085938 109.984375 90.964844 110.617188 C 90.882812 111.253906 90.820312 111.976562 90.738281 112.757812 C 90.636719 113.535156 90.609375 114.386719 90.605469 115.285156 C 90.59375 115.730469 90.585938 116.191406 90.574219 116.65625 C 90.578125 117.128906 90.621094 117.609375 90.640625 118.09375 C 90.667969 118.578125 90.691406 119.070312 90.71875 119.566406 C 90.761719 120.0625 90.835938 120.566406 90.890625 121.070312 C 90.957031 121.574219 91.003906 122.082031 91.082031 122.585938 L 91.355469 124.105469 C 91.511719 125.117188 91.789062 126.109375 92.011719 127.089844 C 92.253906 128.066406 92.554688 129.011719 92.820312 129.925781 C 93.140625 130.828125 93.398438 131.710938 93.730469 132.519531 C 94.035156 133.335938 94.339844 134.097656 94.648438 134.789062 C 95.242188 136.179688 95.804688 137.296875 96.207031 138.046875 C 96.414062 138.433594 96.570312 138.710938 96.667969 138.871094 C 96.726562 138.96875 97.113281 139.527344 97.492188 140.074219 C 101.652344 132.25 106.96875 125.207031 112.367188 121 C 107.277344 110.316406 97.457031 92.675781 94.882812 86.453125 C 88.648438 91.269531 78.566406 108.203125 75.9375 118.433594 C 80.863281 123.523438 85.0625 127.90625 88.527344 131.582031 " fill-opacity="1" fill-rule="nonzero"/><path fill="#8f7650" d="M 132.136719 137.851562 C 132.53125 137.105469 133.046875 136.070312 133.59375 134.789062 C 133.902344 134.097656 134.207031 133.335938 134.511719 132.519531 C 134.84375 131.710938 135.101562 130.828125 135.421875 129.925781 C 135.6875 129.011719 135.988281 128.066406 136.230469 127.089844 C 136.453125 126.109375 136.730469 125.117188 136.886719 124.105469 L 137.160156 122.585938 C 137.238281 122.082031 137.285156 121.574219 137.351562 121.070312 C 137.410156 120.566406 137.480469 120.0625 137.523438 119.566406 C 137.550781 119.070312 137.574219 118.578125 137.601562 118.09375 C 137.621094 117.609375 137.664062 117.128906 137.667969 116.65625 C 137.65625 116.191406 137.648438 115.730469 137.636719 115.285156 C 137.632812 114.386719 137.605469 113.535156 137.5 112.757812 C 137.421875 111.976562 137.359375 111.253906 137.277344 110.617188 C 137.160156 109.984375 137.054688 109.433594 136.96875 108.980469 C 136.792969 108.066406 136.695312 107.546875 136.695312 107.546875 C 136.695312 107.546875 136.890625 108.039062 137.238281 108.902344 C 137.410156 109.335938 137.625 109.863281 137.867188 110.46875 C 138.070312 111.089844 138.273438 111.796875 138.511719 112.566406 C 138.769531 113.339844 138.964844 114.191406 139.148438 115.101562 C 139.25 115.558594 139.351562 116.027344 139.453125 116.503906 C 139.542969 116.988281 139.597656 117.484375 139.675781 117.988281 C 139.746094 118.496094 139.820312 119.011719 139.894531 119.53125 C 139.949219 120.054688 139.976562 120.585938 140.019531 121.121094 C 140.054688 121.65625 140.109375 122.203125 140.128906 122.746094 L 140.15625 124.386719 C 140.195312 125.492188 140.113281 126.582031 140.078125 127.671875 C 140.027344 128.753906 139.90625 129.816406 139.8125 130.851562 C 139.664062 131.875 139.566406 132.882812 139.382812 133.816406 C 139.351562 134.019531 139.3125 134.210938 139.277344 134.410156 C 143.324219 130.070312 148.640625 124.5 155.230469 117.703125 C 152.328125 107.414062 142.566406 91.15625 136.480469 86.453125 C 133.882812 92.730469 123.910156 110.632812 118.859375 121.285156 C 123.613281 125.109375 128.285156 131.101562 132.136719 137.851562 " fill-opacity="1" fill-rule="nonzero"/><g clip-path="url(#3676579b48)"><path fill="#8f7650" d="M 85.082031 169.03125 C 75.335938 162.921875 65.914062 159.09375 56.800781 155.394531 C 54.179688 154.332031 51.640625 153.300781 49.128906 152.234375 C 51.039062 157.164062 52.203125 161.828125 53.417969 166.6875 C 55.21875 173.910156 57.085938 181.378906 61.699219 190.402344 C 69.519531 205.695312 83.441406 214.132812 102.324219 215.257812 C 97.003906 212.648438 90.765625 208.941406 85.203125 204.339844 C 83.566406 203.015625 82.007812 201.597656 80.519531 200.167969 C 79.769531 199.453125 79.070312 198.699219 78.359375 197.980469 C 77.683594 197.230469 77.015625 196.488281 76.355469 195.757812 C 75.734375 195 75.121094 194.253906 74.519531 193.523438 C 73.957031 192.769531 73.40625 192.03125 72.867188 191.308594 C 71.84375 189.835938 70.902344 188.429688 70.121094 187.078125 C 69.289062 185.757812 68.683594 184.457031 68.078125 183.351562 C 67.550781 182.199219 67.066406 181.214844 66.714844 180.382812 C 66.046875 178.703125 65.664062 177.746094 65.664062 177.746094 C 65.664062 177.746094 66.140625 178.660156 66.96875 180.257812 C 67.398438 181.050781 67.976562 181.980469 68.605469 183.054688 C 69.3125 184.089844 70.03125 185.300781 70.976562 186.511719 C 71.867188 187.753906 72.925781 189.035156 74.058594 190.363281 C 74.648438 191.007812 75.253906 191.671875 75.875 192.347656 C 76.523438 192.996094 77.1875 193.65625 77.863281 194.328125 C 78.566406 194.964844 79.28125 195.617188 80.003906 196.273438 C 80.757812 196.894531 81.496094 197.550781 82.28125 198.164062 C 83.847656 199.390625 85.46875 200.597656 87.15625 201.703125 C 93.867188 206.207031 101.296875 209.441406 106.980469 211.347656 C 109.820312 212.316406 112.226562 212.964844 113.898438 213.375 C 114.175781 213.441406 115.996094 188.40625 85.082031 169.03125 " fill-opacity="1" fill-rule="nonzero"/></g><g clip-path="url(#73fd33355e)"><path fill="#8f7650" d="M 117.636719 212.980469 C 119.128906 212.585938 120.957031 212.050781 123.023438 211.347656 C 128.703125 209.441406 136.136719 206.207031 142.84375 201.703125 C 144.535156 200.597656 146.15625 199.390625 147.71875 198.164062 C 148.507812 197.550781 149.242188 196.894531 150 196.273438 C 150.722656 195.617188 151.4375 194.964844 152.140625 194.328125 C 152.816406 193.65625 153.476562 192.996094 154.128906 192.347656 C 154.746094 191.671875 155.351562 191.007812 155.941406 190.363281 C 157.074219 189.035156 158.132812 187.753906 159.027344 186.511719 C 159.96875 185.300781 160.691406 184.089844 161.394531 183.054688 C 162.027344 181.980469 162.601562 181.050781 163.03125 180.257812 C 163.863281 178.660156 164.335938 177.746094 164.335938 177.746094 C 164.335938 177.746094 163.957031 178.703125 163.285156 180.382812 C 162.933594 181.214844 162.453125 182.199219 161.925781 183.351562 C 161.320312 184.457031 160.710938 185.757812 159.882812 187.078125 C 159.101562 188.429688 158.160156 189.835938 157.136719 191.308594 C 156.597656 192.03125 156.042969 192.769531 155.480469 193.523438 C 154.882812 194.253906 154.269531 195 153.644531 195.757812 C 152.988281 196.488281 152.320312 197.230469 151.640625 197.980469 C 150.929688 198.699219 150.234375 199.453125 149.484375 200.167969 C 147.996094 201.597656 146.4375 203.015625 144.800781 204.339844 C 139.148438 209.011719 132.796875 212.769531 127.425781 215.386719 C 147.71875 214.953125 162.621094 206.4375 170.820312 190.402344 C 175.4375 181.378906 177.300781 173.910156 179.101562 166.6875 C 180.316406 161.828125 181.480469 157.164062 183.390625 152.234375 C 180.878906 153.300781 178.339844 154.332031 175.71875 155.394531 C 166.609375 159.09375 157.183594 162.921875 147.4375 169.03125 C 119.917969 186.28125 117.011719 205.820312 117.636719 212.980469 " fill-opacity="1" fill-rule="nonzero"/></g><g clip-path="url(#68bfead1ab)"><path fill="#8f7650" d="M 105.398438 102.523438 C 107.945312 107.390625 110.523438 112.320312 112.652344 116.605469 L 115.425781 86.546875 L 118.28125 117.476562 C 120.488281 112.996094 123.238281 107.730469 125.960938 102.535156 C 127.691406 99.230469 129.371094 96.019531 130.8125 93.195312 C 127.367188 83.960938 121.4375 75.425781 115.425781 68.417969 C 109.152344 75.554688 103.511719 83.679688 100.175781 92.457031 C 101.691406 95.445312 103.515625 98.933594 105.398438 102.523438 " fill-opacity="1" fill-rule="nonzero"/></g><path fill="#8f7650" d="M 60.449219 152.15625 C 66.320312 154.546875 72.320312 157.066406 78.484375 160.257812 C 77.472656 157.035156 76.324219 152.917969 75.390625 148.746094 C 74.875 146.503906 74.429688 144.246094 74.0625 142.125 C 73.863281 141.066406 73.710938 140.039062 73.570312 139.0625 C 73.417969 138.089844 73.285156 137.171875 73.195312 136.316406 C 72.976562 134.613281 72.84375 133.191406 72.769531 132.199219 C 72.6875 131.203125 72.636719 130.636719 72.636719 130.636719 C 72.636719 130.636719 72.789062 131.1875 73.046875 132.148438 C 73.296875 133.113281 73.679688 134.480469 74.199219 136.097656 C 74.4375 136.914062 74.730469 137.785156 75.046875 138.707031 C 75.359375 139.625 75.6875 140.59375 76.066406 141.585938 C 76.792969 143.574219 77.621094 145.671875 78.511719 147.742188 C 80.269531 151.886719 82.25 155.917969 83.828125 158.871094 C 84.609375 160.351562 85.296875 161.558594 85.773438 162.394531 C 86.066406 162.882812 86.832031 164.277344 87.402344 165.316406 C 87.402344 165.320312 87.402344 165.320312 87.40625 165.320312 C 88 165.695312 88.578125 166.070312 89.152344 166.449219 C 89.5 159.417969 92.140625 150.933594 96.03125 142.996094 C 89.039062 134.953125 71.410156 116.894531 66.085938 111.441406 C 61.878906 118.59375 58.535156 141.851562 60.449219 152.15625 " fill-opacity="1" fill-rule="nonzero"/><path fill="#8f7650" d="M 141.863281 167.472656 C 142.253906 167.207031 142.640625 166.9375 143.042969 166.671875 C 143.945312 165.09375 145.199219 162.902344 145.5 162.394531 C 145.980469 161.558594 146.664062 160.351562 147.449219 158.871094 C 149.027344 155.917969 151.003906 151.886719 152.761719 147.742188 C 153.652344 145.671875 154.480469 143.574219 155.210938 141.585938 C 155.585938 140.59375 155.917969 139.625 156.226562 138.707031 C 156.546875 137.785156 156.839844 136.914062 157.078125 136.097656 C 157.597656 134.480469 157.980469 133.113281 158.226562 132.148438 C 158.488281 131.1875 158.640625 130.636719 158.640625 130.636719 C 158.640625 130.636719 158.589844 131.203125 158.507812 132.199219 C 158.433594 133.191406 158.300781 134.613281 158.082031 136.316406 C 157.992188 137.171875 157.855469 138.089844 157.707031 139.0625 C 157.566406 140.039062 157.410156 141.066406 157.214844 142.125 C 156.847656 144.246094 156.402344 146.503906 155.886719 148.746094 C 154.878906 153.246094 153.621094 157.695312 152.554688 161.011719 C 152.550781 161.015625 152.550781 161.019531 152.550781 161.019531 C 158.449219 157.875 164.191406 155.394531 169.816406 153.078125 C 172.128906 143.316406 168.707031 118.820312 164.371094 111.441406 C 159.136719 116.804688 141.976562 134.378906 134.765625 142.609375 C 138.953125 151.050781 141.734375 160.140625 141.863281 167.472656 " fill-opacity="1" fill-rule="nonzero"/><path fill="#8f7650" d="M 93.539062 168.003906 C 93.539062 168.511719 93.585938 169.03125 93.613281 169.546875 C 102.617188 176.191406 108.773438 185.984375 112.6875 192.484375 L 115.425781 151.339844 L 118.398438 192.484375 C 122.003906 185.585938 127.921875 178.03125 137.308594 170.777344 C 137.398438 169.84375 137.445312 168.917969 137.445312 168.003906 C 137.445312 154.226562 126.378906 132.453125 115.492188 124.328125 C 104.609375 132.453125 93.539062 154.226562 93.539062 168.003906 " fill-opacity="1" fill-rule="nonzero"/><path fill="#8f7650" d="M 231.304688 131.582031 C 231.273438 131.335938 231.242188 131.097656 231.207031 130.851562 C 231.109375 129.816406 230.992188 128.753906 230.941406 127.671875 C 230.902344 126.582031 230.824219 125.492188 230.863281 124.386719 L 230.886719 122.746094 C 230.910156 122.203125 230.960938 121.65625 231 121.121094 C 231.042969 120.585938 231.070312 120.054688 231.125 119.53125 C 231.199219 119.011719 231.273438 118.496094 231.34375 117.988281 C 231.421875 117.484375 231.476562 116.988281 231.566406 116.503906 C 231.667969 116.027344 231.769531 115.558594 231.871094 115.101562 C 232.054688 114.191406 232.25 113.339844 232.507812 112.566406 C 232.746094 111.796875 232.949219 111.089844 233.152344 110.46875 C 233.394531 109.863281 233.609375 109.335938 233.78125 108.902344 C 234.125 108.039062 234.324219 107.546875 234.324219 107.546875 C 234.324219 107.546875 234.226562 108.066406 234.050781 108.980469 C 233.964844 109.433594 233.863281 109.984375 233.742188 110.617188 C 233.660156 111.253906 233.597656 111.976562 233.515625 112.757812 C 233.414062 113.535156 233.386719 114.386719 233.378906 115.285156 C 233.371094 115.730469 233.363281 116.191406 233.351562 116.65625 C 233.355469 117.128906 233.394531 117.609375 233.417969 118.09375 C 233.441406 118.578125 233.46875 119.070312 233.496094 119.566406 C 233.539062 120.0625 233.609375 120.566406 233.667969 121.070312 C 233.730469 121.574219 233.78125 122.082031 233.859375 122.585938 L 234.132812 124.105469 C 234.289062 125.117188 234.566406 126.109375 234.789062 127.089844 C 235.03125 128.066406 235.328125 129.011719 235.597656 129.925781 C 235.914062 130.828125 236.175781 131.710938 236.507812 132.519531 C 236.808594 133.335938 237.117188 134.097656 237.421875 134.789062 C 238.019531 136.179688 238.582031 137.296875 238.984375 138.046875 C 239.1875 138.433594 239.34375 138.710938 239.445312 138.871094 C 239.5 138.96875 239.886719 139.527344 240.269531 140.074219 C 244.429688 132.25 249.742188 125.207031 255.140625 121 C 250.050781 110.316406 240.234375 92.675781 237.65625 86.453125 C 231.425781 91.269531 221.339844 108.203125 218.714844 118.433594 C 223.640625 123.523438 227.839844 127.90625 231.304688 131.582031 " fill-opacity="1" fill-rule="nonzero"/><path fill="#8f7650" d="M 274.914062 137.851562 C 275.308594 137.105469 275.820312 136.070312 276.371094 134.789062 C 276.675781 134.097656 276.984375 133.335938 277.289062 132.519531 C 277.621094 131.710938 277.878906 130.828125 278.199219 129.925781 C 278.464844 129.011719 278.765625 128.066406 279.007812 127.089844 C 279.230469 126.109375 279.503906 125.117188 279.660156 124.105469 L 279.9375 122.585938 C 280.015625 122.082031 280.0625 121.574219 280.128906 121.070312 C 280.183594 120.566406 280.257812 120.0625 280.300781 119.566406 C 280.328125 119.070312 280.351562 118.578125 280.378906 118.09375 C 280.398438 117.609375 280.4375 117.128906 280.441406 116.65625 C 280.433594 116.191406 280.421875 115.730469 280.414062 115.285156 C 280.40625 114.386719 280.382812 113.535156 280.277344 112.757812 C 280.195312 111.976562 280.136719 111.253906 280.054688 110.617188 C 279.933594 109.984375 279.832031 109.433594 279.742188 108.980469 C 279.570312 108.066406 279.46875 107.546875 279.46875 107.546875 C 279.46875 107.546875 279.667969 108.039062 280.015625 108.902344 C 280.1875 109.335938 280.398438 109.863281 280.640625 110.46875 C 280.847656 111.089844 281.046875 111.796875 281.285156 112.566406 C 281.546875 113.339844 281.738281 114.191406 281.925781 115.101562 C 282.023438 115.558594 282.125 116.027344 282.230469 116.503906 C 282.320312 116.988281 282.375 117.484375 282.449219 117.988281 C 282.523438 118.496094 282.59375 119.011719 282.667969 119.53125 C 282.726562 120.054688 282.753906 120.585938 282.796875 121.121094 C 282.832031 121.65625 282.882812 122.203125 282.90625 122.746094 L 282.929688 124.386719 C 282.972656 125.492188 282.890625 126.582031 282.855469 127.671875 C 282.800781 128.753906 282.683594 129.816406 282.585938 130.851562 C 282.441406 131.875 282.339844 132.882812 282.160156 133.816406 C 282.125 134.019531 282.089844 134.210938 282.054688 134.410156 C 286.101562 130.070312 291.417969 124.5 298.003906 117.703125 C 295.101562 107.414062 285.34375 91.15625 279.257812 86.453125 C 276.660156 92.730469 266.683594 110.632812 261.636719 121.285156 C 266.390625 125.109375 271.058594 131.101562 274.914062 137.851562 " fill-opacity="1" fill-rule="nonzero"/><g clip-path="url(#53bee23cb4)"><path fill="#8f7650" d="M 227.859375 169.03125 C 218.109375 162.921875 208.6875 159.09375 199.578125 155.394531 C 196.953125 154.332031 194.417969 153.300781 191.90625 152.234375 C 193.816406 157.164062 194.980469 161.828125 196.191406 166.6875 C 197.996094 173.910156 199.859375 181.378906 204.476562 190.402344 C 212.292969 205.695312 226.21875 214.132812 245.101562 215.257812 C 239.78125 212.648438 233.542969 208.941406 227.976562 204.339844 C 226.339844 203.015625 224.785156 201.597656 223.292969 200.167969 C 222.546875 199.453125 221.847656 198.699219 221.136719 197.980469 C 220.460938 197.230469 219.789062 196.488281 219.132812 195.757812 C 218.507812 195 217.898438 194.253906 217.296875 193.523438 C 216.734375 192.769531 216.179688 192.03125 215.644531 191.308594 C 214.621094 189.835938 213.675781 188.429688 212.894531 187.078125 C 212.066406 185.757812 211.457031 184.457031 210.855469 183.351562 C 210.328125 182.199219 209.84375 181.214844 209.492188 180.382812 C 208.824219 178.703125 208.441406 177.746094 208.441406 177.746094 C 208.441406 177.746094 208.917969 178.660156 209.746094 180.257812 C 210.175781 181.050781 210.753906 181.980469 211.382812 183.054688 C 212.089844 184.089844 212.808594 185.300781 213.75 186.511719 C 214.644531 187.753906 215.703125 189.035156 216.835938 190.363281 C 217.425781 191.007812 218.03125 191.671875 218.652344 192.347656 C 219.300781 192.996094 219.964844 193.65625 220.636719 194.328125 C 221.339844 194.964844 222.054688 195.617188 222.78125 196.273438 C 223.535156 196.894531 224.273438 197.550781 225.058594 198.164062 C 226.625 199.390625 228.246094 200.597656 229.933594 201.703125 C 236.640625 206.207031 244.074219 209.441406 249.757812 211.347656 C 252.597656 212.316406 255 212.964844 256.675781 213.375 C 256.953125 213.441406 258.773438 188.40625 227.859375 169.03125 " fill-opacity="1" fill-rule="nonzero"/></g><g clip-path="url(#9c6570495c)"><path fill="#8f7650" d="M 260.414062 212.980469 C 261.90625 212.585938 263.734375 212.050781 265.796875 211.347656 C 271.480469 209.441406 278.914062 206.207031 285.621094 201.703125 C 287.308594 200.597656 288.929688 199.390625 290.496094 198.164062 C 291.28125 197.550781 292.019531 196.894531 292.773438 196.273438 C 293.496094 195.617188 294.214844 194.964844 294.917969 194.328125 C 295.589844 193.65625 296.253906 192.996094 296.902344 192.347656 C 297.523438 191.671875 298.128906 191.007812 298.71875 190.363281 C 299.851562 189.035156 300.910156 187.753906 301.804688 186.511719 C 302.746094 185.300781 303.464844 184.089844 304.171875 183.054688 C 304.800781 181.980469 305.378906 181.050781 305.808594 180.257812 C 306.640625 178.660156 307.113281 177.746094 307.113281 177.746094 C 307.113281 177.746094 306.730469 178.703125 306.0625 180.382812 C 305.710938 181.214844 305.226562 182.199219 304.703125 183.351562 C 304.097656 184.457031 303.488281 185.757812 302.660156 187.078125 C 301.878906 188.429688 300.933594 189.835938 299.914062 191.308594 C 299.375 192.03125 298.820312 192.769531 298.257812 193.523438 C 297.65625 194.253906 297.046875 195 296.421875 195.757812 C 295.765625 196.488281 295.09375 197.230469 294.417969 197.980469 C 293.707031 198.699219 293.007812 199.453125 292.261719 200.167969 C 290.769531 201.597656 289.214844 203.015625 287.574219 204.339844 C 281.925781 209.011719 275.574219 212.769531 270.203125 215.386719 C 290.496094 214.953125 305.398438 206.4375 313.597656 190.402344 C 318.210938 181.378906 320.074219 173.910156 321.878906 166.6875 C 323.09375 161.828125 324.257812 157.164062 326.167969 152.234375 C 323.65625 153.300781 321.117188 154.332031 318.496094 155.394531 C 309.382812 159.09375 299.960938 162.921875 290.210938 169.03125 C 262.691406 186.28125 259.785156 205.820312 260.414062 212.980469 " fill-opacity="1" fill-rule="nonzero"/></g><g clip-path="url(#f585bfe0d4)"><path fill="#8f7650" d="M 248.175781 102.523438 C 250.71875 107.390625 253.296875 112.320312 255.429688 116.605469 L 258.203125 86.546875 L 261.054688 117.476562 C 263.265625 112.996094 266.015625 107.730469 268.734375 102.535156 C 270.464844 99.230469 272.148438 96.019531 273.585938 93.195312 C 270.144531 83.960938 264.214844 75.425781 258.203125 68.417969 C 251.925781 75.554688 246.289062 83.679688 242.953125 92.457031 C 244.46875 95.445312 246.292969 98.933594 248.175781 102.523438 " fill-opacity="1" fill-rule="nonzero"/></g><path fill="#8f7650" d="M 203.226562 152.15625 C 209.097656 154.546875 215.09375 157.066406 221.261719 160.257812 C 220.25 157.035156 219.101562 152.917969 218.167969 148.746094 C 217.652344 146.503906 217.203125 144.246094 216.839844 142.125 C 216.640625 141.066406 216.488281 140.039062 216.34375 139.0625 C 216.195312 138.089844 216.0625 137.171875 215.972656 136.316406 C 215.75 134.613281 215.621094 133.191406 215.546875 132.199219 C 215.460938 131.203125 215.414062 130.636719 215.414062 130.636719 C 215.414062 130.636719 215.5625 131.1875 215.824219 132.148438 C 216.074219 133.113281 216.457031 134.480469 216.972656 136.097656 C 217.214844 136.914062 217.507812 137.785156 217.824219 138.707031 C 218.132812 139.625 218.464844 140.59375 218.84375 141.585938 C 219.570312 143.574219 220.398438 145.671875 221.289062 147.742188 C 223.046875 151.886719 225.023438 155.917969 226.605469 158.871094 C 227.386719 160.351562 228.070312 161.558594 228.550781 162.394531 C 228.839844 162.882812 229.605469 164.277344 230.175781 165.316406 C 230.179688 165.320312 230.179688 165.320312 230.179688 165.320312 C 230.777344 165.695312 231.351562 166.070312 231.929688 166.449219 C 232.277344 159.417969 234.917969 150.933594 238.808594 142.996094 C 231.816406 134.953125 214.1875 116.894531 208.863281 111.441406 C 204.65625 118.59375 201.3125 141.851562 203.226562 152.15625 " fill-opacity="1" fill-rule="nonzero"/><path fill="#8f7650" d="M 284.636719 167.472656 C 285.03125 167.207031 285.414062 166.9375 285.820312 166.671875 C 286.722656 165.09375 287.976562 162.902344 288.277344 162.394531 C 288.757812 161.558594 289.441406 160.351562 290.222656 158.871094 C 291.804688 155.917969 293.78125 151.886719 295.539062 147.742188 C 296.429688 145.671875 297.257812 143.574219 297.984375 141.585938 C 298.363281 140.59375 298.695312 139.625 299.003906 138.707031 C 299.324219 137.785156 299.617188 136.914062 299.855469 136.097656 C 300.371094 134.480469 300.757812 133.113281 301.003906 132.148438 C 301.265625 131.1875 301.414062 130.636719 301.414062 130.636719 C 301.414062 130.636719 301.367188 131.203125 301.28125 132.199219 C 301.210938 133.191406 301.078125 134.613281 300.859375 136.316406 C 300.765625 137.171875 300.632812 138.089844 300.484375 139.0625 C 300.339844 140.039062 300.1875 141.066406 299.988281 142.125 C 299.625 144.246094 299.179688 146.503906 298.660156 148.746094 C 297.652344 153.246094 296.394531 157.695312 295.328125 161.011719 C 295.328125 161.015625 295.328125 161.019531 295.328125 161.019531 C 301.226562 157.875 306.96875 155.394531 312.589844 153.078125 C 314.90625 143.316406 311.484375 118.820312 307.148438 111.441406 C 301.910156 116.804688 284.753906 134.378906 277.539062 142.609375 C 281.730469 151.050781 284.511719 160.140625 284.636719 167.472656 " fill-opacity="1" fill-rule="nonzero"/><path fill="#8f7650" d="M 236.316406 168.003906 C 236.316406 168.511719 236.359375 169.03125 236.390625 169.546875 C 245.394531 176.191406 251.550781 185.984375 255.460938 192.484375 L 258.203125 151.339844 L 261.175781 192.484375 C 264.777344 185.585938 270.699219 178.03125 280.082031 170.777344 C 280.171875 169.84375 280.222656 168.917969 280.222656 168.003906 C 280.222656 154.226562 269.152344 132.453125 258.269531 124.328125 C 247.386719 132.453125 236.316406 154.226562 236.316406 168.003906 " fill-opacity="1" fill-rule="nonzero"/></svg>