<svg xmlns="http://www.w3.org/2000/svg" xmlns:xlink="http://www.w3.org/1999/xlink" width="500" zoomAndPan="magnify" viewBox="0 0 375 374.999991" height="500" preserveAspectRatio="xMidYMid meet" version="1.0"><defs><clipPath id="6c9050ba91"><path d="M 187.5 375 C 291.054688 375 375 291.054688 375 187.5 C 375 83.945312 291.054688 0 187.5 0 C 83.945312 0 0 83.945312 0 187.5 C 0 291.054688 83.945312 375 187.5 375 " clip-rule="nonzero"/></clipPath><clipPath id="dcc9d287c2"><path d="M 227.246094 195.800781 L 280.710938 195.800781 L 280.710938 247.84375 L 227.246094 247.84375 Z M 227.246094 195.800781 " clip-rule="nonzero"/></clipPath><clipPath id="b7c77b9efb"><path d="M 283 195 L 337.496094 195 L 337.496094 247.863281 L 283 247.863281 Z M 283 195 " clip-rule="nonzero"/></clipPath><clipPath id="3a8cf3f9e2"><path d="M 269 127.121094 L 294.484375 127.121094 L 294.484375 167.667969 L 269 167.667969 Z M 269 127.121094 " clip-rule="nonzero"/></clipPath><clipPath id="102347dc6d"><path d="M 37.558594 195.800781 L 91 195.800781 L 91 247.84375 L 37.558594 247.84375 Z M 37.558594 195.800781 " clip-rule="nonzero"/></clipPath><clipPath id="569a911f79"><path d="M 93 195 L 147.808594 195 L 147.808594 247.863281 L 93 247.863281 Z M 93 195 " clip-rule="nonzero"/></clipPath><clipPath id="5f8711dacf"><path d="M 79.21875 127.121094 L 104.800781 127.121094 L 104.800781 167.667969 L 79.21875 167.667969 Z M 79.21875 127.121094 " clip-rule="nonzero"/></clipPath><clipPath id="63cae47a82"><path d="M 132.402344 84.605469 L 185.867188 84.605469 L 185.867188 136.648438 L 132.402344 136.648438 Z M 132.402344 84.605469 " clip-rule="nonzero"/></clipPath><clipPath id="abebe60726"><path d="M 188 84 L 242.652344 84 L 242.652344 136.667969 L 188 136.667969 Z M 188 84 " clip-rule="nonzero"/></clipPath><clipPath id="ce8f0010a4"><path d="M 174.0625 15.925781 L 199.640625 15.925781 L 199.640625 56.472656 L 174.0625 56.472656 Z M 174.0625 15.925781 " clip-rule="nonzero"/></clipPath><clipPath id="33d40cf5a0"><path d="M 132.402344 299.082031 L 185.867188 299.082031 L 185.867188 351.125 L 132.402344 351.125 Z M 132.402344 299.082031 " clip-rule="nonzero"/></clipPath><clipPath id="d712f8ff2b"><path d="M 188 299 L 242.652344 299 L 242.652344 351.144531 L 188 351.144531 Z M 188 299 " clip-rule="nonzero"/></clipPath><clipPath id="1bb1425e4f"><path d="M 174.0625 230.40625 L 199.640625 230.40625 L 199.640625 270.953125 L 174.0625 270.953125 Z M 174.0625 230.40625 " clip-rule="nonzero"/></clipPath></defs><g clip-path="url(#6c9050ba91)"><rect x="-37.5" width="450" fill="#fbf7ef" y="-37.499999" height="449.999989" fill-opacity="1"/></g><path fill="#8f7650" d="M 259.589844 179.003906 C 259.566406 178.804688 259.539062 178.609375 259.511719 178.40625 C 259.433594 177.554688 259.335938 176.683594 259.292969 175.792969 C 259.261719 174.898438 259.195312 174.003906 259.230469 173.097656 L 259.25 171.746094 C 259.265625 171.300781 259.308594 170.851562 259.339844 170.414062 C 259.375 169.972656 259.398438 169.535156 259.445312 169.105469 C 259.503906 168.679688 259.5625 168.253906 259.625 167.839844 C 259.6875 167.425781 259.730469 167.015625 259.804688 166.621094 C 259.890625 166.230469 259.972656 165.84375 260.054688 165.46875 C 260.207031 164.722656 260.367188 164.019531 260.578125 163.386719 C 260.773438 162.753906 260.941406 162.171875 261.109375 161.664062 C 261.308594 161.167969 261.480469 160.734375 261.625 160.375 C 261.910156 159.667969 262.070312 159.261719 262.070312 159.261719 C 262.070312 159.261719 261.988281 159.691406 261.847656 160.441406 C 261.777344 160.8125 261.691406 161.265625 261.59375 161.785156 C 261.523438 162.308594 261.476562 162.902344 261.40625 163.542969 C 261.320312 164.183594 261.300781 164.882812 261.296875 165.621094 C 261.289062 165.984375 261.28125 166.363281 261.273438 166.746094 C 261.277344 167.132812 261.308594 167.527344 261.328125 167.925781 C 261.347656 168.324219 261.367188 168.726562 261.390625 169.136719 C 261.425781 169.542969 261.484375 169.957031 261.53125 170.371094 C 261.585938 170.785156 261.625 171.199219 261.6875 171.617188 L 261.914062 172.863281 C 262.042969 173.695312 262.269531 174.511719 262.453125 175.316406 C 262.652344 176.117188 262.898438 176.894531 263.117188 177.644531 C 263.378906 178.386719 263.589844 179.109375 263.863281 179.773438 C 264.113281 180.445312 264.363281 181.070312 264.617188 181.640625 C 265.105469 182.78125 265.566406 183.699219 265.898438 184.316406 C 266.066406 184.632812 266.195312 184.859375 266.277344 184.992188 C 266.324219 185.070312 266.640625 185.53125 266.953125 185.980469 C 270.371094 179.554688 274.734375 173.769531 279.167969 170.3125 C 274.988281 161.535156 266.921875 147.046875 264.808594 141.933594 C 259.691406 145.894531 251.410156 159.800781 249.25 168.203125 C 253.296875 172.386719 256.746094 175.984375 259.589844 179.003906 " fill-opacity="1" fill-rule="nonzero"/><path fill="#8f7650" d="M 295.402344 184.15625 C 295.726562 183.542969 296.148438 182.691406 296.601562 181.640625 C 296.851562 181.070312 297.105469 180.445312 297.355469 179.773438 C 297.625 179.109375 297.839844 178.386719 298.101562 177.644531 C 298.320312 176.894531 298.566406 176.117188 298.765625 175.316406 C 298.949219 174.511719 299.175781 173.695312 299.304688 172.863281 L 299.53125 171.617188 C 299.59375 171.199219 299.632812 170.785156 299.6875 170.371094 C 299.734375 169.957031 299.792969 169.542969 299.828125 169.136719 C 299.847656 168.726562 299.871094 168.324219 299.890625 167.925781 C 299.910156 167.527344 299.941406 167.132812 299.945312 166.746094 C 299.9375 166.363281 299.929688 165.984375 299.921875 165.621094 C 299.914062 164.882812 299.894531 164.183594 299.808594 163.542969 C 299.742188 162.902344 299.691406 162.308594 299.625 161.785156 C 299.527344 161.265625 299.441406 160.8125 299.371094 160.441406 C 299.226562 159.691406 299.144531 159.261719 299.144531 159.261719 C 299.144531 159.261719 299.308594 159.667969 299.59375 160.375 C 299.734375 160.734375 299.910156 161.167969 300.109375 161.664062 C 300.277344 162.171875 300.441406 162.753906 300.636719 163.386719 C 300.851562 164.019531 301.007812 164.722656 301.164062 165.46875 C 301.242188 165.84375 301.328125 166.230469 301.414062 166.621094 C 301.484375 167.015625 301.53125 167.425781 301.59375 167.839844 C 301.652344 168.253906 301.710938 168.679688 301.773438 169.105469 C 301.820312 169.535156 301.84375 169.972656 301.878906 170.414062 C 301.90625 170.851562 301.949219 171.300781 301.96875 171.746094 L 301.988281 173.097656 C 302.019531 174.003906 301.957031 174.898438 301.925781 175.792969 C 301.882812 176.683594 301.785156 177.554688 301.707031 178.40625 C 301.585938 179.246094 301.503906 180.074219 301.355469 180.839844 C 301.328125 181.007812 301.296875 181.164062 301.269531 181.328125 C 304.589844 177.761719 308.957031 173.1875 314.367188 167.605469 C 311.984375 159.15625 303.96875 145.800781 298.972656 141.933594 C 296.835938 147.09375 288.648438 161.796875 284.5 170.546875 C 288.402344 173.6875 292.238281 178.609375 295.402344 184.15625 " fill-opacity="1" fill-rule="nonzero"/><g clip-path="url(#dcc9d287c2)"><path fill="#8f7650" d="M 256.761719 209.765625 C 248.753906 204.746094 241.019531 201.605469 233.535156 198.566406 C 231.382812 197.691406 229.296875 196.84375 227.234375 195.96875 C 228.804688 200.019531 229.761719 203.847656 230.757812 207.84375 C 232.238281 213.773438 233.769531 219.90625 237.558594 227.320312 C 243.980469 239.878906 255.414062 246.8125 270.921875 247.738281 C 266.550781 245.589844 261.429688 242.546875 256.859375 238.769531 C 255.515625 237.683594 254.238281 236.515625 253.011719 235.339844 C 252.398438 234.753906 251.824219 234.132812 251.242188 233.542969 C 250.683594 232.925781 250.136719 232.320312 249.59375 231.71875 C 249.082031 231.097656 248.578125 230.484375 248.089844 229.882812 C 247.625 229.261719 247.171875 228.65625 246.730469 228.066406 C 245.890625 226.855469 245.113281 225.699219 244.472656 224.589844 C 243.792969 223.503906 243.292969 222.4375 242.796875 221.527344 C 242.363281 220.582031 241.964844 219.773438 241.675781 219.089844 C 241.128906 217.710938 240.816406 216.921875 240.816406 216.921875 C 240.816406 216.921875 241.207031 217.671875 241.886719 218.988281 C 242.238281 219.636719 242.714844 220.402344 243.230469 221.285156 C 243.808594 222.132812 244.402344 223.128906 245.175781 224.121094 C 245.910156 225.144531 246.777344 226.195312 247.710938 227.289062 C 248.195312 227.820312 248.691406 228.363281 249.199219 228.917969 C 249.734375 229.449219 250.277344 229.992188 250.832031 230.542969 C 251.410156 231.066406 251.996094 231.601562 252.589844 232.140625 C 253.210938 232.652344 253.816406 233.191406 254.460938 233.695312 C 255.75 234.703125 257.078125 235.695312 258.464844 236.601562 C 263.972656 240.304688 270.078125 242.960938 274.742188 244.523438 C 277.074219 245.320312 279.050781 245.855469 280.425781 246.1875 C 280.652344 246.246094 282.148438 225.679688 256.761719 209.765625 " fill-opacity="1" fill-rule="nonzero"/></g><g clip-path="url(#b7c77b9efb)"><path fill="#8f7650" d="M 283.496094 245.867188 C 284.722656 245.539062 286.222656 245.101562 287.917969 244.523438 C 292.585938 242.960938 298.691406 240.304688 304.199219 236.601562 C 305.585938 235.695312 306.914062 234.703125 308.199219 233.695312 C 308.847656 233.191406 309.453125 232.652344 310.070312 232.140625 C 310.667969 231.601562 311.253906 231.066406 311.832031 230.542969 C 312.382812 229.992188 312.929688 229.449219 313.464844 228.917969 C 313.972656 228.363281 314.46875 227.820312 314.953125 227.289062 C 315.882812 226.195312 316.753906 225.144531 317.484375 224.121094 C 318.261719 223.128906 318.851562 222.132812 319.433594 221.285156 C 319.949219 220.402344 320.421875 219.636719 320.777344 218.988281 C 321.457031 217.671875 321.847656 216.921875 321.847656 216.921875 C 321.847656 216.921875 321.535156 217.710938 320.984375 219.089844 C 320.695312 219.773438 320.300781 220.582031 319.867188 221.527344 C 319.371094 222.4375 318.871094 223.503906 318.1875 224.589844 C 317.546875 225.699219 316.773438 226.855469 315.933594 228.066406 C 315.492188 228.65625 315.039062 229.261719 314.574219 229.882812 C 314.082031 230.484375 313.578125 231.097656 313.066406 231.71875 C 312.527344 232.320312 311.976562 232.925781 311.421875 233.542969 C 310.835938 234.132812 310.265625 234.753906 309.652344 235.339844 C 308.425781 236.515625 307.148438 237.683594 305.804688 238.769531 C 301.164062 242.605469 295.945312 245.691406 291.535156 247.84375 C 308.199219 247.484375 320.4375 240.492188 327.171875 227.320312 C 330.960938 219.90625 332.492188 213.773438 333.972656 207.84375 C 334.96875 203.847656 335.925781 200.019531 337.496094 195.96875 C 335.433594 196.84375 333.347656 197.691406 331.195312 198.566406 C 323.710938 201.605469 315.972656 204.746094 307.96875 209.765625 C 285.367188 223.933594 282.980469 239.984375 283.496094 245.867188 " fill-opacity="1" fill-rule="nonzero"/></g><g clip-path="url(#3a8cf3f9e2)"><path fill="#8f7650" d="M 273.445312 155.136719 C 275.535156 159.136719 277.652344 163.183594 279.402344 166.703125 L 281.679688 142.011719 L 284.023438 167.421875 C 285.835938 163.738281 288.097656 159.414062 290.332031 155.144531 C 291.75 152.433594 293.132812 149.792969 294.316406 147.476562 C 291.484375 139.890625 286.617188 132.878906 281.679688 127.121094 C 276.527344 132.984375 271.894531 139.660156 269.15625 146.871094 C 270.402344 149.324219 271.898438 152.1875 273.445312 155.136719 " fill-opacity="1" fill-rule="nonzero"/></g><path fill="#8f7650" d="M 236.53125 195.90625 C 241.351562 197.867188 246.28125 199.9375 251.34375 202.558594 C 250.511719 199.910156 249.570312 196.53125 248.800781 193.105469 C 248.378906 191.261719 248.011719 189.40625 247.710938 187.664062 C 247.550781 186.796875 247.421875 185.953125 247.304688 185.152344 C 247.183594 184.351562 247.074219 183.59375 247 182.894531 C 246.820312 181.496094 246.710938 180.328125 246.648438 179.511719 C 246.582031 178.695312 246.539062 178.230469 246.539062 178.230469 C 246.539062 178.230469 246.664062 178.679688 246.878906 179.46875 C 247.082031 180.261719 247.398438 181.382812 247.824219 182.714844 C 248.019531 183.382812 248.257812 184.101562 248.519531 184.855469 C 248.777344 185.613281 249.046875 186.410156 249.359375 187.222656 C 249.953125 188.855469 250.632812 190.578125 251.367188 192.277344 C 252.808594 195.683594 254.433594 198.992188 255.730469 201.417969 C 256.371094 202.636719 256.9375 203.628906 257.328125 204.3125 C 257.566406 204.714844 258.195312 205.859375 258.664062 206.714844 C 258.664062 206.71875 258.667969 206.71875 258.667969 206.71875 C 259.15625 207.027344 259.632812 207.335938 260.101562 207.644531 C 260.390625 201.867188 262.558594 194.902344 265.753906 188.382812 C 260.011719 181.773438 245.53125 166.941406 241.160156 162.460938 C 237.707031 168.335938 234.960938 187.441406 236.53125 195.90625 " fill-opacity="1" fill-rule="nonzero"/><path fill="#8f7650" d="M 303.390625 208.488281 C 303.714844 208.265625 304.027344 208.046875 304.359375 207.828125 C 305.101562 206.53125 306.132812 204.730469 306.378906 204.3125 C 306.773438 203.628906 307.335938 202.636719 307.976562 201.417969 C 309.273438 198.992188 310.898438 195.683594 312.34375 192.277344 C 313.074219 190.578125 313.753906 188.855469 314.351562 187.222656 C 314.660156 186.410156 314.933594 185.613281 315.1875 184.855469 C 315.449219 184.101562 315.691406 183.382812 315.886719 182.714844 C 316.3125 181.382812 316.625 180.261719 316.832031 179.46875 C 317.042969 178.679688 317.167969 178.230469 317.167969 178.230469 C 317.167969 178.230469 317.128906 178.695312 317.058594 179.511719 C 317 180.328125 316.890625 181.496094 316.710938 182.894531 C 316.636719 183.59375 316.527344 184.351562 316.402344 185.152344 C 316.285156 185.953125 316.160156 186.796875 315.996094 187.664062 C 315.699219 189.40625 315.332031 191.261719 314.90625 193.105469 C 314.078125 196.796875 313.046875 200.457031 312.171875 203.179688 C 312.167969 203.183594 312.167969 203.183594 312.167969 203.1875 C 317.011719 200.601562 321.726562 198.5625 326.34375 196.664062 C 328.246094 188.644531 325.4375 168.519531 321.875 162.460938 C 317.574219 166.867188 303.484375 181.304688 297.5625 188.0625 C 301 194.996094 303.285156 202.460938 303.390625 208.488281 " fill-opacity="1" fill-rule="nonzero"/><path fill="#8f7650" d="M 263.707031 208.921875 C 263.707031 209.339844 263.742188 209.765625 263.765625 210.1875 C 271.160156 215.648438 276.214844 223.691406 279.429688 229.03125 L 281.679688 195.234375 L 284.121094 229.03125 C 287.082031 223.363281 291.941406 217.160156 299.648438 211.199219 C 299.722656 210.433594 299.765625 209.671875 299.765625 208.921875 C 299.765625 197.605469 290.671875 179.722656 281.734375 173.046875 C 272.796875 179.722656 263.707031 197.605469 263.707031 208.921875 " fill-opacity="1" fill-rule="nonzero"/><path fill="#8f7650" d="M 69.90625 179.003906 C 69.878906 178.804688 69.855469 178.609375 69.824219 178.40625 C 69.746094 177.554688 69.648438 176.683594 69.605469 175.792969 C 69.578125 174.898438 69.511719 174.003906 69.542969 173.097656 L 69.5625 171.746094 C 69.582031 171.300781 69.625 170.851562 69.65625 170.414062 C 69.691406 169.972656 69.710938 169.535156 69.757812 169.105469 C 69.820312 168.679688 69.878906 168.253906 69.9375 167.839844 C 70 167.425781 70.046875 167.015625 70.121094 166.621094 C 70.203125 166.230469 70.289062 165.84375 70.371094 165.46875 C 70.523438 164.722656 70.679688 164.019531 70.894531 163.386719 C 71.089844 162.753906 71.253906 162.171875 71.421875 161.664062 C 71.625 161.167969 71.796875 160.734375 71.941406 160.375 C 72.222656 159.667969 72.386719 159.261719 72.386719 159.261719 C 72.386719 159.261719 72.304688 159.691406 72.160156 160.441406 C 72.089844 160.8125 72.003906 161.265625 71.90625 161.785156 C 71.839844 162.308594 71.789062 162.902344 71.722656 163.542969 C 71.636719 164.183594 71.617188 164.882812 71.609375 165.621094 C 71.601562 165.984375 71.59375 166.363281 71.585938 166.746094 C 71.589844 167.132812 71.625 167.527344 71.640625 167.925781 C 71.660156 168.324219 71.683594 168.726562 71.703125 169.136719 C 71.738281 169.542969 71.800781 169.957031 71.847656 170.371094 C 71.898438 170.785156 71.9375 171.199219 72.003906 171.617188 L 72.226562 172.863281 C 72.355469 173.695312 72.582031 174.511719 72.765625 175.316406 C 72.964844 176.117188 73.210938 176.894531 73.429688 177.644531 C 73.691406 178.386719 73.90625 179.109375 74.175781 179.773438 C 74.425781 180.445312 74.679688 181.070312 74.929688 181.640625 C 75.421875 182.78125 75.882812 183.699219 76.210938 184.316406 C 76.378906 184.632812 76.507812 184.859375 76.589844 184.992188 C 76.636719 185.070312 76.953125 185.53125 77.265625 185.980469 C 80.683594 179.554688 85.046875 173.769531 89.480469 170.3125 C 85.300781 161.535156 77.238281 147.046875 75.121094 141.933594 C 70.003906 145.894531 61.722656 159.800781 59.566406 168.203125 C 63.613281 172.386719 67.058594 175.984375 69.90625 179.003906 " fill-opacity="1" fill-rule="nonzero"/><path fill="#8f7650" d="M 105.71875 184.15625 C 106.042969 183.542969 106.464844 182.691406 106.914062 181.640625 C 107.167969 181.070312 107.417969 180.445312 107.667969 179.773438 C 107.941406 179.109375 108.152344 178.386719 108.414062 177.644531 C 108.636719 176.894531 108.878906 176.117188 109.078125 175.316406 C 109.261719 174.511719 109.488281 173.695312 109.617188 172.863281 L 109.84375 171.617188 C 109.910156 171.199219 109.945312 170.785156 110 170.371094 C 110.046875 169.957031 110.105469 169.542969 110.140625 169.136719 C 110.164062 168.726562 110.183594 168.324219 110.207031 167.925781 C 110.222656 167.527344 110.253906 167.132812 110.257812 166.746094 C 110.25 166.363281 110.242188 165.984375 110.234375 165.621094 C 110.230469 164.882812 110.210938 164.183594 110.125 163.542969 C 110.058594 162.902344 110.007812 162.308594 109.9375 161.785156 C 109.839844 161.265625 109.757812 160.8125 109.683594 160.441406 C 109.542969 159.691406 109.460938 159.261719 109.460938 159.261719 C 109.460938 159.261719 109.625 159.667969 109.90625 160.375 C 110.050781 160.734375 110.222656 161.167969 110.421875 161.664062 C 110.589844 162.171875 110.757812 162.753906 110.953125 163.386719 C 111.164062 164.019531 111.324219 164.722656 111.476562 165.46875 C 111.558594 165.84375 111.640625 166.230469 111.726562 166.621094 C 111.800781 167.015625 111.84375 167.425781 111.910156 167.839844 C 111.96875 168.253906 112.027344 168.679688 112.085938 169.105469 C 112.132812 169.535156 112.15625 169.972656 112.191406 170.414062 C 112.222656 170.851562 112.265625 171.300781 112.28125 171.746094 L 112.300781 173.097656 C 112.335938 174.003906 112.269531 174.898438 112.238281 175.792969 C 112.195312 176.683594 112.097656 177.554688 112.019531 178.40625 C 111.898438 179.246094 111.816406 180.074219 111.667969 180.839844 C 111.640625 181.007812 111.609375 181.164062 111.582031 181.328125 C 114.90625 177.761719 119.269531 173.1875 124.683594 167.605469 C 122.296875 159.15625 114.285156 145.800781 109.285156 141.933594 C 107.152344 147.09375 98.960938 161.796875 94.816406 170.546875 C 98.71875 173.6875 102.554688 178.609375 105.71875 184.15625 " fill-opacity="1" fill-rule="nonzero"/><g clip-path="url(#102347dc6d)"><path fill="#8f7650" d="M 67.074219 209.765625 C 59.070312 204.746094 51.332031 201.605469 43.851562 198.566406 C 41.695312 197.691406 39.613281 196.84375 37.550781 195.96875 C 39.117188 200.019531 40.074219 203.847656 41.070312 207.84375 C 42.550781 213.773438 44.082031 219.90625 47.871094 227.320312 C 54.292969 239.878906 65.730469 246.8125 81.234375 247.738281 C 76.867188 245.589844 71.742188 242.546875 67.175781 238.769531 C 65.828125 237.683594 64.550781 236.515625 63.328125 235.339844 C 62.710938 234.753906 62.140625 234.132812 61.554688 233.542969 C 61 232.925781 60.449219 232.320312 59.910156 231.71875 C 59.398438 231.097656 58.894531 230.484375 58.402344 229.882812 C 57.9375 229.261719 57.484375 228.65625 57.042969 228.066406 C 56.203125 226.855469 55.429688 225.699219 54.789062 224.589844 C 54.105469 223.503906 53.605469 222.4375 53.109375 221.527344 C 52.679688 220.582031 52.28125 219.773438 51.992188 219.089844 C 51.445312 217.710938 51.128906 216.921875 51.128906 216.921875 C 51.128906 216.921875 51.519531 217.671875 52.199219 218.988281 C 52.554688 219.636719 53.027344 220.402344 53.542969 221.285156 C 54.125 222.132812 54.714844 223.128906 55.492188 224.121094 C 56.222656 225.144531 57.09375 226.195312 58.023438 227.289062 C 58.507812 227.820312 59.003906 228.363281 59.515625 228.917969 C 60.046875 229.449219 60.59375 229.992188 61.144531 230.542969 C 61.722656 231.066406 62.308594 231.601562 62.90625 232.140625 C 63.523438 232.652344 64.132812 233.191406 64.777344 233.695312 C 66.0625 234.703125 67.390625 235.695312 68.777344 236.601562 C 74.289062 240.304688 80.390625 242.960938 85.058594 244.523438 C 87.390625 245.320312 89.367188 245.855469 90.742188 246.1875 C 90.96875 246.246094 92.460938 225.679688 67.074219 209.765625 " fill-opacity="1" fill-rule="nonzero"/></g><g clip-path="url(#569a911f79)"><path fill="#8f7650" d="M 93.8125 245.867188 C 95.035156 245.539062 96.535156 245.101562 98.234375 244.523438 C 102.898438 242.960938 109.003906 240.304688 114.511719 236.601562 C 115.898438 235.695312 117.230469 234.703125 118.515625 233.695312 C 119.160156 233.191406 119.765625 232.652344 120.386719 232.140625 C 120.980469 231.601562 121.566406 231.066406 122.144531 230.542969 C 122.699219 229.992188 123.242188 229.449219 123.777344 228.917969 C 124.285156 228.363281 124.78125 227.820312 125.265625 227.289062 C 126.199219 226.195312 127.066406 225.144531 127.800781 224.121094 C 128.574219 223.128906 129.167969 222.132812 129.746094 221.285156 C 130.261719 220.402344 130.738281 219.636719 131.089844 218.988281 C 131.773438 217.671875 132.160156 216.921875 132.160156 216.921875 C 132.160156 216.921875 131.847656 217.710938 131.300781 219.089844 C 131.011719 219.773438 130.613281 220.582031 130.179688 221.527344 C 129.683594 222.4375 129.183594 223.503906 128.503906 224.589844 C 127.863281 225.699219 127.089844 226.855469 126.246094 228.066406 C 125.804688 228.65625 125.351562 229.261719 124.890625 229.882812 C 124.398438 230.484375 123.894531 231.097656 123.382812 231.71875 C 122.839844 232.320312 122.292969 232.925781 121.734375 233.542969 C 121.152344 234.132812 120.578125 234.753906 119.964844 235.339844 C 118.742188 236.515625 117.460938 237.683594 116.117188 238.769531 C 111.476562 242.605469 106.257812 245.691406 101.847656 247.84375 C 118.515625 247.484375 130.753906 240.492188 137.488281 227.320312 C 141.277344 219.90625 142.808594 213.773438 144.289062 207.84375 C 145.285156 203.847656 146.242188 200.019531 147.808594 195.96875 C 145.746094 196.84375 143.664062 197.691406 141.507812 198.566406 C 134.027344 201.605469 126.289062 204.746094 118.28125 209.765625 C 95.683594 223.933594 93.296875 239.984375 93.8125 245.867188 " fill-opacity="1" fill-rule="nonzero"/></g><g clip-path="url(#5f8711dacf)"><path fill="#8f7650" d="M 83.757812 155.136719 C 85.851562 159.136719 87.96875 163.183594 89.71875 166.703125 L 91.996094 142.011719 L 94.339844 167.421875 C 96.152344 163.738281 98.410156 159.414062 100.644531 155.144531 C 102.066406 152.433594 103.445312 149.792969 104.628906 147.476562 C 101.800781 139.890625 96.929688 132.878906 91.996094 127.121094 C 86.839844 132.984375 82.210938 139.660156 79.46875 146.871094 C 80.714844 149.324219 82.214844 152.1875 83.757812 155.136719 " fill-opacity="1" fill-rule="nonzero"/></g><path fill="#8f7650" d="M 46.847656 195.90625 C 51.667969 197.867188 56.59375 199.9375 61.65625 202.558594 C 60.828125 199.910156 59.882812 196.53125 59.117188 193.105469 C 58.691406 191.261719 58.324219 189.40625 58.027344 187.664062 C 57.863281 186.796875 57.738281 185.953125 57.621094 185.152344 C 57.496094 184.351562 57.386719 183.59375 57.3125 182.894531 C 57.132812 181.496094 57.023438 180.328125 56.964844 179.511719 C 56.894531 178.695312 56.855469 178.230469 56.855469 178.230469 C 56.855469 178.230469 56.976562 178.679688 57.191406 179.46875 C 57.398438 180.261719 57.710938 181.382812 58.136719 182.714844 C 58.332031 183.382812 58.574219 184.101562 58.835938 184.855469 C 59.089844 185.613281 59.359375 186.410156 59.671875 187.222656 C 60.269531 188.855469 60.949219 190.578125 61.679688 192.277344 C 63.125 195.683594 64.75 198.992188 66.046875 201.417969 C 66.6875 202.636719 67.25 203.628906 67.644531 204.3125 C 67.882812 204.714844 68.511719 205.859375 68.980469 206.714844 C 68.980469 206.71875 68.980469 206.71875 68.980469 206.71875 C 69.472656 207.027344 69.945312 207.335938 70.417969 207.644531 C 70.703125 201.867188 72.871094 194.902344 76.066406 188.382812 C 70.324219 181.773438 55.847656 166.941406 51.476562 162.460938 C 48.019531 168.335938 45.273438 187.441406 46.847656 195.90625 " fill-opacity="1" fill-rule="nonzero"/><path fill="#8f7650" d="M 113.703125 208.488281 C 114.027344 208.265625 114.34375 208.046875 114.675781 207.828125 C 115.414062 206.53125 116.445312 204.730469 116.695312 204.3125 C 117.085938 203.628906 117.648438 202.636719 118.292969 201.417969 C 119.589844 198.992188 121.214844 195.683594 122.65625 192.277344 C 123.386719 190.578125 124.066406 188.855469 124.664062 187.222656 C 124.976562 186.410156 125.246094 185.613281 125.503906 184.855469 C 125.765625 184.101562 126.003906 183.382812 126.199219 182.714844 C 126.625 181.382812 126.941406 180.261719 127.144531 179.46875 C 127.359375 178.679688 127.480469 178.230469 127.480469 178.230469 C 127.480469 178.230469 127.441406 178.695312 127.375 179.511719 C 127.3125 180.328125 127.203125 181.496094 127.023438 182.894531 C 126.949219 183.59375 126.839844 184.351562 126.71875 185.152344 C 126.601562 185.953125 126.472656 186.796875 126.3125 187.664062 C 126.011719 189.40625 125.644531 191.261719 125.222656 193.105469 C 124.394531 196.796875 123.359375 200.457031 122.484375 203.179688 C 122.484375 203.183594 122.484375 203.183594 122.484375 203.1875 C 127.328125 200.601562 132.042969 198.5625 136.660156 196.664062 C 138.5625 188.644531 135.75 168.519531 132.191406 162.460938 C 127.890625 166.867188 113.796875 181.304688 107.875 188.0625 C 111.316406 194.996094 113.597656 202.460938 113.703125 208.488281 " fill-opacity="1" fill-rule="nonzero"/><path fill="#8f7650" d="M 74.019531 208.921875 C 74.019531 209.339844 74.058594 209.765625 74.082031 210.1875 C 81.476562 215.648438 86.53125 223.691406 89.746094 229.03125 L 91.996094 195.234375 L 94.4375 229.03125 C 97.394531 223.363281 102.257812 217.160156 109.964844 211.199219 C 110.039062 210.433594 110.078125 209.671875 110.078125 208.921875 C 110.078125 197.605469 100.988281 179.722656 92.050781 173.046875 C 83.109375 179.722656 74.019531 197.605469 74.019531 208.921875 " fill-opacity="1" fill-rule="nonzero"/><path fill="#8f7650" d="M 164.75 67.808594 C 164.722656 67.609375 164.699219 67.410156 164.667969 67.210938 C 164.589844 66.359375 164.492188 65.488281 164.449219 64.597656 C 164.417969 63.703125 164.351562 62.804688 164.386719 61.898438 L 164.40625 60.550781 C 164.425781 60.105469 164.46875 59.65625 164.496094 59.214844 C 164.53125 58.773438 164.554688 58.339844 164.601562 57.910156 C 164.660156 57.480469 164.722656 57.058594 164.78125 56.640625 C 164.84375 56.226562 164.886719 55.820312 164.960938 55.425781 C 165.046875 55.03125 165.128906 54.648438 165.210938 54.273438 C 165.363281 53.523438 165.523438 52.824219 165.738281 52.191406 C 165.933594 51.558594 166.097656 50.976562 166.265625 50.46875 C 166.464844 49.96875 166.640625 49.535156 166.78125 49.179688 C 167.066406 48.46875 167.226562 48.066406 167.226562 48.066406 C 167.226562 48.066406 167.148438 48.496094 167.003906 49.246094 C 166.933594 49.617188 166.847656 50.070312 166.75 50.585938 C 166.683594 51.113281 166.632812 51.707031 166.5625 52.347656 C 166.480469 52.984375 166.457031 53.683594 166.453125 54.421875 C 166.445312 54.789062 166.4375 55.164062 166.429688 55.550781 C 166.433594 55.9375 166.464844 56.332031 166.484375 56.726562 C 166.503906 57.125 166.523438 57.53125 166.546875 57.9375 C 166.582031 58.347656 166.640625 58.761719 166.6875 59.175781 C 166.742188 59.585938 166.78125 60.003906 166.84375 60.421875 L 167.070312 61.667969 C 167.199219 62.496094 167.425781 63.316406 167.609375 64.117188 C 167.808594 64.921875 168.054688 65.699219 168.273438 66.449219 C 168.535156 67.191406 168.746094 67.914062 169.019531 68.578125 C 169.269531 69.25 169.523438 69.875 169.773438 70.441406 C 170.261719 71.585938 170.722656 72.5 171.054688 73.121094 C 171.222656 73.4375 171.351562 73.664062 171.433594 73.796875 C 171.480469 73.875 171.796875 74.335938 172.109375 74.785156 C 175.527344 68.355469 179.890625 62.574219 184.324219 59.117188 C 180.144531 50.339844 172.082031 35.851562 169.964844 30.738281 C 164.847656 34.695312 156.566406 48.605469 154.40625 57.007812 C 158.453125 61.1875 161.902344 64.789062 164.75 67.808594 " fill-opacity="1" fill-rule="nonzero"/><path fill="#8f7650" d="M 200.5625 72.957031 C 200.882812 72.347656 201.308594 71.496094 201.757812 70.441406 C 202.007812 69.875 202.261719 69.25 202.511719 68.578125 C 202.785156 67.914062 202.996094 67.191406 203.257812 66.449219 C 203.476562 65.699219 203.722656 64.921875 203.921875 64.117188 C 204.105469 63.316406 204.332031 62.496094 204.460938 61.667969 L 204.6875 60.421875 C 204.75 60.003906 204.789062 59.585938 204.84375 59.175781 C 204.890625 58.761719 204.949219 58.347656 204.984375 57.9375 C 205.007812 57.53125 205.027344 57.125 205.046875 56.726562 C 205.066406 56.332031 205.097656 55.9375 205.101562 55.550781 C 205.09375 55.164062 205.085938 54.789062 205.078125 54.421875 C 205.074219 53.683594 205.050781 52.984375 204.964844 52.347656 C 204.898438 51.707031 204.847656 51.113281 204.78125 50.585938 C 204.683594 50.070312 204.597656 49.617188 204.527344 49.246094 C 204.382812 48.496094 204.304688 48.066406 204.304688 48.066406 C 204.304688 48.066406 204.464844 48.46875 204.75 49.179688 C 204.890625 49.535156 205.066406 49.96875 205.265625 50.46875 C 205.433594 50.976562 205.597656 51.558594 205.792969 52.191406 C 206.007812 52.824219 206.167969 53.523438 206.320312 54.273438 C 206.402344 54.648438 206.484375 55.03125 206.570312 55.425781 C 206.644531 55.820312 206.6875 56.226562 206.75 56.640625 C 206.808594 57.058594 206.871094 57.480469 206.929688 57.910156 C 206.976562 58.339844 207 58.773438 207.035156 59.214844 C 207.0625 59.65625 207.105469 60.105469 207.125 60.550781 L 207.144531 61.898438 C 207.179688 62.804688 207.113281 63.703125 207.082031 64.597656 C 207.039062 65.488281 206.941406 66.359375 206.863281 67.210938 C 206.742188 68.050781 206.660156 68.875 206.511719 69.644531 C 206.484375 69.8125 206.453125 69.96875 206.425781 70.132812 C 209.75 66.566406 214.113281 61.992188 219.523438 56.410156 C 217.140625 47.957031 209.125 34.601562 204.128906 30.738281 C 201.996094 35.898438 193.804688 50.601562 189.65625 59.351562 C 193.5625 62.492188 197.398438 67.414062 200.5625 72.957031 " fill-opacity="1" fill-rule="nonzero"/><g clip-path="url(#63cae47a82)"><path fill="#8f7650" d="M 161.917969 98.570312 C 153.914062 93.550781 146.175781 90.40625 138.691406 87.367188 C 136.539062 86.496094 134.453125 85.648438 132.394531 84.769531 C 133.960938 88.820312 134.917969 92.652344 135.914062 96.644531 C 137.394531 102.578125 138.925781 108.710938 142.714844 116.121094 C 149.136719 128.683594 160.570312 135.617188 176.078125 136.539062 C 171.710938 134.394531 166.585938 131.351562 162.015625 127.570312 C 160.671875 126.484375 159.394531 125.320312 158.171875 124.144531 C 157.554688 123.558594 156.980469 122.9375 156.398438 122.347656 C 155.84375 121.730469 155.292969 121.121094 154.75 120.523438 C 154.238281 119.898438 153.738281 119.285156 153.246094 118.6875 C 152.78125 118.066406 152.328125 117.460938 151.886719 116.867188 C 151.046875 115.65625 150.273438 114.503906 149.628906 113.390625 C 148.949219 112.308594 148.449219 111.238281 147.953125 110.332031 C 147.519531 109.386719 147.125 108.578125 146.835938 107.890625 C 146.285156 106.515625 145.972656 105.726562 145.972656 105.726562 C 145.972656 105.726562 146.363281 106.476562 147.042969 107.792969 C 147.398438 108.441406 147.871094 109.203125 148.386719 110.089844 C 148.96875 110.9375 149.558594 111.933594 150.332031 112.925781 C 151.066406 113.949219 151.933594 115 152.867188 116.09375 C 153.351562 116.621094 153.847656 117.164062 154.359375 117.722656 C 154.890625 118.253906 155.433594 118.796875 155.988281 119.347656 C 156.566406 119.871094 157.152344 120.40625 157.746094 120.945312 C 158.367188 121.457031 158.972656 121.996094 159.617188 122.496094 C 160.90625 123.507812 162.234375 124.496094 163.621094 125.40625 C 169.132812 129.105469 175.234375 131.761719 179.902344 133.328125 C 182.234375 134.121094 184.207031 134.65625 185.582031 134.992188 C 185.8125 135.046875 187.304688 114.484375 161.917969 98.570312 " fill-opacity="1" fill-rule="nonzero"/></g><g clip-path="url(#abebe60726)"><path fill="#8f7650" d="M 188.652344 134.667969 C 189.878906 134.34375 191.378906 133.90625 193.074219 133.328125 C 197.742188 131.761719 203.847656 129.105469 209.355469 125.40625 C 210.742188 124.496094 212.074219 123.507812 213.359375 122.496094 C 214.003906 121.996094 214.609375 121.457031 215.230469 120.945312 C 215.824219 120.40625 216.410156 119.871094 216.988281 119.347656 C 217.542969 118.796875 218.085938 118.253906 218.621094 117.722656 C 219.128906 117.164062 219.625 116.621094 220.109375 116.09375 C 221.042969 115 221.910156 113.949219 222.644531 112.925781 C 223.417969 111.933594 224.007812 110.9375 224.589844 110.089844 C 225.105469 109.203125 225.582031 108.441406 225.933594 107.792969 C 226.613281 106.476562 227.003906 105.726562 227.003906 105.726562 C 227.003906 105.726562 226.691406 106.515625 226.140625 107.890625 C 225.851562 108.578125 225.457031 109.386719 225.023438 110.332031 C 224.527344 111.238281 224.027344 112.308594 223.347656 113.390625 C 222.703125 114.503906 221.929688 115.65625 221.089844 116.867188 C 220.648438 117.460938 220.195312 118.066406 219.734375 118.6875 C 219.238281 119.285156 218.738281 119.898438 218.226562 120.523438 C 217.683594 121.121094 217.132812 121.730469 216.578125 122.347656 C 215.996094 122.9375 215.421875 123.558594 214.808594 124.144531 C 213.582031 125.320312 212.304688 126.484375 210.960938 127.570312 C 206.320312 131.410156 201.101562 134.496094 196.691406 136.644531 C 213.355469 136.289062 225.597656 129.292969 232.328125 116.121094 C 236.117188 108.710938 237.648438 102.578125 239.132812 96.644531 C 240.125 92.652344 241.082031 88.820312 242.652344 84.769531 C 240.589844 85.648438 238.503906 86.496094 236.351562 87.367188 C 228.871094 90.40625 221.132812 93.550781 213.125 98.570312 C 190.523438 112.738281 188.140625 128.789062 188.652344 134.667969 " fill-opacity="1" fill-rule="nonzero"/></g><g clip-path="url(#ce8f0010a4)"><path fill="#8f7650" d="M 178.601562 43.941406 C 180.691406 47.9375 182.808594 51.988281 184.558594 55.507812 L 186.835938 30.816406 L 189.179688 56.222656 C 190.996094 52.542969 193.253906 48.21875 195.488281 43.949219 C 196.910156 41.234375 198.289062 38.597656 199.472656 36.277344 C 196.644531 28.695312 191.773438 21.679688 186.835938 15.925781 C 181.683594 21.789062 177.050781 28.460938 174.3125 35.671875 C 175.558594 38.125 177.058594 40.992188 178.601562 43.941406 " fill-opacity="1" fill-rule="nonzero"/></g><path fill="#8f7650" d="M 141.691406 84.707031 C 146.507812 86.671875 151.4375 88.742188 156.5 91.363281 C 155.667969 88.714844 154.726562 85.332031 153.960938 81.910156 C 153.535156 80.066406 153.167969 78.210938 152.867188 76.46875 C 152.707031 75.601562 152.578125 74.753906 152.464844 73.953125 C 152.339844 73.15625 152.230469 72.398438 152.15625 71.695312 C 151.976562 70.300781 151.867188 69.132812 151.808594 68.316406 C 151.738281 67.496094 151.699219 67.03125 151.699219 67.03125 C 151.699219 67.03125 151.820312 67.484375 152.035156 68.273438 C 152.238281 69.066406 152.554688 70.1875 152.980469 71.519531 C 153.175781 72.1875 153.417969 72.90625 153.679688 73.660156 C 153.933594 74.417969 154.203125 75.210938 154.515625 76.027344 C 155.113281 77.65625 155.792969 79.382812 156.523438 81.082031 C 157.96875 84.484375 159.589844 87.796875 160.886719 90.222656 C 161.53125 91.4375 162.09375 92.429688 162.488281 93.117188 C 162.726562 93.519531 163.355469 94.664062 163.820312 95.519531 C 163.824219 95.519531 163.824219 95.519531 163.824219 95.523438 C 164.316406 95.828125 164.789062 96.136719 165.261719 96.449219 C 165.546875 90.671875 167.714844 83.707031 170.910156 77.183594 C 165.167969 70.578125 150.691406 55.742188 146.316406 51.265625 C 142.863281 57.140625 140.117188 76.246094 141.691406 84.707031 " fill-opacity="1" fill-rule="nonzero"/><path fill="#8f7650" d="M 208.546875 97.289062 C 208.871094 97.070312 209.183594 96.847656 209.515625 96.628906 C 210.257812 95.335938 211.289062 93.535156 211.535156 93.117188 C 211.929688 92.429688 212.492188 91.4375 213.132812 90.222656 C 214.433594 87.796875 216.054688 84.484375 217.5 81.082031 C 218.230469 79.382812 218.910156 77.65625 219.507812 76.027344 C 219.820312 75.210938 220.089844 74.417969 220.34375 73.660156 C 220.605469 72.90625 220.847656 72.1875 221.042969 71.519531 C 221.46875 70.1875 221.785156 69.066406 221.988281 68.273438 C 222.203125 67.484375 222.324219 67.03125 222.324219 67.03125 C 222.324219 67.03125 222.285156 67.496094 222.214844 68.316406 C 222.15625 69.132812 222.046875 70.300781 221.867188 71.695312 C 221.792969 72.398438 221.683594 73.15625 221.558594 73.953125 C 221.441406 74.753906 221.316406 75.601562 221.15625 76.46875 C 220.855469 78.210938 220.488281 80.066406 220.0625 81.910156 C 219.234375 85.601562 218.203125 89.257812 217.328125 91.984375 C 217.328125 91.984375 217.324219 91.988281 217.324219 91.988281 C 222.171875 89.40625 226.886719 87.367188 231.503906 85.464844 C 233.40625 77.445312 230.59375 57.324219 227.035156 51.265625 C 222.730469 55.671875 208.640625 70.105469 202.71875 76.867188 C 206.15625 83.796875 208.441406 91.265625 208.546875 97.289062 " fill-opacity="1" fill-rule="nonzero"/><path fill="#8f7650" d="M 168.863281 97.726562 C 168.863281 98.144531 168.902344 98.570312 168.921875 98.992188 C 176.316406 104.449219 181.375 112.496094 184.585938 117.832031 L 186.835938 84.035156 L 189.277344 117.832031 C 192.238281 112.167969 197.097656 105.960938 204.804688 100.003906 C 204.882812 99.238281 204.921875 98.476562 204.921875 97.726562 C 204.921875 86.410156 195.832031 68.527344 186.890625 61.851562 C 177.953125 68.527344 168.863281 86.410156 168.863281 97.726562 " fill-opacity="1" fill-rule="nonzero"/><path fill="#8f7650" d="M 164.75 282.289062 C 164.722656 282.085938 164.699219 281.890625 164.667969 281.6875 C 164.589844 280.839844 164.492188 279.96875 164.449219 279.074219 C 164.417969 278.183594 164.351562 277.285156 164.386719 276.378906 L 164.40625 275.03125 C 164.425781 274.582031 164.46875 274.136719 164.496094 273.695312 C 164.53125 273.253906 164.554688 272.820312 164.601562 272.390625 C 164.660156 271.960938 164.722656 271.539062 164.78125 271.121094 C 164.84375 270.707031 164.886719 270.300781 164.960938 269.90625 C 165.046875 269.511719 165.128906 269.125 165.210938 268.75 C 165.363281 268.003906 165.523438 267.304688 165.738281 266.671875 C 165.933594 266.035156 166.097656 265.457031 166.265625 264.949219 C 166.464844 264.449219 166.640625 264.015625 166.78125 263.660156 C 167.066406 262.949219 167.226562 262.546875 167.226562 262.546875 C 167.226562 262.546875 167.148438 262.972656 167.003906 263.722656 C 166.933594 264.097656 166.847656 264.546875 166.75 265.066406 C 166.683594 265.589844 166.632812 266.1875 166.5625 266.828125 C 166.480469 267.464844 166.457031 268.164062 166.453125 268.902344 C 166.445312 269.269531 166.4375 269.644531 166.429688 270.03125 C 166.433594 270.414062 166.464844 270.808594 166.484375 271.207031 C 166.503906 271.605469 166.523438 272.011719 166.546875 272.417969 C 166.582031 272.828125 166.640625 273.238281 166.6875 273.652344 C 166.742188 274.066406 166.78125 274.484375 166.84375 274.898438 L 167.070312 276.144531 C 167.199219 276.976562 167.425781 277.792969 167.609375 278.597656 C 167.808594 279.398438 168.054688 280.179688 168.273438 280.929688 C 168.535156 281.671875 168.746094 282.394531 169.019531 283.058594 C 169.269531 283.730469 169.523438 284.355469 169.773438 284.921875 C 170.261719 286.066406 170.722656 286.980469 171.054688 287.601562 C 171.222656 287.917969 171.351562 288.140625 171.433594 288.277344 C 171.480469 288.355469 171.796875 288.8125 172.109375 289.265625 C 175.527344 282.835938 179.890625 277.050781 184.324219 273.59375 C 180.144531 264.820312 172.082031 250.332031 169.964844 245.21875 C 164.847656 249.175781 156.566406 263.085938 154.40625 271.488281 C 158.453125 275.667969 161.902344 279.269531 164.75 282.289062 " fill-opacity="1" fill-rule="nonzero"/><path fill="#8f7650" d="M 200.5625 287.4375 C 200.882812 286.824219 201.308594 285.972656 201.757812 284.921875 C 202.007812 284.355469 202.261719 283.730469 202.511719 283.058594 C 202.785156 282.394531 202.996094 281.671875 203.257812 280.929688 C 203.476562 280.179688 203.722656 279.398438 203.921875 278.597656 C 204.105469 277.792969 204.332031 276.976562 204.460938 276.144531 L 204.6875 274.898438 C 204.75 274.484375 204.789062 274.066406 204.84375 273.652344 C 204.890625 273.238281 204.949219 272.828125 204.984375 272.417969 C 205.007812 272.011719 205.027344 271.605469 205.046875 271.207031 C 205.066406 270.808594 205.097656 270.414062 205.101562 270.03125 C 205.09375 269.644531 205.085938 269.269531 205.078125 268.902344 C 205.074219 268.164062 205.050781 267.464844 204.964844 266.828125 C 204.898438 266.1875 204.847656 265.589844 204.78125 265.066406 C 204.683594 264.546875 204.597656 264.097656 204.527344 263.722656 C 204.382812 262.972656 204.304688 262.546875 204.304688 262.546875 C 204.304688 262.546875 204.464844 262.949219 204.75 263.660156 C 204.890625 264.015625 205.066406 264.449219 205.265625 264.949219 C 205.433594 265.457031 205.597656 266.035156 205.792969 266.671875 C 206.007812 267.304688 206.167969 268.003906 206.320312 268.75 C 206.402344 269.125 206.484375 269.511719 206.570312 269.90625 C 206.644531 270.300781 206.6875 270.707031 206.75 271.121094 C 206.808594 271.539062 206.871094 271.960938 206.929688 272.390625 C 206.976562 272.820312 207 273.253906 207.035156 273.695312 C 207.0625 274.136719 207.105469 274.582031 207.125 275.03125 L 207.144531 276.378906 C 207.179688 277.285156 207.113281 278.183594 207.082031 279.074219 C 207.039062 279.96875 206.941406 280.839844 206.863281 281.6875 C 206.742188 282.53125 206.660156 283.355469 206.511719 284.125 C 206.484375 284.289062 206.453125 284.449219 206.425781 284.609375 C 209.75 281.046875 214.113281 276.472656 219.523438 270.886719 C 217.140625 262.4375 209.125 249.082031 204.128906 245.21875 C 201.996094 250.375 193.804688 265.082031 189.65625 273.832031 C 193.5625 276.972656 197.398438 281.894531 200.5625 287.4375 " fill-opacity="1" fill-rule="nonzero"/><g clip-path="url(#33d40cf5a0)"><path fill="#8f7650" d="M 161.917969 313.050781 C 153.914062 308.03125 146.175781 304.886719 138.691406 301.847656 C 136.539062 300.972656 134.453125 300.128906 132.394531 299.25 C 133.960938 303.300781 134.917969 307.132812 135.914062 311.125 C 137.394531 317.058594 138.925781 323.191406 142.714844 330.601562 C 149.136719 343.164062 160.570312 350.09375 176.078125 351.019531 C 171.710938 348.875 166.585938 345.832031 162.015625 342.050781 C 160.671875 340.964844 159.394531 339.800781 158.171875 338.625 C 157.554688 338.039062 156.980469 337.417969 156.398438 336.828125 C 155.84375 336.210938 155.292969 335.601562 154.75 335 C 154.238281 334.378906 153.738281 333.765625 153.246094 333.167969 C 152.78125 332.546875 152.328125 331.941406 151.886719 331.347656 C 151.046875 330.136719 150.273438 328.984375 149.628906 327.871094 C 148.949219 326.789062 148.449219 325.71875 147.953125 324.8125 C 147.519531 323.867188 147.125 323.058594 146.835938 322.371094 C 146.285156 320.996094 145.972656 320.207031 145.972656 320.207031 C 145.972656 320.207031 146.363281 320.957031 147.042969 322.269531 C 147.398438 322.921875 147.871094 323.683594 148.386719 324.570312 C 148.96875 325.417969 149.558594 326.410156 150.332031 327.40625 C 151.066406 328.429688 151.933594 329.480469 152.867188 330.570312 C 153.351562 331.101562 153.847656 331.644531 154.359375 332.203125 C 154.890625 332.734375 155.433594 333.273438 155.988281 333.828125 C 156.566406 334.351562 157.152344 334.886719 157.746094 335.425781 C 158.367188 335.9375 158.972656 336.472656 159.617188 336.976562 C 160.90625 337.988281 162.234375 338.976562 163.621094 339.886719 C 169.132812 343.585938 175.234375 346.242188 179.902344 347.808594 C 182.234375 348.601562 184.207031 349.136719 185.582031 349.472656 C 185.8125 349.527344 187.304688 328.964844 161.917969 313.050781 " fill-opacity="1" fill-rule="nonzero"/></g><g clip-path="url(#d712f8ff2b)"><path fill="#8f7650" d="M 188.652344 349.148438 C 189.878906 348.824219 191.378906 348.386719 193.074219 347.808594 C 197.742188 346.242188 203.847656 343.585938 209.355469 339.886719 C 210.742188 338.976562 212.074219 337.988281 213.359375 336.976562 C 214.003906 336.472656 214.609375 335.9375 215.230469 335.425781 C 215.824219 334.886719 216.410156 334.351562 216.988281 333.828125 C 217.542969 333.273438 218.085938 332.734375 218.621094 332.203125 C 219.128906 331.644531 219.625 331.101562 220.109375 330.570312 C 221.042969 329.480469 221.910156 328.429688 222.644531 327.40625 C 223.417969 326.410156 224.007812 325.417969 224.589844 324.570312 C 225.105469 323.683594 225.582031 322.921875 225.933594 322.269531 C 226.613281 320.957031 227.003906 320.207031 227.003906 320.207031 C 227.003906 320.207031 226.691406 320.996094 226.140625 322.371094 C 225.851562 323.058594 225.457031 323.867188 225.023438 324.8125 C 224.527344 325.71875 224.027344 326.789062 223.347656 327.871094 C 222.703125 328.984375 221.929688 330.136719 221.089844 331.347656 C 220.648438 331.941406 220.195312 332.546875 219.734375 333.167969 C 219.238281 333.765625 218.738281 334.378906 218.226562 335 C 217.683594 335.601562 217.132812 336.210938 216.578125 336.828125 C 215.996094 337.417969 215.421875 338.039062 214.808594 338.625 C 213.582031 339.800781 212.304688 340.964844 210.960938 342.050781 C 206.320312 345.890625 201.101562 348.976562 196.691406 351.125 C 213.355469 350.769531 225.597656 343.773438 232.328125 330.601562 C 236.117188 323.191406 237.648438 317.058594 239.132812 311.125 C 240.125 307.132812 241.082031 303.300781 242.652344 299.25 C 240.589844 300.128906 238.503906 300.972656 236.351562 301.847656 C 228.871094 304.886719 221.132812 308.03125 213.125 313.050781 C 190.523438 327.21875 188.140625 343.269531 188.652344 349.148438 " fill-opacity="1" fill-rule="nonzero"/></g><g clip-path="url(#1bb1425e4f)"><path fill="#8f7650" d="M 178.601562 258.421875 C 180.691406 262.417969 182.808594 266.464844 184.558594 269.988281 L 186.835938 245.296875 L 189.179688 270.703125 C 190.996094 267.019531 193.253906 262.699219 195.488281 258.429688 C 196.910156 255.714844 198.289062 253.078125 199.472656 250.757812 C 196.644531 243.171875 191.773438 236.160156 186.835938 230.40625 C 181.683594 236.269531 177.050781 242.941406 174.3125 250.152344 C 175.558594 252.605469 177.058594 255.472656 178.601562 258.421875 " fill-opacity="1" fill-rule="nonzero"/></g><path fill="#8f7650" d="M 141.691406 299.1875 C 146.507812 301.152344 151.4375 303.222656 156.5 305.84375 C 155.667969 303.195312 154.726562 299.8125 153.960938 296.386719 C 153.535156 294.546875 153.167969 292.691406 152.867188 290.949219 C 152.707031 290.078125 152.578125 289.234375 152.464844 288.433594 C 152.339844 287.636719 152.230469 286.878906 152.15625 286.175781 C 151.976562 284.777344 151.867188 283.613281 151.808594 282.792969 C 151.738281 281.976562 151.699219 281.511719 151.699219 281.511719 C 151.699219 281.511719 151.820312 281.964844 152.035156 282.753906 C 152.238281 283.542969 152.554688 284.667969 152.980469 286 C 153.175781 286.667969 153.417969 287.382812 153.679688 288.140625 C 153.933594 288.894531 154.203125 289.691406 154.515625 290.507812 C 155.113281 292.136719 155.792969 293.863281 156.523438 295.5625 C 157.96875 298.964844 159.589844 302.277344 160.886719 304.703125 C 161.53125 305.917969 162.09375 306.910156 162.488281 307.597656 C 162.726562 307.996094 163.355469 309.144531 163.820312 310 C 163.824219 310 163.824219 310 163.824219 310.003906 C 164.316406 310.308594 164.789062 310.617188 165.261719 310.925781 C 165.546875 305.152344 167.714844 298.183594 170.910156 291.664062 C 165.167969 285.058594 150.691406 270.222656 146.316406 265.746094 C 142.863281 271.621094 140.117188 290.726562 141.691406 299.1875 " fill-opacity="1" fill-rule="nonzero"/><path fill="#8f7650" d="M 208.546875 311.769531 C 208.871094 311.550781 209.183594 311.328125 209.515625 311.109375 C 210.257812 309.8125 211.289062 308.015625 211.535156 307.597656 C 211.929688 306.910156 212.492188 305.917969 213.132812 304.703125 C 214.433594 302.277344 216.054688 298.964844 217.5 295.5625 C 218.230469 293.863281 218.910156 292.136719 219.507812 290.507812 C 219.820312 289.691406 220.089844 288.894531 220.34375 288.140625 C 220.605469 287.382812 220.847656 286.667969 221.042969 286 C 221.46875 284.667969 221.785156 283.542969 221.988281 282.753906 C 222.203125 281.964844 222.324219 281.511719 222.324219 281.511719 C 222.324219 281.511719 222.285156 281.976562 222.214844 282.792969 C 222.15625 283.613281 222.046875 284.777344 221.867188 286.175781 C 221.792969 286.878906 221.683594 287.636719 221.558594 288.433594 C 221.441406 289.234375 221.316406 290.078125 221.15625 290.949219 C 220.855469 292.691406 220.488281 294.546875 220.0625 296.386719 C 219.234375 300.082031 218.203125 303.738281 217.328125 306.460938 C 217.328125 306.464844 217.324219 306.46875 217.324219 306.46875 C 222.171875 303.886719 226.886719 301.847656 231.503906 299.945312 C 233.40625 291.925781 230.59375 271.804688 227.035156 265.746094 C 222.730469 270.152344 208.640625 284.585938 202.71875 291.347656 C 206.15625 298.277344 208.441406 305.746094 208.546875 311.769531 " fill-opacity="1" fill-rule="nonzero"/><path fill="#8f7650" d="M 168.863281 312.207031 C 168.863281 312.625 168.902344 313.050781 168.921875 313.472656 C 176.316406 318.929688 181.375 326.972656 184.585938 332.3125 L 186.835938 298.515625 L 189.277344 332.3125 C 192.238281 326.648438 197.097656 320.441406 204.804688 314.484375 C 204.882812 313.714844 204.921875 312.957031 204.921875 312.207031 C 204.921875 300.886719 195.832031 283.003906 186.890625 276.332031 C 177.953125 283.003906 168.863281 300.886719 168.863281 312.207031 " fill-opacity="1" fill-rule="nonzero"/></svg>