<svg xmlns="http://www.w3.org/2000/svg" xmlns:xlink="http://www.w3.org/1999/xlink" width="500" zoomAndPan="magnify" viewBox="0 0 375 374.999991" height="500" preserveAspectRatio="xMidYMid meet" version="1.0"><defs><clipPath id="fcd76e93cb"><path d="M 187.5 375 C 291.054688 375 375 291.054688 375 187.5 C 375 83.945312 291.054688 0 187.5 0 C 83.945312 0 0 83.945312 0 187.5 C 0 291.054688 83.945312 375 187.5 375 " clip-rule="nonzero"/></clipPath><clipPath id="dc52e594bc"><path d="M 62.476562 206.289062 L 183.59375 206.289062 L 183.59375 323.957031 L 62.476562 323.957031 Z M 62.476562 206.289062 " clip-rule="nonzero"/></clipPath><clipPath id="69b46a17f6"><path d="M 189 206 L 312.226562 206 L 312.226562 323.996094 L 189 323.996094 Z M 189 206 " clip-rule="nonzero"/></clipPath><clipPath id="d62b6a059d"><path d="M 157 51.003906 L 214.796875 51.003906 L 214.796875 142.683594 L 157 142.683594 Z M 157 51.003906 " clip-rule="nonzero"/></clipPath></defs><g clip-path="url(#fcd76e93cb)"><rect x="-37.5" width="450" fill="#fbf7ef" y="-37.499999" height="449.999989" fill-opacity="1"/></g><path fill="#8f7650" d="M 135.75 168.3125 C 135.691406 167.859375 135.636719 167.417969 135.570312 166.957031 C 135.390625 165.035156 135.171875 163.066406 135.070312 161.050781 C 135.003906 159.03125 134.855469 157.003906 134.929688 154.953125 L 134.976562 151.90625 C 135.015625 150.894531 135.113281 149.882812 135.183594 148.886719 C 135.261719 147.890625 135.3125 146.902344 135.417969 145.933594 C 135.554688 144.964844 135.6875 144.007812 135.824219 143.066406 C 135.964844 142.128906 136.066406 141.210938 136.238281 140.316406 C 136.429688 139.425781 136.617188 138.554688 136.800781 137.707031 C 137.148438 136.019531 137.507812 134.433594 137.988281 133.003906 C 138.433594 131.570312 138.808594 130.253906 139.1875 129.105469 C 139.640625 127.980469 140.035156 127 140.359375 126.191406 C 141 124.589844 141.367188 123.675781 141.367188 123.675781 C 141.367188 123.675781 141.183594 124.644531 140.859375 126.339844 C 140.703125 127.183594 140.507812 128.203125 140.285156 129.378906 C 140.132812 130.5625 140.015625 131.90625 139.863281 133.355469 C 139.671875 134.800781 139.625 136.382812 139.613281 138.046875 C 139.59375 138.875 139.578125 139.726562 139.558594 140.597656 C 139.566406 141.46875 139.640625 142.363281 139.679688 143.261719 C 139.730469 144.160156 139.777344 145.074219 139.824219 146 C 139.90625 146.921875 140.039062 147.855469 140.148438 148.792969 C 140.265625 149.726562 140.355469 150.667969 140.5 151.609375 L 141.011719 154.425781 C 141.304688 156.304688 141.816406 158.152344 142.234375 159.96875 C 142.679688 161.785156 143.238281 163.542969 143.734375 165.238281 C 144.328125 166.917969 144.8125 168.550781 145.425781 170.054688 C 145.992188 171.574219 146.5625 172.988281 147.132812 174.269531 C 148.242188 176.851562 149.289062 178.925781 150.035156 180.324219 C 150.417969 181.039062 150.707031 181.550781 150.894531 181.855469 C 151 182.03125 151.71875 183.070312 152.425781 184.085938 C 160.167969 169.554688 170.054688 156.476562 180.09375 148.660156 C 170.628906 128.820312 152.359375 96.058594 147.570312 84.5 C 135.976562 93.449219 117.214844 124.894531 112.328125 143.894531 C 121.492188 153.347656 129.300781 161.484375 135.75 168.3125 " fill-opacity="1" fill-rule="nonzero"/><path fill="#8f7650" d="M 216.878906 179.957031 C 217.609375 178.574219 218.566406 176.648438 219.585938 174.269531 C 220.160156 172.988281 220.730469 171.574219 221.296875 170.054688 C 221.914062 168.550781 222.394531 166.917969 222.988281 165.238281 C 223.484375 163.542969 224.042969 161.785156 224.492188 159.96875 C 224.90625 158.152344 225.417969 156.304688 225.710938 154.425781 L 226.222656 151.609375 C 226.371094 150.667969 226.457031 149.726562 226.578125 148.792969 C 226.683594 147.855469 226.816406 146.921875 226.898438 146 C 226.945312 145.074219 226.996094 144.160156 227.042969 143.261719 C 227.082031 142.363281 227.15625 141.46875 227.164062 140.597656 C 227.144531 139.726562 227.128906 138.875 227.109375 138.046875 C 227.097656 136.382812 227.050781 134.800781 226.855469 133.355469 C 226.707031 131.90625 226.589844 130.5625 226.441406 129.378906 C 226.21875 128.203125 226.023438 127.183594 225.863281 126.339844 C 225.539062 124.644531 225.355469 123.675781 225.355469 123.675781 C 225.355469 123.675781 225.722656 124.589844 226.367188 126.191406 C 226.6875 127 227.082031 127.980469 227.535156 129.105469 C 227.914062 130.253906 228.289062 131.570312 228.734375 133.003906 C 229.214844 134.433594 229.578125 136.019531 229.921875 137.707031 C 230.105469 138.554688 230.296875 139.425781 230.488281 140.316406 C 230.65625 141.210938 230.757812 142.128906 230.898438 143.066406 C 231.035156 144.007812 231.167969 144.964844 231.304688 145.933594 C 231.410156 146.902344 231.460938 147.890625 231.542969 148.886719 C 231.609375 149.882812 231.707031 150.894531 231.746094 151.90625 L 231.792969 154.953125 C 231.867188 157.003906 231.71875 159.03125 231.652344 161.050781 C 231.554688 163.066406 231.332031 165.035156 231.152344 166.957031 C 230.878906 168.859375 230.695312 170.726562 230.355469 172.464844 C 230.296875 172.84375 230.226562 173.199219 230.160156 173.566406 C 237.691406 165.503906 247.578125 155.164062 259.835938 142.539062 C 254.4375 123.433594 236.28125 93.238281 224.960938 84.5 C 220.125 96.160156 201.570312 129.410156 192.175781 149.195312 C 201.019531 156.292969 209.707031 167.421875 216.878906 179.957031 " fill-opacity="1" fill-rule="nonzero"/><g clip-path="url(#dc52e594bc)"><path fill="#8f7650" d="M 129.339844 237.867188 C 111.203125 226.515625 93.679688 219.410156 76.726562 212.539062 C 71.847656 210.5625 67.128906 208.648438 62.457031 206.667969 C 66.007812 215.824219 68.175781 224.484375 70.429688 233.515625 C 73.785156 246.925781 77.253906 260.792969 85.835938 277.550781 C 100.382812 305.953125 126.289062 321.628906 161.414062 323.714844 C 151.519531 318.867188 139.914062 311.984375 129.5625 303.441406 C 126.519531 300.984375 123.621094 298.347656 120.847656 295.6875 C 119.457031 294.363281 118.15625 292.960938 116.835938 291.628906 C 115.574219 290.234375 114.328125 288.855469 113.105469 287.5 C 111.945312 286.09375 110.808594 284.707031 109.691406 283.351562 C 108.644531 281.949219 107.617188 280.578125 106.617188 279.242188 C 104.710938 276.5 102.957031 273.890625 101.503906 271.378906 C 99.960938 268.929688 98.828125 266.511719 97.707031 264.460938 C 96.726562 262.324219 95.824219 260.492188 95.171875 258.945312 C 93.929688 255.828125 93.21875 254.046875 93.21875 254.046875 C 93.21875 254.046875 94.101562 255.746094 95.644531 258.714844 C 96.445312 260.183594 97.515625 261.910156 98.6875 263.910156 C 100 265.828125 101.339844 268.078125 103.097656 270.328125 C 104.757812 272.640625 106.726562 275.015625 108.835938 277.484375 C 109.929688 278.683594 111.058594 279.910156 112.210938 281.167969 C 113.417969 282.367188 114.652344 283.597656 115.90625 284.84375 C 117.214844 286.027344 118.546875 287.234375 119.890625 288.457031 C 121.296875 289.613281 122.667969 290.828125 124.128906 291.964844 C 127.046875 294.25 130.058594 296.488281 133.199219 298.542969 C 145.679688 306.910156 159.507812 312.917969 170.074219 316.453125 C 175.359375 318.25 179.835938 319.460938 182.949219 320.21875 C 183.464844 320.34375 186.847656 273.847656 129.339844 237.867188 " fill-opacity="1" fill-rule="nonzero"/></g><g clip-path="url(#69b46a17f6)"><path fill="#8f7650" d="M 189.902344 319.488281 C 192.679688 318.75 196.078125 317.761719 199.921875 316.453125 C 210.488281 312.917969 224.320312 306.910156 236.796875 298.542969 C 239.9375 296.488281 242.953125 294.25 245.867188 291.964844 C 247.328125 290.828125 248.699219 289.613281 250.105469 288.457031 C 251.449219 287.234375 252.78125 286.027344 254.089844 284.84375 C 255.34375 283.597656 256.578125 282.367188 257.785156 281.167969 C 258.9375 279.910156 260.066406 278.683594 261.160156 277.484375 C 263.269531 275.015625 265.238281 272.640625 266.902344 270.328125 C 268.65625 268.078125 269.996094 265.828125 271.308594 263.910156 C 272.480469 261.910156 273.554688 260.183594 274.351562 258.714844 C 275.898438 255.746094 276.777344 254.046875 276.777344 254.046875 C 276.777344 254.046875 276.070312 255.828125 274.824219 258.945312 C 274.171875 260.492188 273.273438 262.324219 272.292969 264.460938 C 271.167969 266.511719 270.039062 268.929688 268.492188 271.378906 C 267.039062 273.890625 265.285156 276.5 263.382812 279.242188 C 262.382812 280.578125 261.355469 281.949219 260.304688 283.351562 C 259.191406 284.707031 258.050781 286.09375 256.890625 287.5 C 255.667969 288.855469 254.421875 290.234375 253.164062 291.628906 C 251.839844 292.960938 250.539062 294.363281 249.148438 295.6875 C 246.375 298.347656 243.480469 300.984375 240.433594 303.441406 C 229.921875 312.117188 218.105469 319.09375 208.113281 323.957031 C 245.863281 323.148438 273.589844 307.332031 288.84375 277.550781 C 297.425781 260.792969 300.894531 246.925781 304.25 233.515625 C 306.507812 224.484375 308.671875 215.824219 312.226562 206.667969 C 307.554688 208.648438 302.832031 210.5625 297.953125 212.539062 C 281.003906 219.410156 263.476562 226.515625 245.339844 237.867188 C 194.140625 269.898438 188.738281 306.191406 189.902344 319.488281 " fill-opacity="1" fill-rule="nonzero"/></g><g clip-path="url(#d62b6a059d)"><path fill="#8f7650" d="M 167.132812 114.351562 C 171.871094 123.386719 176.664062 132.539062 180.628906 140.503906 L 185.789062 84.675781 L 191.097656 142.121094 C 195.207031 133.796875 200.324219 124.019531 205.386719 114.367188 C 208.605469 108.230469 211.730469 102.265625 214.410156 97.027344 C 208.003906 79.875 196.972656 64.019531 185.789062 51.003906 C 174.117188 64.265625 163.625 79.351562 157.417969 95.65625 C 160.238281 101.203125 163.632812 107.679688 167.132812 114.351562 " fill-opacity="1" fill-rule="nonzero"/></g><path fill="#8f7650" d="M 83.515625 206.527344 C 94.433594 210.964844 105.59375 215.644531 117.066406 221.570312 C 115.183594 215.585938 113.046875 207.9375 111.308594 200.195312 C 110.347656 196.027344 109.519531 191.835938 108.839844 187.894531 C 108.472656 185.929688 108.183594 184.019531 107.921875 182.210938 C 107.644531 180.402344 107.394531 178.695312 107.226562 177.105469 C 106.816406 173.945312 106.570312 171.308594 106.433594 169.457031 C 106.277344 167.613281 106.1875 166.558594 106.1875 166.558594 C 106.1875 166.558594 106.464844 167.578125 106.953125 169.367188 C 107.414062 171.15625 108.128906 173.695312 109.089844 176.703125 C 109.535156 178.214844 110.082031 179.835938 110.671875 181.546875 C 111.25 183.253906 111.863281 185.054688 112.566406 186.894531 C 113.921875 190.585938 115.460938 194.484375 117.117188 198.324219 C 120.390625 206.019531 124.066406 213.507812 127.003906 218.992188 C 128.460938 221.742188 129.738281 223.988281 130.628906 225.539062 C 131.167969 226.445312 132.59375 229.03125 133.652344 230.96875 C 133.65625 230.972656 133.65625 230.972656 133.660156 230.976562 C 134.769531 231.667969 135.839844 232.367188 136.910156 233.066406 C 137.558594 220.007812 142.472656 204.257812 149.707031 189.511719 C 136.703125 174.574219 103.902344 141.035156 94 130.910156 C 86.175781 144.195312 79.953125 187.390625 83.515625 206.527344 " fill-opacity="1" fill-rule="nonzero"/><path fill="#8f7650" d="M 234.96875 234.972656 C 235.699219 234.476562 236.414062 233.976562 237.164062 233.480469 C 238.84375 230.550781 241.179688 226.480469 241.738281 225.539062 C 242.632812 223.988281 243.902344 221.742188 245.359375 218.992188 C 248.300781 213.507812 251.976562 206.019531 255.25 198.324219 C 256.90625 194.484375 258.441406 190.585938 259.800781 186.894531 C 260.503906 185.054688 261.117188 183.253906 261.695312 181.546875 C 262.285156 179.835938 262.832031 178.214844 263.277344 176.703125 C 264.238281 173.695312 264.953125 171.15625 265.414062 169.367188 C 265.902344 167.578125 266.179688 166.558594 266.179688 166.558594 C 266.179688 166.558594 266.089844 167.613281 265.933594 169.457031 C 265.796875 171.308594 265.550781 173.945312 265.140625 177.105469 C 264.972656 178.695312 264.722656 180.402344 264.445312 182.210938 C 264.183594 184.019531 263.894531 185.929688 263.527344 187.894531 C 262.847656 191.835938 262.019531 196.027344 261.058594 200.195312 C 259.183594 208.546875 256.839844 216.8125 254.859375 222.972656 C 254.855469 222.976562 254.855469 222.984375 254.855469 222.988281 C 265.828125 217.144531 276.511719 212.539062 286.96875 208.238281 C 291.277344 190.109375 284.914062 144.609375 276.84375 130.910156 C 267.101562 140.875 235.179688 173.511719 221.765625 188.792969 C 229.554688 204.46875 234.730469 221.351562 234.96875 234.972656 " fill-opacity="1" fill-rule="nonzero"/><path fill="#8f7650" d="M 145.070312 235.960938 C 145.070312 236.902344 145.15625 237.867188 145.207031 238.820312 C 161.960938 251.164062 173.410156 269.351562 180.691406 281.421875 L 185.789062 205.003906 L 191.320312 281.421875 C 198.023438 268.613281 209.035156 254.582031 226.496094 241.109375 C 226.664062 239.375 226.753906 237.65625 226.753906 235.960938 C 226.753906 210.367188 206.160156 169.933594 185.914062 154.84375 C 165.664062 169.933594 145.070312 210.367188 145.070312 235.960938 " fill-opacity="1" fill-rule="nonzero"/></svg>