<svg xmlns="http://www.w3.org/2000/svg" xmlns:xlink="http://www.w3.org/1999/xlink" width="500" zoomAndPan="magnify" viewBox="0 0 375 374.999991" height="500" preserveAspectRatio="xMidYMid meet" version="1.0"><defs><g/><clipPath id="1d764249bd"><path d="M 0 0.0742188 L 375 0.0742188 L 375 374.945312 L 0 374.945312 Z M 0 0.0742188 " clip-rule="nonzero"/></clipPath></defs><g clip-path="url(#1d764249bd)"><path fill="#ff3131" d="M 369.675781 174.796875 C 369.671875 174.796875 369.667969 174.804688 369.660156 174.808594 C 366.863281 175.582031 363.960938 175.972656 361.058594 176.050781 C 360.332031 176.070312 359.609375 176.070312 358.882812 176.058594 C 358.164062 176.039062 357.421875 176.03125 356.691406 175.90625 C 355.621094 175.746094 354.578125 175.394531 353.621094 174.886719 C 352.140625 174.230469 350.808594 173.175781 349.9375 171.539062 C 349.820312 171.375 349.699219 171.21875 349.589844 171.054688 C 348.773438 169.835938 348.121094 168.515625 347.59375 167.15625 C 346.527344 164.4375 345.847656 161.59375 345.375 158.730469 C 344.921875 155.859375 344.730469 152.9375 344.941406 150.027344 C 345.195312 147.128906 345.808594 144.207031 347.25 141.621094 C 347.4375 141.304688 347.613281 140.980469 347.839844 140.683594 L 348.160156 140.234375 L 348.523438 139.8125 C 348.753906 139.519531 349.054688 139.28125 349.324219 139.027344 C 349.632812 138.800781 349.941406 138.578125 350.253906 138.40625 C 351.511719 137.671875 352.816406 137.019531 354.144531 136.441406 C 356.8125 135.289062 359.585938 134.394531 362.421875 133.792969 C 362.503906 133.773438 362.585938 133.828125 362.605469 133.910156 C 362.617188 133.980469 362.582031 134.050781 362.515625 134.078125 L 362.488281 134.089844 C 359.808594 135.28125 357.234375 136.503906 354.820312 137.964844 C 353.605469 138.667969 352.421875 139.410156 351.332031 140.222656 C 351.214844 140.320312 351.027344 140.4375 350.960938 140.515625 C 350.886719 140.597656 350.804688 140.671875 350.722656 140.738281 C 350.566406 140.941406 350.390625 141.089844 350.238281 141.335938 L 350 141.667969 L 349.785156 142.042969 C 349.632812 142.277344 349.515625 142.558594 349.386719 142.828125 C 349.140625 143.371094 348.921875 143.949219 348.753906 144.550781 C 348.714844 144.703125 348.660156 144.847656 348.613281 144.996094 L 348.496094 145.457031 C 348.425781 145.765625 348.324219 146.0625 348.277344 146.382812 C 348.003906 147.628906 347.914062 148.941406 347.84375 150.246094 C 347.734375 152.875 347.941406 155.566406 348.410156 158.242188 C 348.730469 160.484375 349.234375 162.714844 349.890625 164.820312 C 352.621094 159.847656 360.613281 156.070312 360.613281 156.070312 C 361.808594 161.753906 362.898438 165.851562 363.523438 168.046875 L 354.609375 171.527344 L 365.023438 170.679688 C 365.070312 170.710938 365.113281 170.742188 365.160156 170.777344 C 366.527344 171.84375 368.628906 172.964844 370.105469 174.691406 C 369.960938 174.726562 369.820312 174.761719 369.675781 174.796875 Z M 369.949219 183.828125 L 369.914062 183.835938 C 367.492188 184.28125 365.152344 184.707031 362.875 185.320312 C 361.738281 185.601562 360.613281 185.90625 359.519531 186.269531 C 358.972656 186.460938 358.425781 186.621094 357.894531 186.8125 C 357.648438 186.902344 357.339844 187.007812 357.144531 187.101562 C 356.996094 187.191406 356.855469 187.246094 356.683594 187.382812 L 356.4375 187.550781 L 356.1875 187.769531 C 356.019531 187.898438 355.855469 188.066406 355.691406 188.238281 C 355.527344 188.390625 355.355469 188.566406 355.199219 188.75 C 355.035156 188.929688 354.871094 189.105469 354.722656 189.3125 C 354.09375 190.078125 353.5625 190.988281 353.085938 191.917969 C 352.867188 192.402344 352.597656 192.855469 352.402344 193.359375 L 352.082031 194.09375 L 351.804688 194.859375 C 351.601562 195.355469 351.433594 195.878906 351.273438 196.402344 C 351.09375 196.917969 350.960938 197.453125 350.824219 197.988281 L 350.605469 198.789062 L 350.425781 199.605469 C 350.304688 200.152344 350.183594 200.695312 350.09375 201.253906 C 350 201.808594 349.878906 202.359375 349.804688 202.921875 C 349.730469 203.484375 349.664062 204.046875 349.566406 204.609375 C 349.242188 206.878906 349.132812 209.148438 349.113281 211.371094 C 349.15625 213.585938 349.359375 215.777344 350.160156 217.738281 C 350.535156 218.730469 351.085938 219.644531 351.808594 220.488281 C 352.53125 221.328125 353.453125 222.046875 354.503906 222.679688 L 354.53125 222.695312 C 354.605469 222.738281 354.625 222.832031 354.585938 222.902344 C 354.546875 222.964844 354.472656 222.992188 354.410156 222.972656 C 353.242188 222.621094 352.125 222.078125 351.152344 221.328125 C 350.175781 220.582031 349.363281 219.628906 348.730469 218.582031 C 347.476562 216.457031 346.929688 214.019531 346.679688 211.617188 C 346.433594 209.203125 346.488281 206.773438 346.671875 204.363281 C 346.863281 201.953125 347.246094 199.554688 347.851562 197.203125 C 348.472656 194.859375 349.347656 192.574219 350.5625 190.460938 C 351.1875 189.414062 351.871094 188.394531 352.703125 187.496094 C 353.527344 186.59375 354.464844 185.765625 355.578125 185.191406 C 356.136719 184.894531 356.757812 184.738281 357.332031 184.59375 C 357.917969 184.441406 358.511719 184.316406 359.105469 184.199219 C 360.292969 183.964844 361.492188 183.789062 362.691406 183.664062 C 365.097656 183.421875 367.519531 183.367188 369.929688 183.527344 C 370.011719 183.535156 370.078125 183.605469 370.070312 183.691406 C 370.066406 183.761719 370.011719 183.816406 369.949219 183.828125 Z M 364.046875 233.691406 L 364.007812 233.6875 C 361.558594 233.460938 359.195312 233.230469 356.835938 233.199219 C 355.664062 233.15625 354.496094 233.144531 353.34375 233.199219 C 352.769531 233.234375 352.199219 233.238281 351.636719 233.277344 C 351.367188 233.296875 351.046875 233.316406 350.835938 233.351562 C 350.667969 233.398438 350.515625 233.414062 350.3125 233.496094 L 350.03125 233.589844 L 349.730469 233.730469 C 349.535156 233.808594 349.328125 233.929688 349.128906 234.046875 C 348.925781 234.152344 348.714844 234.269531 348.511719 234.40625 C 348.304688 234.535156 348.097656 234.65625 347.898438 234.816406 C 347.085938 235.382812 346.328125 236.117188 345.613281 236.878906 C 345.273438 237.285156 344.894531 237.644531 344.566406 238.078125 L 344.054688 238.699219 L 343.585938 239.359375 C 343.253906 239.785156 342.949219 240.238281 342.648438 240.699219 C 342.335938 241.148438 342.0625 241.628906 341.785156 242.105469 L 341.355469 242.8125 L 340.960938 243.550781 C 340.695312 244.042969 340.429688 244.535156 340.195312 245.046875 C 339.953125 245.554688 339.683594 246.050781 339.460938 246.570312 C 339.238281 247.089844 339.015625 247.617188 338.769531 248.132812 C 337.84375 250.226562 337.117188 252.382812 336.492188 254.511719 C 335.929688 256.65625 335.527344 258.820312 335.761719 260.925781 C 335.851562 261.984375 336.136719 263.015625 336.601562 264.019531 C 337.070312 265.023438 337.761719 265.96875 338.59375 266.859375 L 338.617188 266.886719 C 338.675781 266.949219 338.675781 267.046875 338.613281 267.101562 C 338.558594 267.152344 338.484375 267.152344 338.429688 267.117188 C 337.402344 266.460938 336.472656 265.636719 335.742188 264.648438 C 335.007812 263.660156 334.484375 262.527344 334.15625 261.347656 C 333.53125 258.960938 333.671875 256.46875 334.082031 254.085938 C 334.503906 251.695312 335.21875 249.375 336.050781 247.105469 C 336.894531 244.839844 337.917969 242.636719 339.136719 240.539062 C 340.375 238.453125 341.839844 236.488281 343.585938 234.789062 C 344.472656 233.953125 345.40625 233.15625 346.457031 232.519531 C 347.496094 231.878906 348.621094 231.335938 349.847656 231.089844 C 350.464844 230.953125 351.105469 230.972656 351.699219 230.988281 C 352.304688 231.003906 352.910156 231.046875 353.511719 231.09375 C 354.71875 231.191406 355.917969 231.351562 357.109375 231.554688 C 359.488281 231.980469 361.832031 232.585938 364.109375 233.398438 C 364.1875 233.425781 364.230469 233.511719 364.199219 233.589844 C 364.175781 233.660156 364.113281 233.695312 364.046875 233.691406 Z M 345.707031 278.707031 C 345.667969 278.765625 345.59375 278.789062 345.53125 278.765625 L 345.496094 278.75 C 343.191406 277.882812 340.972656 277.035156 338.707031 276.382812 C 337.585938 276.03125 336.464844 275.707031 335.339844 275.457031 C 334.777344 275.339844 334.226562 275.191406 333.671875 275.082031 C 333.414062 275.027344 333.097656 274.960938 332.882812 274.941406 C 332.707031 274.941406 332.558594 274.914062 332.339844 274.941406 L 332.042969 274.957031 L 331.714844 275.015625 C 331.503906 275.039062 331.277344 275.097656 331.050781 275.160156 C 330.824219 275.207031 330.59375 275.265625 330.359375 275.34375 C 330.128906 275.410156 329.898438 275.476562 329.664062 275.578125 C 328.726562 275.90625 327.804688 276.410156 326.914062 276.960938 C 326.476562 277.261719 326.015625 277.511719 325.585938 277.839844 L 324.929688 278.304688 L 324.296875 278.8125 C 323.867188 279.136719 323.453125 279.492188 323.042969 279.859375 C 322.621094 280.207031 322.234375 280.597656 321.835938 280.988281 L 321.234375 281.554688 L 320.660156 282.164062 C 320.273438 282.570312 319.890625 282.972656 319.527344 283.402344 C 319.15625 283.828125 318.769531 284.238281 318.414062 284.679688 C 318.058594 285.121094 317.710938 285.570312 317.335938 286 C 315.886719 287.773438 314.617188 289.664062 313.449219 291.550781 C 312.34375 293.472656 311.382812 295.453125 311.050781 297.542969 C 310.855469 298.585938 310.855469 299.65625 311.039062 300.75 C 311.222656 301.839844 311.640625 302.933594 312.210938 304.015625 L 312.226562 304.046875 C 312.265625 304.121094 312.238281 304.214844 312.164062 304.253906 C 312.101562 304.285156 312.027344 304.269531 311.980469 304.21875 C 311.164062 303.316406 310.484375 302.273438 310.042969 301.125 C 309.59375 299.980469 309.390625 298.75 309.390625 297.523438 C 309.414062 295.054688 310.210938 292.6875 311.242188 290.503906 C 312.28125 288.308594 313.582031 286.257812 314.984375 284.292969 C 316.398438 282.328125 317.96875 280.476562 319.699219 278.777344 C 321.445312 277.09375 323.375 275.585938 325.511719 274.40625 C 326.585938 273.835938 327.695312 273.316406 328.878906 272.976562 C 330.050781 272.632812 331.277344 272.410156 332.527344 272.496094 C 333.15625 272.527344 333.773438 272.71875 334.339844 272.890625 C 334.917969 273.066406 335.492188 273.265625 336.0625 273.46875 C 337.199219 273.886719 338.3125 274.355469 339.40625 274.867188 C 341.589844 275.90625 343.691406 277.113281 345.671875 278.496094 C 345.738281 278.542969 345.753906 278.640625 345.707031 278.707031 Z M 314.511719 318.714844 C 314.457031 318.757812 314.382812 318.757812 314.324219 318.71875 L 314.296875 318.695312 C 312.320312 317.226562 310.421875 315.804688 308.421875 314.550781 C 307.445312 313.90625 306.453125 313.289062 305.441406 312.734375 C 304.929688 312.46875 304.441406 312.175781 303.941406 311.917969 C 303.703125 311.792969 303.417969 311.640625 303.21875 311.5625 C 303.050781 311.515625 302.914062 311.449219 302.699219 311.414062 L 302.40625 311.351562 L 302.078125 311.3125 C 301.867188 311.277344 301.632812 311.273438 301.398438 311.269531 C 301.167969 311.253906 300.929688 311.246094 300.683594 311.257812 C 300.441406 311.257812 300.203125 311.257812 299.949219 311.289062 C 298.960938 311.351562 297.933594 311.582031 296.925781 311.863281 C 296.421875 312.03125 295.910156 312.144531 295.40625 312.34375 L 294.648438 312.609375 L 293.898438 312.925781 C 293.394531 313.117188 292.902344 313.347656 292.40625 313.585938 C 291.90625 313.804688 291.421875 314.074219 290.9375 314.335938 L 290.199219 314.71875 L 289.480469 315.148438 C 289 315.429688 288.519531 315.707031 288.050781 316.023438 C 287.578125 316.335938 287.089844 316.617188 286.628906 316.945312 C 286.167969 317.273438 285.707031 317.605469 285.230469 317.917969 C 283.347656 319.226562 281.605469 320.691406 279.964844 322.1875 C 278.371094 323.726562 276.90625 325.367188 276.011719 327.285156 C 275.539062 328.238281 275.242188 329.265625 275.117188 330.363281 C 274.996094 331.464844 275.097656 332.632812 275.347656 333.832031 L 275.351562 333.867188 C 275.371094 333.949219 275.316406 334.027344 275.234375 334.042969 C 275.167969 334.058594 275.097656 334.023438 275.066406 333.960938 C 274.535156 332.871094 274.167969 331.679688 274.058594 330.457031 C 273.941406 329.230469 274.085938 327.992188 274.421875 326.8125 C 275.125 324.445312 276.539062 322.390625 278.132812 320.574219 C 279.734375 318.75 281.550781 317.132812 283.441406 315.632812 C 285.339844 314.132812 287.359375 312.78125 289.492188 311.625 C 291.632812 310.488281 293.902344 309.570312 296.277344 309.023438 C 297.46875 308.769531 298.679688 308.574219 299.910156 308.578125 C 301.128906 308.566406 302.371094 308.6875 303.550781 309.117188 C 304.148438 309.316406 304.6875 309.667969 305.183594 309.992188 C 305.695312 310.320312 306.191406 310.667969 306.679688 311.027344 C 307.65625 311.738281 308.601562 312.492188 309.511719 313.289062 C 311.324219 314.886719 313.011719 316.628906 314.535156 318.5 C 314.585938 318.566406 314.578125 318.660156 314.511719 318.714844 Z M 274.671875 347.972656 C 274.609375 348 274.535156 347.976562 274.492188 347.925781 L 274.46875 347.894531 C 272.960938 345.949219 271.511719 344.070312 269.921875 342.328125 C 269.148438 341.445312 268.363281 340.582031 267.539062 339.777344 C 267.117188 339.382812 266.722656 338.96875 266.3125 338.589844 C 266.113281 338.40625 265.878906 338.179688 265.710938 338.050781 C 265.5625 337.960938 265.445312 337.863281 265.246094 337.769531 L 264.984375 337.628906 L 264.675781 337.507812 C 264.484375 337.417969 264.257812 337.347656 264.035156 337.28125 C 263.820312 337.207031 263.589844 337.136719 263.351562 337.078125 C 263.117188 337.015625 262.886719 336.949219 262.632812 336.914062 C 261.664062 336.707031 260.613281 336.65625 259.566406 336.65625 C 259.035156 336.679688 258.511719 336.652344 257.976562 336.710938 L 257.171875 336.761719 L 256.367188 336.867188 C 255.832031 336.914062 255.292969 337.003906 254.753906 337.101562 C 254.210938 337.179688 253.671875 337.308594 253.132812 337.429688 L 252.320312 337.605469 L 251.511719 337.820312 C 250.972656 337.964844 250.433594 338.101562 249.898438 338.285156 C 249.363281 338.453125 248.816406 338.597656 248.285156 338.789062 C 247.75 338.980469 247.21875 339.179688 246.675781 339.351562 C 244.511719 340.105469 242.441406 341.050781 240.460938 342.050781 C 238.515625 343.105469 236.660156 344.292969 235.28125 345.902344 C 234.570312 346.691406 234.015625 347.605469 233.597656 348.632812 C 233.183594 349.65625 232.964844 350.8125 232.886719 352.03125 L 232.882812 352.066406 C 232.878906 352.148438 232.808594 352.210938 232.722656 352.207031 C 232.652344 352.199219 232.597656 352.148438 232.585938 352.082031 C 232.363281 350.882812 232.328125 349.640625 232.550781 348.433594 C 232.765625 347.222656 233.238281 346.066406 233.875 345.019531 C 235.1875 342.929688 237.105469 341.328125 239.125 340.003906 C 241.160156 338.675781 243.339844 337.609375 245.566406 336.667969 C 247.796875 335.730469 250.105469 334.972656 252.46875 334.429688 C 254.835938 333.910156 257.269531 333.632812 259.703125 333.746094 C 260.921875 333.820312 262.140625 333.957031 263.324219 334.289062 C 264.503906 334.605469 265.667969 335.058594 266.6875 335.785156 C 267.207031 336.140625 267.632812 336.621094 268.023438 337.066406 C 268.425781 337.523438 268.808594 337.992188 269.1875 338.460938 C 269.941406 339.410156 270.644531 340.394531 271.308594 341.402344 C 272.628906 343.429688 273.789062 345.558594 274.75 347.773438 C 274.785156 347.847656 274.75 347.9375 274.671875 347.972656 Z M 231.886719 53.148438 C 231.0625 52.882812 230.238281 52.605469 229.410156 52.347656 L 226.894531 51.671875 L 224.382812 50.992188 C 223.546875 50.765625 222.710938 50.527344 221.859375 50.359375 L 216.777344 49.234375 C 215.933594 49.027344 215.074219 48.910156 214.222656 48.757812 L 211.65625 48.320312 L 209.09375 47.882812 L 206.511719 47.566406 C 204.789062 47.378906 203.074219 47.128906 201.347656 46.980469 L 196.160156 46.628906 L 194.863281 46.535156 L 190.960938 46.464844 C 187.5 46.324219 184.035156 46.535156 180.574219 46.628906 C 178.847656 46.738281 177.121094 46.910156 175.398438 47.042969 C 174.535156 47.121094 173.671875 47.175781 172.808594 47.273438 L 170.238281 47.621094 L 167.667969 47.964844 C 166.808594 48.082031 165.953125 48.183594 165.101562 48.359375 L 160.003906 49.3125 C 132.882812 54.796875 107.542969 68.464844 88.03125 88.042969 C 68.449219 107.550781 54.78125 132.890625 49.289062 160.007812 L 48.339844 165.113281 C 48.160156 165.960938 48.0625 166.816406 47.949219 167.675781 L 47.601562 170.25 L 47.253906 172.820312 C 47.152344 173.679688 47.101562 174.546875 47.023438 175.40625 C 46.890625 177.128906 46.71875 178.855469 46.609375 180.585938 C 46.519531 184.046875 46.300781 187.507812 46.445312 190.972656 L 46.488281 193.574219 L 46.519531 194.871094 L 46.609375 196.171875 L 46.964844 201.359375 C 47.65625 208.253906 48.710938 215.121094 50.335938 221.871094 C 50.503906 222.726562 50.738281 223.558594 50.96875 224.394531 L 52.328125 229.421875 C 52.578125 230.253906 52.859375 231.074219 53.125 231.902344 C 53.679688 233.546875 54.164062 235.21875 54.769531 236.847656 L 56.621094 241.71875 C 66.960938 267.535156 85.011719 290.355469 108.101562 306.34375 C 113.851562 310.371094 119.925781 313.933594 126.199219 317.128906 L 130.960938 319.40625 C 132.554688 320.15625 134.203125 320.785156 135.824219 321.480469 C 136.636719 321.820312 137.445312 322.171875 138.261719 322.5 L 140.746094 323.40625 L 143.230469 324.316406 C 144.0625 324.625 144.886719 324.9375 145.738281 325.183594 L 150.796875 326.761719 C 152.488281 327.273438 154.210938 327.664062 155.921875 328.125 L 158.492188 328.78125 L 161.09375 329.316406 C 162.832031 329.65625 164.558594 330.066406 166.308594 330.351562 C 173.292969 331.605469 180.378906 332.226562 187.5 332.574219 C 183.941406 332.570312 180.367188 332.734375 176.804688 332.480469 L 172.789062 332.296875 C 172.34375 332.269531 171.898438 332.214844 171.457031 332.175781 L 166.117188 331.65625 C 165.222656 331.59375 164.34375 331.425781 163.457031 331.296875 L 160.800781 330.894531 L 158.144531 330.488281 L 155.511719 329.953125 C 153.761719 329.578125 151.988281 329.273438 150.25 328.839844 L 145.035156 327.503906 C 144.15625 327.292969 143.300781 327.023438 142.445312 326.753906 L 139.871094 325.957031 L 137.296875 325.152344 C 136.445312 324.855469 135.609375 324.53125 134.765625 324.222656 C 133.082031 323.582031 131.375 323.007812 129.714844 322.3125 L 124.746094 320.191406 C 118.195312 317.195312 111.804688 313.804688 105.714844 309.914062 C 99.65625 305.96875 93.871094 301.601562 88.394531 296.855469 C 82.984375 292.039062 77.886719 286.863281 73.148438 281.355469 C 68.457031 275.808594 64.21875 269.882812 60.359375 263.71875 C 56.53125 257.523438 53.226562 251.015625 50.304688 244.335938 L 48.242188 239.273438 C 47.570312 237.578125 47.011719 235.839844 46.390625 234.125 C 46.09375 233.261719 45.78125 232.40625 45.496094 231.539062 L 43.9375 226.289062 C 43.675781 225.414062 43.40625 224.542969 43.210938 223.652344 L 41.925781 218.328125 C 41.695312 217.441406 41.558594 216.539062 41.382812 215.640625 L 40.882812 212.949219 L 40.382812 210.253906 L 40.011719 207.539062 C 39.78125 205.726562 39.496094 203.917969 39.316406 202.101562 L 38.863281 196.640625 L 38.75 195.273438 L 38.699219 193.902344 L 38.609375 191.164062 C 38.410156 187.511719 38.574219 183.855469 38.625 180.199219 C 38.714844 178.371094 38.867188 176.546875 38.984375 174.722656 C 39.054688 173.8125 39.097656 172.898438 39.1875 171.984375 L 39.511719 169.261719 L 39.839844 166.535156 C 39.953125 165.625 40.046875 164.714844 40.21875 163.816406 L 41.144531 158.402344 C 41.28125 157.492188 41.5 156.601562 41.695312 155.707031 L 42.296875 153.027344 L 42.898438 150.34375 L 43.628906 147.695312 C 44.140625 145.9375 44.585938 144.15625 45.148438 142.414062 L 46.894531 137.199219 C 47.167969 136.324219 47.503906 135.472656 47.84375 134.621094 L 48.839844 132.058594 L 49.839844 129.496094 L 50.960938 126.984375 L 52.082031 124.476562 C 52.464844 123.640625 52.8125 122.789062 53.246094 121.980469 L 55.734375 117.078125 C 59.222656 110.625 63.125 104.398438 67.476562 98.492188 C 71.878906 92.625 76.671875 87.058594 81.816406 81.828125 C 87.042969 76.675781 92.617188 71.890625 98.480469 67.484375 C 104.382812 63.128906 110.617188 59.230469 117.0625 55.738281 L 121.96875 53.25 C 122.777344 52.816406 123.628906 52.464844 124.460938 52.085938 L 126.972656 50.960938 L 129.484375 49.84375 L 132.046875 48.84375 L 134.605469 47.84375 C 135.460938 47.507812 136.3125 47.167969 137.1875 46.898438 L 142.402344 45.152344 C 144.144531 44.589844 145.925781 44.144531 147.683594 43.632812 L 150.332031 42.902344 L 153.015625 42.292969 L 155.699219 41.695312 C 156.589844 41.496094 157.480469 41.28125 158.386719 41.144531 L 163.804688 40.21875 C 164.703125 40.042969 165.613281 39.949219 166.523438 39.839844 L 169.246094 39.511719 L 171.976562 39.1875 C 172.886719 39.09375 173.800781 39.050781 174.710938 38.980469 C 176.535156 38.863281 178.363281 38.714844 180.1875 38.625 C 183.847656 38.578125 187.5 38.410156 191.152344 38.609375 L 193.894531 38.695312 L 195.261719 38.746094 L 196.628906 38.859375 L 202.09375 39.316406 C 203.910156 39.496094 205.714844 39.785156 207.53125 40.011719 L 210.246094 40.382812 L 212.941406 40.882812 L 215.632812 41.382812 C 216.53125 41.554688 217.433594 41.695312 218.316406 41.925781 L 223.644531 43.207031 C 224.535156 43.402344 225.410156 43.671875 226.285156 43.933594 L 228.910156 44.710938 L 231.53125 45.492188 C 232.398438 45.773438 233.257812 46.089844 234.121094 46.390625 C 235.832031 47.007812 237.574219 47.566406 239.265625 48.238281 L 244.332031 50.304688 C 251.007812 53.226562 257.519531 56.53125 263.710938 60.359375 C 269.878906 64.21875 275.804688 68.453125 281.351562 73.148438 C 286.859375 77.886719 292.035156 82.984375 296.851562 88.398438 C 301.601562 93.875 305.964844 99.660156 309.914062 105.714844 C 313.804688 111.808594 317.195312 118.203125 320.1875 124.753906 L 322.308594 129.722656 C 323.007812 131.382812 323.582031 133.089844 324.21875 134.773438 C 324.527344 135.617188 324.851562 136.453125 325.148438 137.304688 L 325.953125 139.878906 L 326.75 142.453125 C 327.019531 143.308594 327.292969 144.164062 327.496094 145.042969 L 328.835938 150.257812 C 329.265625 151.996094 329.574219 153.769531 329.949219 155.519531 L 330.484375 158.15625 L 330.886719 160.8125 L 331.292969 163.464844 C 331.417969 164.351562 331.585938 165.230469 331.652344 166.125 L 332.167969 171.464844 C 332.207031 171.910156 332.261719 172.351562 332.289062 172.800781 L 332.347656 174.140625 L 332.472656 176.8125 C 332.722656 180.375 332.5625 183.953125 332.5625 187.511719 C 332.21875 180.390625 331.589844 173.304688 330.335938 166.320312 C 330.050781 164.570312 329.640625 162.84375 329.300781 161.105469 L 328.769531 158.503906 L 328.105469 155.929688 C 327.648438 154.222656 327.261719 152.496094 326.746094 150.808594 L 325.164062 145.746094 C 324.917969 144.902344 324.609375 144.070312 324.300781 143.246094 L 323.386719 140.761719 L 322.480469 138.277344 C 322.152344 137.457031 321.800781 136.648438 321.464844 135.832031 C 320.769531 134.214844 320.136719 132.570312 319.386719 130.976562 L 317.109375 126.210938 C 313.914062 119.941406 310.351562 113.867188 306.324219 108.117188 C 302.269531 102.390625 297.878906 96.917969 293.113281 91.789062 C 288.285156 86.71875 283.136719 81.976562 277.695312 77.601562 C 272.199219 73.292969 266.433594 69.351562 260.441406 65.800781 C 254.429688 62.277344 248.136719 59.273438 241.703125 56.640625 L 236.832031 54.789062 C 235.203125 54.1875 233.535156 53.699219 231.886719 53.148438 Z M 228.445312 365.472656 C 228.375 365.480469 228.308594 365.441406 228.285156 365.378906 L 228.269531 365.34375 C 227.335938 363.066406 226.445312 360.867188 225.382812 358.757812 C 224.875 357.703125 224.347656 356.660156 223.769531 355.664062 C 223.46875 355.171875 223.199219 354.667969 222.90625 354.1875 C 222.765625 353.960938 222.601562 353.683594 222.472656 353.511719 C 222.351562 353.386719 222.269531 353.257812 222.101562 353.117188 L 221.886719 352.910156 L 221.621094 352.710938 C 221.464844 352.570312 221.261719 352.445312 221.0625 352.320312 C 220.878906 352.1875 220.675781 352.058594 220.457031 351.941406 C 220.253906 351.816406 220.046875 351.691406 219.8125 351.589844 C 218.933594 351.128906 217.9375 350.796875 216.929688 350.519531 C 216.410156 350.402344 215.910156 350.234375 215.382812 350.144531 L 214.597656 349.980469 L 213.789062 349.863281 C 213.261719 349.769531 212.714844 349.710938 212.167969 349.660156 C 211.628906 349.589844 211.074219 349.566406 210.519531 349.542969 L 209.695312 349.488281 L 208.855469 349.480469 C 208.300781 349.476562 207.742188 349.464844 207.179688 349.492188 C 206.617188 349.511719 206.054688 349.507812 205.488281 349.546875 C 204.921875 349.59375 204.355469 349.640625 203.785156 349.660156 C 201.496094 349.804688 199.253906 350.164062 197.074219 350.59375 C 194.914062 351.089844 192.8125 351.734375 191.054688 352.914062 C 190.15625 353.484375 189.375 354.214844 188.699219 355.089844 C 188.023438 355.96875 187.503906 357.023438 187.101562 358.171875 L 187.089844 358.207031 C 187.0625 358.289062 186.976562 358.328125 186.894531 358.300781 C 186.828125 358.277344 186.789062 358.210938 186.796875 358.144531 C 186.902344 356.929688 187.203125 355.722656 187.742188 354.621094 C 188.277344 353.511719 189.039062 352.523438 189.933594 351.6875 C 191.757812 350.027344 194.035156 348.996094 196.335938 348.261719 C 198.652344 347.53125 201.039062 347.085938 203.433594 346.777344 C 205.835938 346.472656 208.261719 346.359375 210.683594 346.46875 C 213.105469 346.605469 215.523438 346.992188 217.84375 347.753906 C 218.992188 348.152344 220.128906 348.609375 221.183594 349.242188 C 222.230469 349.867188 223.234375 350.613281 224.019531 351.589844 C 224.425781 352.074219 224.707031 352.652344 224.964844 353.183594 C 225.230469 353.730469 225.472656 354.28125 225.710938 354.839844 C 226.179688 355.957031 226.597656 357.09375 226.96875 358.242188 C 227.691406 360.546875 228.238281 362.90625 228.574219 365.300781 C 228.585938 365.382812 228.527344 365.460938 228.445312 365.472656 Z M 178.371094 369.691406 C 176.148438 367.921875 174.875 365.113281 172.867188 363.800781 L 173.183594 355.351562 L 170.417969 362.800781 C 165.019531 360.269531 174.539062 353.160156 165.378906 348.9375 C 163.597656 348.351562 161.746094 347.890625 159.859375 347.558594 C 157.175781 347.015625 154.410156 346.691406 151.796875 346.679688 C 149.175781 346.628906 146.675781 347.066406 144.734375 348.183594 C 143.757812 348.75 142.984375 349.570312 142.289062 350.558594 C 142.117188 350.808594 141.964844 351.074219 141.8125 351.347656 C 141.660156 351.652344 141.5 351.960938 141.355469 352.273438 C 141.054688 352.898438 140.792969 353.542969 140.511719 354.1875 C 139.40625 356.785156 138.585938 359.542969 137.769531 362.375 L 137.761719 362.402344 C 137.738281 362.484375 137.652344 362.53125 137.574219 362.507812 C 137.503906 362.488281 137.457031 362.417969 137.464844 362.347656 C 137.699219 359.445312 138.164062 356.554688 138.941406 353.738281 C 139.136719 353.035156 139.363281 352.339844 139.605469 351.648438 C 139.851562 350.964844 140.101562 350.269531 140.449219 349.605469 C 141.121094 348.285156 142.097656 347.097656 143.308594 346.226562 C 144.515625 345.34375 145.902344 344.75 147.332031 344.382812 C 148.765625 344.011719 150.238281 343.839844 151.703125 343.785156 C 154.636719 343.6875 157.554688 344.027344 160.429688 344.542969 C 163.296875 345.082031 166.128906 345.902344 168.808594 347.09375 C 171.46875 348.304688 174.027344 349.886719 175.984375 352.117188 C 176.9375 353.226562 177.800781 354.542969 178.023438 356.050781 C 178.292969 357.492188 178.457031 358.945312 178.550781 360.398438 C 178.578125 360.808594 178.582031 361.21875 178.597656 361.628906 C 178.75 364.078125 178.726562 366.855469 178.371094 369.691406 Z M 132.871094 347.128906 C 132.742188 348.585938 132.507812 350.03125 132.203125 351.460938 C 131.875 352.980469 131.457031 354.488281 130.972656 355.964844 C 130.539062 357.445312 130.011719 358.964844 129.371094 360.476562 C 127.800781 358.300781 127.273438 355.339844 125.902344 353.554688 L 127.730469 345.082031 L 123.609375 351.707031 C 123.117188 351.375 122.464844 350.960938 121.679688 350.515625 C 120.085938 349.617188 124.363281 342.421875 122.335938 336.679688 C 120.859375 335.707031 119.304688 334.824219 117.683594 334.042969 C 115.242188 332.792969 112.667969 331.734375 110.15625 331.019531 C 107.644531 330.261719 105.121094 330.003906 102.953125 330.554688 C 101.851562 330.832031 100.890625 331.417969 99.953125 332.179688 C 99.71875 332.375 99.5 332.589844 99.28125 332.8125 C 99.050781 333.0625 98.816406 333.316406 98.589844 333.578125 C 98.132812 334.101562 97.703125 334.648438 97.257812 335.195312 C 95.492188 337.394531 93.957031 339.832031 92.40625 342.335938 L 92.394531 342.359375 C 92.347656 342.433594 92.253906 342.453125 92.183594 342.410156 C 92.117188 342.371094 92.09375 342.292969 92.117188 342.226562 C 93.132812 339.496094 94.359375 336.835938 95.871094 334.335938 C 96.246094 333.710938 96.65625 333.105469 97.074219 332.503906 C 97.492188 331.910156 97.925781 331.3125 98.4375 330.765625 C 99.445312 329.675781 100.703125 328.796875 102.105469 328.285156 C 103.503906 327.761719 105.003906 327.5625 106.480469 327.597656 C 107.957031 327.628906 109.421875 327.859375 110.84375 328.207031 C 113.699219 328.902344 116.417969 330.019531 119.042969 331.289062 C 121.660156 332.589844 124.164062 334.140625 126.421875 336.015625 C 128.652344 337.898438 130.691406 340.113281 131.972656 342.792969 C 132.589844 344.121094 133.0625 345.621094 132.871094 347.128906 Z M 90.21875 329.554688 C 88.996094 332.207031 87.226562 335.300781 84.933594 338.207031 C 83.960938 335.578125 84.308594 332.429688 83.324219 330.335938 L 87.304688 323.027344 L 81.777344 328.148438 C 81.480469 327.785156 81.078125 327.339844 80.542969 326.839844 C 75.144531 321.769531 82.933594 317.472656 81.835938 310.535156 C 81.449219 310.171875 81.0625 309.804688 80.65625 309.449219 C 78.648438 307.582031 76.457031 305.871094 74.234375 304.5 C 72.019531 303.09375 69.65625 302.160156 67.421875 302.105469 C 66.289062 302.078125 65.199219 302.378906 64.097656 302.859375 C 63.820312 302.984375 63.546875 303.128906 63.277344 303.285156 C 62.984375 303.464844 62.691406 303.644531 62.40625 303.839844 C 61.824219 304.214844 61.261719 304.628906 60.6875 305.035156 C 58.390625 306.675781 56.253906 308.605469 54.085938 310.59375 L 54.0625 310.617188 C 54 310.671875 53.902344 310.667969 53.847656 310.605469 C 53.796875 310.550781 53.796875 310.472656 53.835938 310.414062 C 55.550781 308.058594 57.449219 305.832031 59.585938 303.832031 C 60.113281 303.332031 60.671875 302.859375 61.238281 302.394531 C 61.800781 301.933594 62.378906 301.476562 63.019531 301.089844 C 64.285156 300.3125 65.734375 299.808594 67.222656 299.691406 C 68.710938 299.566406 70.207031 299.78125 71.617188 300.214844 C 73.035156 300.644531 74.378906 301.261719 75.65625 301.980469 C 78.214844 303.421875 80.527344 305.230469 82.714844 307.164062 C 84.882812 309.125 86.875 311.296875 88.539062 313.710938 C 90.179688 316.125 91.539062 318.808594 92.050781 321.738281 C 92.289062 323.179688 92.335938 324.75 91.742188 326.15625 C 91.300781 327.316406 90.777344 328.449219 90.21875 329.554688 Z M 47.527344 305.054688 C 47.335938 302.554688 48.074219 299.828125 48.046875 297.691406 L 54.292969 291.972656 L 47.246094 294.84375 C 46.417969 293.152344 44.988281 290.285156 44.363281 289.320312 C 40.871094 283.945312 48.804688 281.648438 51.519531 276.359375 C 51.46875 276.28125 51.425781 276.203125 51.375 276.128906 C 49.941406 273.785156 48.300781 271.546875 46.527344 269.625 C 44.773438 267.671875 42.753906 266.132812 40.613281 265.476562 C 39.535156 265.148438 38.40625 265.136719 37.210938 265.304688 C 36.910156 265.347656 36.609375 265.417969 36.308594 265.492188 C 35.980469 265.585938 35.644531 265.683594 35.316406 265.789062 C 34.65625 265.992188 34.003906 266.238281 33.339844 266.472656 C 30.6875 267.433594 28.109375 268.714844 25.480469 270.046875 L 25.453125 270.058594 C 25.378906 270.09375 25.285156 270.066406 25.25 269.992188 C 25.214844 269.925781 25.234375 269.847656 25.289062 269.800781 C 27.578125 267.996094 30.007812 266.367188 32.601562 265.019531 C 33.25 264.679688 33.914062 264.375 34.582031 264.082031 C 35.253906 263.792969 35.933594 263.507812 36.652344 263.308594 C 38.078125 262.902344 39.613281 262.808594 41.078125 263.097656 C 42.542969 263.382812 43.929688 263.992188 45.167969 264.792969 C 46.414062 265.585938 47.542969 266.542969 48.578125 267.582031 C 50.652344 269.664062 52.390625 272.03125 53.972656 274.488281 C 55.53125 276.957031 56.859375 279.585938 57.808594 282.363281 C 58.734375 285.128906 59.320312 288.082031 59.019531 291.035156 C 58.855469 292.488281 58.480469 294.019531 57.53125 295.207031 C 56.65625 296.382812 55.707031 297.496094 54.707031 298.558594 C 54.589844 298.675781 54.46875 298.792969 54.351562 298.910156 C 52.53125 300.933594 50.203125 303.125 47.527344 305.054688 Z M 20.5625 263.339844 C 21.082031 260.738281 22.851562 258.359375 23.257812 256.160156 L 31.132812 252.171875 L 23 253.109375 C 22.671875 251.339844 21.996094 247.96875 21.089844 245.019531 C 19.078125 238.488281 27.535156 235.980469 32.121094 236.621094 C 32.117188 236.613281 32.117188 236.601562 32.113281 236.589844 C 31.351562 233.957031 30.355469 231.359375 29.15625 229.039062 C 27.980469 226.691406 26.441406 224.675781 24.550781 223.476562 C 23.597656 222.867188 22.507812 222.5625 21.3125 222.410156 C 21.011719 222.375 20.703125 222.359375 20.394531 222.351562 C 20.050781 222.355469 19.707031 222.359375 19.359375 222.375 C 18.667969 222.398438 17.972656 222.464844 17.269531 222.515625 C 14.457031 222.738281 11.632812 223.289062 8.746094 223.878906 L 8.71875 223.886719 C 8.636719 223.902344 8.554688 223.847656 8.539062 223.765625 C 8.523438 223.691406 8.5625 223.621094 8.628906 223.59375 C 11.308594 222.457031 14.085938 221.53125 16.945312 220.917969 C 17.65625 220.757812 18.378906 220.640625 19.101562 220.535156 C 19.824219 220.433594 20.554688 220.335938 21.300781 220.335938 C 22.789062 220.320312 24.289062 220.636719 25.625 221.304688 C 26.964844 221.964844 28.136719 222.921875 29.125 224.015625 C 30.117188 225.113281 30.949219 226.335938 31.671875 227.613281 C 33.125 230.167969 34.175781 232.910156 35.050781 235.695312 C 35.898438 238.488281 36.488281 241.375 36.667969 244.304688 C 36.828125 247.21875 36.613281 250.21875 35.542969 252.992188 C 35 254.351562 34.234375 255.722656 33.003906 256.617188 C 31.851562 257.523438 30.640625 258.34375 29.394531 259.101562 C 27.964844 259.964844 26.484375 260.734375 24.96875 261.425781 C 23.585938 262.121094 22.109375 262.773438 20.5625 263.339844 Z M 10.648438 209.273438 L 18.996094 207.609375 L 11.234375 206.375 C 11.429688 204.503906 11.707031 200.335938 11.261719 193.933594 C 10.773438 186.890625 20.136719 186.015625 24.195312 190.992188 C 24.097656 188.882812 23.855469 186.785156 23.453125 184.816406 C 22.964844 182.238281 22.023438 179.882812 20.53125 178.214844 C 19.777344 177.371094 18.816406 176.785156 17.703125 176.308594 C 17.425781 176.191406 17.132812 176.097656 16.835938 176.003906 C 16.507812 175.914062 16.171875 175.824219 15.835938 175.746094 C 15.160156 175.582031 14.476562 175.453125 13.789062 175.3125 C 11.019531 174.765625 8.148438 174.527344 5.210938 174.3125 L 5.183594 174.308594 C 5.097656 174.304688 5.035156 174.230469 5.042969 174.144531 C 5.046875 174.070312 5.105469 174.015625 5.175781 174.003906 C 8.0625 173.640625 10.988281 173.5 13.90625 173.683594 C 14.632812 173.730469 15.359375 173.8125 16.085938 173.90625 C 16.808594 174.003906 17.539062 174.105469 18.257812 174.308594 C 19.691406 174.699219 21.050781 175.410156 22.15625 176.414062 C 23.265625 177.414062 24.136719 178.652344 24.785156 179.976562 C 25.441406 181.300781 25.914062 182.707031 26.265625 184.128906 C 26.96875 186.984375 27.230469 189.90625 27.320312 192.824219 C 27.378906 195.746094 27.160156 198.683594 26.539062 201.550781 C 25.902344 204.402344 24.878906 207.230469 23.097656 209.605469 C 22.207031 210.765625 21.097656 211.878906 19.667969 212.410156 C 18.3125 212.964844 16.925781 213.429688 15.519531 213.820312 C 13.996094 214.234375 12.453125 214.5625 10.894531 214.816406 C 9.382812 215.117188 7.785156 215.355469 6.148438 215.492188 C 7.335938 213.117188 9.675781 211.289062 10.648438 209.273438 Z M 11.214844 160.914062 L 19.796875 161.566406 L 12.769531 158.34375 C 13.371094 156.914062 14.925781 152.835938 16.367188 145.910156 C 17.785156 139.125 27.324219 136.78125 30.46875 141.449219 C 30.5 141.136719 30.542969 140.820312 30.566406 140.507812 C 30.792969 137.894531 30.527344 135.375 29.546875 133.363281 C 29.046875 132.347656 28.28125 131.519531 27.34375 130.757812 C 27.105469 130.570312 26.851562 130.398438 26.589844 130.230469 C 26.292969 130.054688 26 129.878906 25.695312 129.710938 C 25.09375 129.367188 24.464844 129.058594 23.84375 128.738281 C 21.324219 127.460938 18.628906 126.453125 15.863281 125.449219 L 15.832031 125.4375 C 15.757812 125.40625 15.714844 125.320312 15.742188 125.238281 C 15.769531 125.171875 15.839844 125.132812 15.910156 125.144531 C 18.789062 125.578125 21.640625 126.234375 24.398438 127.207031 C 25.085938 127.445312 25.765625 127.722656 26.4375 128.007812 C 27.105469 128.296875 27.78125 128.597656 28.417969 128.988281 C 29.691406 129.75 30.804688 130.804688 31.597656 132.070312 C 32.394531 133.335938 32.890625 134.765625 33.160156 136.214844 C 33.433594 137.667969 33.503906 139.148438 33.457031 140.613281 C 33.359375 143.546875 32.820312 146.4375 32.113281 149.265625 C 31.375 152.09375 30.367188 154.863281 28.992188 157.453125 C 27.605469 160.023438 25.851562 162.46875 23.492188 164.273438 C 22.320312 165.148438 20.949219 165.914062 19.429688 166.035156 C 17.972656 166.207031 16.515625 166.273438 15.054688 166.265625 C 12.820312 166.25 10.589844 166.0625 8.386719 165.707031 C 7.46875 165.59375 6.53125 165.449219 5.589844 165.269531 C 7.230469 163.46875 9.675781 162.375 11.214844 160.914062 Z M 24.722656 114.445312 L 32.949219 117.429688 L 26.957031 112.363281 C 27.9375 111.125 30.53125 107.628906 33.78125 101.402344 C 35.953125 97.242188 37.523438 93.921875 38.527344 91.695312 C 39.242188 90.121094 47.023438 93.082031 49.71875 96.867188 C 49.964844 95.492188 50.011719 94.144531 49.789062 92.894531 C 49.582031 91.78125 49.070312 90.777344 48.371094 89.789062 C 48.195312 89.546875 47.996094 89.3125 47.792969 89.078125 C 47.554688 88.828125 47.316406 88.578125 47.070312 88.335938 C 46.585938 87.84375 46.066406 87.375 45.550781 86.894531 C 43.480469 84.984375 41.15625 83.28125 38.765625 81.5625 L 38.742188 81.542969 C 38.671875 81.492188 38.65625 81.398438 38.707031 81.328125 C 38.75 81.269531 38.832031 81.25 38.894531 81.28125 C 41.546875 82.476562 44.117188 83.886719 46.503906 85.570312 C 47.105469 85.988281 47.679688 86.4375 48.25 86.894531 C 48.8125 87.359375 49.378906 87.832031 49.890625 88.375 C 50.90625 89.457031 51.695312 90.773438 52.109375 92.210938 C 52.53125 93.640625 52.628906 95.152344 52.492188 96.621094 C 52.359375 98.09375 52.027344 99.535156 51.582031 100.933594 C 50.691406 103.734375 49.390625 106.363281 47.9375 108.898438 C 46.460938 111.417969 44.738281 113.808594 42.710938 115.929688 C 40.679688 118.027344 38.328125 119.90625 35.566406 120.996094 C 34.203125 121.523438 32.671875 121.890625 31.179688 121.59375 C 29.734375 121.363281 28.308594 121.03125 26.902344 120.628906 C 24.609375 119.964844 22.375 119.101562 20.222656 118.074219 C 19.527344 117.773438 18.832031 117.449219 18.136719 117.097656 C 20.203125 115.816406 22.847656 115.429688 24.722656 114.445312 Z M 49.855469 73.535156 L 49.785156 73.601562 L 57.480469 78.457031 L 53.632812 72.035156 C 55.492188 71.308594 59.082031 69.460938 63.300781 64.996094 C 66.914062 61.171875 69.195312 57.609375 70.472656 55.3125 L 77.027344 60.023438 L 71.882812 51.421875 C 71.882812 51.375 71.878906 51.328125 71.882812 51.277344 C 71.980469 49.546875 71.707031 47.179688 72.28125 44.984375 C 75.648438 47.804688 77.898438 50.816406 79.832031 53.746094 C 82.660156 58.042969 82.503906 63.863281 74.15625 72.566406 C 65.175781 81.929688 57.289062 82.9375 54.230469 81.613281 C 51.257812 80.332031 46.925781 77.78125 43.070312 74.238281 C 45.300781 73.59375 47.824219 73.886719 49.855469 73.535156 Z M 85.84375 40.65625 L 91.585938 47.515625 L 89.707031 40.203125 C 91.777344 39.988281 95.835938 39.152344 101.074219 36.011719 C 105.515625 33.351562 108.558594 30.605469 110.347656 28.746094 L 115.371094 35.015625 L 112.734375 25.371094 C 112.753906 25.304688 112.769531 25.234375 112.792969 25.167969 C 113.351562 23.527344 113.730469 21.175781 114.878906 19.214844 C 117.355469 22.84375 118.707031 26.351562 119.773438 29.695312 C 121.335938 34.59375 119.613281 40.160156 109.222656 46.277344 C 98.042969 52.863281 90.179688 51.699219 87.589844 49.597656 C 85.074219 47.558594 81.59375 43.933594 78.839844 39.476562 C 81.269531 39.460938 83.726562 40.511719 85.84375 40.65625 Z M 128.707031 18.484375 L 133.660156 26.925781 L 132.785156 19.019531 C 134.929688 19.1875 139.429688 19.222656 145.527344 17.535156 C 150.710938 16.097656 154.257812 14.402344 156.277344 13.265625 L 160.40625 21.199219 L 159.390625 10.429688 C 160.289062 9.019531 161.242188 7.105469 162.71875 5.664062 C 164.140625 9.824219 164.511719 13.5625 164.648438 17.070312 C 164.851562 22.207031 161.707031 27.113281 150.0625 30.246094 C 137.535156 33.617188 130.261719 30.398438 128.324219 27.6875 C 126.445312 25.050781 124.058594 20.628906 122.585938 15.597656 C 124.808594 16.199219 126.800781 17.730469 128.707031 18.484375 Z M 171.292969 5.378906 C 171.367188 5.378906 171.425781 5.433594 171.441406 5.5 L 171.449219 5.53125 C 172.0625 8.414062 172.726562 11.203125 173.664062 13.878906 C 174.097656 15.21875 174.589844 16.535156 175.160156 17.777344 C 175.316406 18.140625 175.40625 18.246094 175.539062 18.457031 C 175.671875 18.65625 175.84375 18.863281 176.019531 19.066406 C 176.394531 19.46875 176.84375 19.855469 177.332031 20.210938 C 177.820312 20.566406 178.351562 20.890625 178.902344 21.183594 C 179.351562 21.433594 179.820312 21.667969 180.300781 21.882812 C 178.710938 15.375 180.007812 10.589844 181.410156 10.839844 C 183.792969 11.261719 186.027344 11.542969 192.277344 11.554688 C 197.628906 11.5625 201.636719 11.378906 204.015625 11.226562 L 205.527344 20.558594 L 206.792969 10.90625 C 206.832031 10.886719 206.871094 10.875 206.910156 10.851562 C 207.121094 10.605469 207.351562 10.371094 207.605469 10.15625 C 208.929688 9.039062 210.464844 7.21875 212.460938 6.128906 C 212.503906 6.875 212.511719 7.59375 212.507812 8.300781 C 212.570312 10.632812 212.480469 12.972656 212.175781 15.292969 C 212.082031 16.019531 211.953125 16.742188 211.808594 17.457031 C 211.664062 18.171875 211.511719 18.890625 211.261719 19.59375 C 210.777344 21 209.980469 22.3125 208.902344 23.34375 C 207.828125 24.386719 206.535156 25.171875 205.171875 25.730469 C 203.804688 26.296875 202.375 26.671875 200.929688 26.929688 C 198.039062 27.441406 195.101562 27.507812 192.183594 27.398438 C 189.265625 27.265625 186.347656 26.851562 183.53125 26.039062 C 180.726562 25.214844 177.976562 24.003906 175.722656 22.066406 C 174.625 21.101562 173.585938 19.921875 173.152344 18.457031 C 172.691406 17.070312 172.320312 15.65625 172.023438 14.226562 C 171.445312 11.367188 171.144531 8.449219 171.140625 5.53125 C 171.140625 5.449219 171.207031 5.378906 171.292969 5.378906 Z M 218.769531 16.378906 C 218.96875 13.464844 219.453125 10.574219 220.226562 7.765625 C 220.25 7.683594 220.332031 7.632812 220.414062 7.65625 C 220.484375 7.675781 220.527344 7.742188 220.527344 7.8125 L 220.523438 7.84375 C 220.351562 10.785156 220.246094 13.648438 220.4375 16.476562 C 220.503906 17.886719 220.621094 19.289062 220.84375 20.632812 C 220.902344 21.027344 220.957031 21.152344 221.03125 21.394531 C 221.101562 21.621094 221.214844 21.863281 221.335938 22.105469 C 221.585938 22.59375 221.914062 23.085938 222.289062 23.558594 C 222.667969 24.03125 223.09375 24.484375 223.550781 24.914062 C 223.992188 25.359375 224.464844 25.78125 224.972656 26.179688 C 225.804688 26.847656 226.710938 27.453125 227.65625 28.003906 C 225.972656 22.839844 231.046875 16.734375 233.308594 17.523438 C 234.925781 18.089844 236.828125 18.699219 239.03125 19.316406 C 244.515625 20.851562 248.605469 21.777344 250.867188 22.246094 L 249.8125 31.691406 L 253.828125 22.265625 C 253.9375 22.199219 254.054688 22.136719 254.171875 22.085938 C 255.640625 21.414062 257.457031 20.210938 259.492188 19.632812 C 259.53125 19.570312 259.605469 19.539062 259.675781 19.570312 C 259.679688 19.570312 259.679688 19.578125 259.683594 19.578125 C 259.765625 19.558594 259.84375 19.53125 259.925781 19.511719 C 259.640625 20.835938 259.28125 22.0625 258.882812 23.226562 C 258.410156 24.878906 257.855469 26.503906 257.1875 28.089844 C 256.90625 28.761719 256.589844 29.421875 256.261719 30.074219 C 255.929688 30.726562 255.589844 31.378906 255.164062 31.992188 C 254.324219 33.214844 253.203125 34.265625 251.890625 34.976562 C 250.582031 35.695312 249.125 36.105469 247.660156 36.285156 C 246.191406 36.46875 244.714844 36.449219 243.253906 36.3125 C 240.328125 36.035156 237.480469 35.320312 234.695312 34.441406 C 231.917969 33.53125 229.21875 32.359375 226.714844 30.828125 C 224.234375 29.285156 221.898438 27.386719 220.246094 24.921875 C 219.445312 23.695312 218.757812 22.28125 218.730469 20.757812 C 218.652344 19.296875 218.671875 17.835938 218.769531 16.378906 Z M 262.996094 35.582031 C 263.316406 34.15625 263.734375 32.753906 264.226562 31.378906 C 265.210938 28.628906 266.464844 25.980469 267.976562 23.488281 C 268.019531 23.414062 268.113281 23.390625 268.1875 23.4375 C 268.246094 23.472656 268.273438 23.550781 268.25 23.617188 L 268.242188 23.648438 C 267.273438 26.425781 266.390625 29.15625 265.804688 31.929688 C 265.480469 33.304688 265.214844 34.683594 265.0625 36.039062 C 265.011719 36.433594 265.03125 36.566406 265.035156 36.820312 C 265.046875 37.058594 265.082031 37.324219 265.132812 37.589844 C 265.242188 38.125 265.421875 38.691406 265.65625 39.246094 C 265.890625 39.804688 266.175781 40.359375 266.5 40.894531 C 266.804688 41.441406 267.144531 41.980469 267.519531 42.503906 C 268.269531 43.546875 269.136719 44.535156 270.074219 45.46875 C 270.496094 45.894531 270.933594 46.3125 271.382812 46.722656 C 270.453125 41.0625 276.433594 35.742188 278.992188 37.339844 C 278.992188 37.339844 280.210938 38.140625 282.800781 39.71875 C 287.703125 42.714844 291.40625 44.71875 293.449219 45.777344 L 290.011719 54.304688 L 296.183594 46.582031 C 296.328125 46.546875 296.476562 46.511719 296.621094 46.488281 C 298.265625 46.238281 300.414062 45.539062 302.585938 45.574219 C 302.601562 45.570312 302.617188 45.570312 302.628906 45.574219 C 302.710938 45.574219 302.785156 45.570312 302.863281 45.574219 C 302.828125 45.636719 302.792969 45.699219 302.757812 45.761719 C 302.753906 45.773438 302.757812 45.777344 302.753906 45.785156 C 301.390625 48.363281 299.828125 50.835938 298 53.117188 C 297.542969 53.6875 297.058594 54.234375 296.566406 54.773438 C 296.070312 55.3125 295.5625 55.847656 294.988281 56.320312 C 293.847656 57.269531 292.480469 57.972656 291.023438 58.300781 C 289.570312 58.632812 288.054688 58.632812 286.597656 58.40625 C 285.136719 58.183594 283.714844 57.761719 282.351562 57.234375 C 279.613281 56.167969 277.066406 54.703125 274.628906 53.097656 C 272.203125 51.46875 269.921875 49.601562 267.933594 47.449219 C 265.964844 45.285156 264.238281 42.824219 263.316406 40 C 262.878906 38.601562 262.609375 37.054688 262.996094 35.582031 Z M 308.886719 51.128906 C 308.945312 51.070312 309.042969 51.074219 309.101562 51.136719 C 309.152344 51.1875 309.15625 51.269531 309.117188 51.328125 L 309.097656 51.351562 C 307.421875 53.777344 305.847656 56.167969 304.539062 58.6875 C 303.867188 59.925781 303.238281 61.1875 302.734375 62.449219 C 302.578125 62.820312 302.558594 62.953125 302.496094 63.195312 C 302.441406 63.429688 302.410156 63.695312 302.386719 63.960938 C 302.347656 64.511719 302.375 65.101562 302.453125 65.703125 C 302.527344 66.300781 302.65625 66.910156 302.824219 67.511719 C 302.972656 68.121094 303.15625 68.730469 303.378906 69.335938 C 303.820312 70.546875 304.394531 71.730469 305.054688 72.875 C 305.359375 73.433594 305.691406 73.988281 306.039062 74.53125 C 306.660156 68.902344 314.449219 65.90625 318.898438 70.664062 C 322.71875 74.742188 325.695312 77.617188 327.40625 79.214844 L 321.625 86.742188 L 329.804688 80.84375 C 330.003906 80.847656 330.210938 80.851562 330.414062 80.878906 C 332.136719 81.082031 334.515625 80.953125 336.671875 81.65625 C 336.609375 81.726562 336.542969 81.785156 336.480469 81.855469 C 336.472656 81.867188 336.472656 81.878906 336.460938 81.890625 C 334.464844 84.007812 332.296875 85.976562 329.925781 87.6875 C 329.335938 88.117188 328.726562 88.515625 328.105469 88.90625 C 327.484375 89.285156 326.855469 89.671875 326.171875 89.972656 C 324.820312 90.585938 323.316406 90.902344 321.824219 90.824219 C 320.332031 90.757812 318.871094 90.355469 317.53125 89.746094 C 316.179688 89.144531 314.921875 88.359375 313.75 87.484375 C 311.394531 85.730469 309.328125 83.636719 307.40625 81.441406 C 305.503906 79.226562 303.804688 76.816406 302.460938 74.214844 C 301.140625 71.605469 300.132812 68.773438 299.996094 65.804688 C 299.945312 64.34375 300.097656 62.777344 300.859375 61.460938 C 301.550781 60.171875 302.328125 58.933594 303.167969 57.738281 C 304.851562 55.347656 306.765625 53.132812 308.886719 51.128906 Z M 341.617188 89.554688 C 341.652344 89.621094 341.632812 89.695312 341.582031 89.742188 L 341.558594 89.765625 C 339.285156 91.640625 337.121094 93.519531 335.183594 95.589844 C 334.195312 96.597656 333.253906 97.640625 332.421875 98.71875 C 332.171875 99.03125 332.117188 99.152344 331.992188 99.375 C 331.878906 99.582031 331.773438 99.832031 331.679688 100.082031 C 331.492188 100.597656 331.355469 101.175781 331.269531 101.773438 C 331.179688 102.371094 331.140625 102.988281 331.136719 103.617188 C 331.113281 104.242188 331.128906 104.882812 331.175781 105.523438 C 331.273438 106.804688 331.503906 108.097656 331.828125 109.382812 C 332.398438 111.820312 333.285156 114.234375 334.378906 116.578125 C 336.941406 112.445312 342.484375 104.871094 345.578125 110.882812 C 348.269531 116.125 350.421875 119.8125 351.59375 121.746094 L 344.40625 127.140625 L 353.570312 123.769531 C 353.664062 123.800781 353.753906 123.832031 353.847656 123.867188 C 355.433594 124.527344 357.726562 125.054688 359.597656 126.304688 C 359.605469 126.304688 359.605469 126.3125 359.613281 126.316406 C 359.625 126.320312 359.640625 126.328125 359.648438 126.335938 C 359.644531 126.339844 359.640625 126.339844 359.640625 126.339844 C 359.652344 126.359375 359.675781 126.367188 359.683594 126.390625 C 359.710938 126.460938 359.679688 126.539062 359.617188 126.574219 C 357.121094 128.070312 354.5 129.375 351.753906 130.382812 C 351.074219 130.636719 350.371094 130.851562 349.671875 131.0625 C 348.972656 131.261719 348.261719 131.460938 347.523438 131.566406 C 346.054688 131.785156 344.523438 131.683594 343.105469 131.207031 C 341.6875 130.738281 340.394531 129.953125 339.261719 129.003906 C 338.128906 128.058594 337.132812 126.960938 336.238281 125.800781 C 334.445312 123.472656 333.027344 120.902344 331.773438 118.265625 C 330.542969 115.617188 329.558594 112.839844 328.972656 109.964844 C 328.40625 107.097656 328.203125 104.097656 328.878906 101.203125 C 329.226562 99.785156 329.792969 98.320312 330.886719 97.257812 C 331.902344 96.203125 332.988281 95.222656 334.117188 94.300781 C 336.382812 92.460938 338.828125 90.84375 341.410156 89.492188 C 341.488281 89.449219 341.578125 89.480469 341.617188 89.554688 Z M 374.992188 179.210938 C 374.992188 179.050781 374.988281 178.894531 374.972656 178.734375 C 374.550781 173.480469 370.59375 170.707031 368.230469 169.050781 C 367.785156 168.738281 367.210938 168.335938 366.878906 168.054688 C 366.402344 166.429688 365.144531 161.941406 363.757812 155.238281 C 362.0625 147.058594 362.171875 142.628906 362.171875 142.59375 L 362.183594 142.300781 L 362.148438 142 C 362.132812 141.5625 362.992188 140.222656 363.507812 139.421875 C 365.019531 137.066406 367.085938 133.847656 366.148438 129.675781 C 366.117188 129.53125 366.085938 129.386719 366.046875 129.246094 L 366.03125 129.1875 C 365.949219 128.890625 365.863281 128.617188 365.769531 128.351562 C 363.941406 123.40625 359.382812 121.804688 356.660156 120.84375 C 356.144531 120.664062 355.484375 120.433594 355.085938 120.25 C 354.191406 118.816406 351.769531 114.832031 348.625 108.757812 C 344.785156 101.335938 343.695312 97.039062 343.6875 97.007812 L 343.621094 96.71875 L 343.5 96.445312 C 343.367188 96.023438 343.835938 94.5 344.113281 93.589844 C 344.933594 90.917969 346.058594 87.257812 344.027344 83.496094 C 343.960938 83.367188 343.886719 83.234375 343.796875 83.082031 C 343.632812 82.804688 343.46875 82.554688 343.300781 82.324219 C 340.210938 78.054688 335.386719 77.742188 332.503906 77.554688 C 331.960938 77.519531 331.265625 77.472656 330.832031 77.40625 C 329.582031 76.265625 326.171875 73.082031 321.507812 68.082031 C 315.808594 61.972656 313.597656 58.128906 313.582031 58.101562 L 313.246094 57.609375 C 313.011719 57.242188 313.046875 55.648438 313.070312 54.695312 C 313.140625 51.902344 313.234375 48.078125 310.261719 45 C 310.160156 44.894531 310.058594 44.789062 309.960938 44.695312 L 309.925781 44.660156 C 309.695312 44.4375 309.472656 44.242188 309.246094 44.066406 C 307.3125 42.53125 304.996094 41.753906 302.359375 41.753906 C 300.566406 41.753906 298.902344 42.105469 297.5625 42.386719 C 296.988281 42.507812 296.351562 42.644531 295.910156 42.695312 C 294.390625 41.933594 290.253906 39.789062 284.417969 36.238281 C 277.28125 31.894531 274.117188 28.789062 274.09375 28.769531 L 273.882812 28.558594 L 273.636719 28.382812 C 273.308594 28.09375 272.914062 26.550781 272.679688 25.625 C 271.984375 22.886719 271.035156 19.140625 267.261719 16.992188 C 267.199219 16.953125 267.027344 16.859375 267.027344 16.859375 C 266.867188 16.773438 266.699219 16.691406 266.554688 16.625 C 266.417969 16.550781 266.277344 16.484375 266.128906 16.421875 C 264.824219 15.875 263.453125 15.597656 262.058594 15.597656 C 258.945312 15.597656 256.332031 16.960938 254.425781 17.960938 C 253.945312 18.210938 253.324219 18.535156 252.921875 18.703125 C 251.261719 18.378906 246.695312 17.433594 240.109375 15.585938 C 232.0625 13.332031 228.179688 11.195312 228.152344 11.179688 L 227.894531 11.03125 L 227.609375 10.933594 C 227.214844 10.742188 226.417969 9.363281 225.941406 8.535156 C 224.535156 6.085938 222.601562 2.734375 218.390625 1.683594 C 218.324219 1.664062 218.136719 1.621094 218.136719 1.621094 C 217.957031 1.582031 217.773438 1.546875 217.613281 1.523438 C 217.460938 1.488281 217.308594 1.464844 217.152344 1.441406 C 216.707031 1.386719 216.261719 1.359375 215.820312 1.359375 C 211.316406 1.359375 208.292969 4.199219 206.296875 6.082031 C 205.902344 6.457031 205.390625 6.933594 205.046875 7.203125 C 203.359375 7.339844 198.707031 7.660156 191.867188 7.660156 C 183.515625 7.660156 179.195312 6.652344 179.167969 6.644531 L 178.882812 6.574219 L 178.597656 6.554688 C 178.402344 6.359375 178.207031 6.175781 178.003906 6 C 177.601562 5.652344 177.152344 5.199219 176.675781 4.722656 C 174.730469 2.757812 172.070312 0.0703125 167.902344 0.0703125 C 167.441406 0.0703125 166.964844 0.105469 166.484375 0.179688 C 166.46875 0.179688 166.453125 0.183594 166.4375 0.1875 C 166.296875 0.199219 166.152344 0.214844 166.011719 0.238281 C 160.917969 0.996094 158.46875 5.121094 157.007812 7.589844 C 156.71875 8.070312 156.449219 8.523438 156.21875 8.863281 C 156.175781 8.929688 156.132812 9 156.085938 9.066406 C 154.292969 9.714844 150.023438 11.195312 143.792969 12.921875 C 135.742188 15.152344 131.3125 15.335938 131.28125 15.335938 L 130.972656 15.34375 L 130.679688 15.402344 C 130.175781 15.402344 128.933594 14.71875 128.023438 14.214844 C 126.105469 13.15625 123.71875 11.835938 120.808594 11.835938 C 119.902344 11.835938 119.003906 11.964844 118.128906 12.222656 C 117.988281 12.261719 117.84375 12.308594 117.671875 12.363281 C 117.367188 12.46875 117.09375 12.574219 116.828125 12.691406 C 112.015625 14.839844 110.71875 19.496094 109.941406 22.277344 C 109.796875 22.804688 109.609375 23.472656 109.457031 23.882812 C 108.082031 24.875 104.265625 27.550781 98.410156 31.089844 C 91.261719 35.414062 87.046875 36.785156 87.015625 36.796875 L 86.734375 36.878906 L 86.464844 37.019531 C 86.464844 37.019531 86.382812 37.050781 86.148438 37.050781 C 85.511719 37.050781 84.570312 36.828125 83.578125 36.59375 C 82.152344 36.257812 80.542969 35.878906 78.796875 35.878906 C 76.84375 35.878906 75.0625 36.375 73.507812 37.347656 C 73.386719 37.425781 73.261719 37.507812 73.109375 37.605469 L 73.097656 37.617188 C 72.839844 37.792969 72.605469 37.96875 72.386719 38.148438 C 68.332031 41.519531 68.339844 46.347656 68.339844 49.238281 C 68.339844 49.78125 68.34375 50.484375 68.304688 50.917969 C 67.25 52.242188 64.300781 55.851562 59.617188 60.839844 C 53.902344 66.929688 50.210938 69.386719 50.183594 69.40625 L 49.9375 69.5625 L 49.714844 69.773438 C 49.367188 70.03125 47.773438 70.101562 46.820312 70.140625 C 43.996094 70.257812 40.132812 70.417969 37.25 73.667969 C 37.203125 73.722656 37.074219 73.871094 37.074219 73.871094 C 36.960938 74.007812 36.847656 74.15625 36.75 74.28125 C 36.652344 74.402344 36.558594 74.527344 36.464844 74.660156 C 33.46875 78.996094 34.777344 83.648438 35.5625 86.425781 C 35.710938 86.953125 35.902344 87.625 35.980469 88.054688 C 35.324219 89.613281 33.453125 93.882812 30.292969 99.949219 C 26.433594 107.359375 23.542969 110.71875 23.523438 110.746094 L 23.328125 110.964844 L 23.167969 111.222656 C 22.902344 111.574219 21.386719 112.066406 20.480469 112.363281 C 17.796875 113.238281 14.117188 114.433594 12.222656 118.339844 C 12.191406 118.40625 12.109375 118.578125 12.109375 118.578125 C 12.03125 118.746094 11.960938 118.917969 11.902344 119.066406 C 11.84375 119.210938 11.78125 119.355469 11.730469 119.507812 C 10.015625 124.492188 12.535156 128.617188 14.035156 131.085938 C 14.320312 131.546875 14.6875 132.144531 14.878906 132.535156 C 14.667969 134.214844 14.023438 138.832031 12.617188 145.527344 C 10.894531 153.703125 9.019531 157.722656 9.007812 157.75 L 8.878906 158.015625 L 8.796875 158.308594 C 8.632812 158.714844 7.308594 159.597656 6.515625 160.125 C 4.160156 161.699219 0.933594 163.851562 0.179688 168.105469 C 0.164062 168.179688 0.148438 168.257812 0.132812 168.375 C 0.105469 168.554688 0.0820312 168.742188 0.0664062 168.902344 C 0.046875 169.054688 0.03125 169.207031 0.0195312 169.371094 C -0.285156 174.632812 3.253906 177.925781 5.363281 179.894531 C 5.761719 180.265625 6.277344 180.738281 6.570312 181.066406 C 6.816406 182.738281 7.441406 187.359375 7.894531 194.183594 C 8.445312 202.519531 7.726562 206.894531 7.71875 206.925781 L 7.667969 207.21875 L 7.667969 207.519531 C 7.621094 207.957031 6.582031 209.167969 5.960938 209.890625 C 4.144531 212.007812 1.648438 214.914062 2.003906 219.175781 C 2.015625 219.316406 2.027344 219.457031 2.046875 219.597656 L 2.058594 219.691406 C 2.09375 219.992188 2.140625 220.273438 2.199219 220.539062 C 3.328125 225.691406 7.625 227.90625 10.191406 229.230469 C 10.671875 229.480469 11.292969 229.800781 11.664062 230.035156 C 12.355469 231.578125 14.203125 235.859375 16.484375 242.308594 C 19.261719 250.1875 19.75 254.59375 19.753906 254.625 L 19.78125 254.917969 L 19.863281 255.210938 C 19.9375 255.644531 19.261719 257.085938 18.863281 257.953125 C 17.679688 260.484375 16.066406 263.953125 17.554688 267.960938 C 17.605469 268.101562 17.660156 268.242188 17.71875 268.382812 L 17.746094 268.445312 C 17.863281 268.722656 17.984375 268.980469 18.113281 269.226562 C 20.589844 273.878906 25.320312 274.851562 28.152344 275.4375 C 28.683594 275.542969 29.371094 275.683594 29.785156 275.8125 C 30.871094 277.113281 33.804688 280.734375 37.742188 286.332031 C 42.546875 293.164062 44.203125 297.277344 44.214844 297.304688 L 44.324219 297.582031 L 44.480469 297.84375 C 44.667969 298.238281 44.410156 299.8125 44.253906 300.75 C 43.800781 303.507812 43.183594 307.285156 45.699219 310.742188 C 45.785156 310.859375 45.875 310.980469 45.96875 311.097656 L 46 311.136719 C 46.191406 311.382812 46.382812 311.601562 46.578125 311.804688 C 49.808594 315.191406 53.984375 315.191406 55.355469 315.191406 C 56.28125 315.191406 57.148438 315.128906 57.917969 315.078125 C 58.496094 315.035156 59.046875 315 59.464844 315 C 59.515625 315 59.558594 315 59.597656 315 C 60.992188 315.960938 64.800781 318.65625 70.09375 322.980469 C 76.5625 328.261719 79.269531 331.773438 79.289062 331.800781 L 79.46875 332.039062 L 79.6875 332.242188 C 79.972656 332.574219 80.148438 334.160156 80.253906 335.105469 C 80.570312 337.914062 80.996094 341.753906 84.4375 344.40625 C 84.496094 344.449219 84.554688 344.496094 84.644531 344.566406 C 84.789062 344.671875 84.949219 344.777344 85.082031 344.863281 C 85.210938 344.953125 85.339844 345.039062 85.476562 345.121094 C 87.132812 346.105469 88.964844 346.605469 90.921875 346.605469 C 93.386719 346.605469 95.546875 345.832031 97.28125 345.210938 C 97.792969 345.027344 98.453125 344.792969 98.875 344.683594 C 100.472656 345.230469 104.863281 346.800781 111.136719 349.535156 C 118.792969 352.875 122.347656 355.523438 122.371094 355.546875 L 122.605469 355.722656 L 122.875 355.863281 C 123.238281 356.105469 123.835938 357.585938 124.195312 358.46875 C 125.253906 361.089844 126.703125 364.675781 130.734375 366.292969 C 130.800781 366.324219 130.871094 366.351562 130.976562 366.390625 C 131.148438 366.457031 131.328125 366.515625 131.476562 366.5625 C 131.621094 366.613281 131.769531 366.660156 131.925781 366.703125 C 132.828125 366.949219 133.75 367.066406 134.664062 367.066406 C 138.429688 367.066406 141.253906 365.066406 143.316406 363.601562 C 143.757812 363.289062 144.332031 362.882812 144.707031 362.664062 C 146.394531 362.757812 151.046875 363.082031 157.824219 364.027344 C 166.097656 365.179688 170.234375 366.769531 170.265625 366.78125 L 170.539062 366.890625 L 170.835938 366.953125 C 171.253906 367.089844 172.226562 368.347656 172.808594 369.105469 C 174.535156 371.339844 176.898438 374.402344 181.214844 374.875 C 181.28125 374.882812 181.480469 374.902344 181.480469 374.902344 C 181.664062 374.917969 181.847656 374.925781 182.007812 374.929688 C 182.144531 374.941406 182.277344 374.945312 182.421875 374.945312 L 182.476562 374.945312 C 187.75 374.886719 190.789062 371.132812 192.605469 368.886719 C 192.949219 368.464844 193.386719 367.921875 193.691406 367.605469 C 195.34375 367.242188 199.914062 366.300781 206.691406 365.378906 C 211.46875 364.726562 214.9375 364.59375 217.003906 364.59375 C 218.585938 364.59375 219.414062 364.671875 219.414062 364.671875 L 219.707031 364.703125 L 220.011719 364.683594 C 220.445312 364.699219 221.726562 365.652344 222.488281 366.222656 C 224.535156 367.746094 227.078125 369.636719 230.589844 369.636719 C 231.066406 369.636719 231.550781 369.601562 232.027344 369.527344 C 232.175781 369.507812 232.320312 369.480469 232.46875 369.457031 L 232.527344 369.445312 C 232.832031 369.382812 233.109375 369.316406 233.378906 369.238281 C 238.4375 367.757812 240.351562 363.320312 241.492188 360.667969 C 241.710938 360.167969 241.984375 359.527344 242.195312 359.144531 C 243.6875 358.347656 247.832031 356.207031 254.109375 353.488281 C 261.773438 350.167969 266.136719 349.382812 266.167969 349.375 L 266.460938 349.324219 L 266.746094 349.226562 C 266.746094 349.226562 266.769531 349.21875 266.835938 349.21875 C 267.421875 349.21875 268.550781 349.652344 269.546875 350.039062 C 271.238281 350.683594 273.339844 351.492188 275.671875 351.492188 C 277.054688 351.492188 278.382812 351.210938 279.625 350.648438 C 279.753906 350.589844 279.890625 350.527344 280.023438 350.460938 L 280.128906 350.40625 C 280.386719 350.273438 280.621094 350.144531 280.84375 350.003906 C 285.320312 347.214844 285.964844 342.421875 286.351562 339.5625 C 286.421875 339.023438 286.515625 338.328125 286.609375 337.902344 C 287.835938 336.734375 291.246094 333.554688 296.558594 329.242188 C 303.042969 323.976562 307.03125 322.039062 307.058594 322.027344 L 307.328125 321.902344 L 307.574219 321.726562 C 307.574219 321.726562 307.777344 321.617188 308.5 321.617188 C 309.074219 321.617188 309.765625 321.683594 310.492188 321.75 C 311.371094 321.832031 312.371094 321.925781 313.398438 321.925781 C 316.234375 321.925781 318.507812 321.171875 320.359375 319.617188 C 320.464844 319.53125 320.570312 319.441406 320.675781 319.347656 L 320.753906 319.277344 C 320.976562 319.070312 321.175781 318.871094 321.359375 318.667969 C 324.917969 314.777344 324.242188 309.988281 323.839844 307.128906 C 323.765625 306.589844 323.667969 305.898438 323.644531 305.460938 C 324.507812 304.007812 326.933594 300.023438 330.882812 294.4375 C 335.710938 287.621094 339.027344 284.675781 339.050781 284.65625 L 339.273438 284.460938 L 339.464844 284.226562 C 339.777344 283.921875 341.347656 283.632812 342.28125 283.464844 C 345.0625 282.957031 348.871094 282.265625 351.273438 278.648438 C 351.3125 278.589844 351.417969 278.429688 351.417969 278.429688 C 351.511719 278.273438 351.605469 278.113281 351.683594 277.972656 C 351.765625 277.839844 351.84375 277.707031 351.917969 277.5625 C 354.285156 272.855469 352.347656 268.429688 351.191406 265.78125 C 350.96875 265.28125 350.691406 264.644531 350.550781 264.230469 C 350.988281 262.59375 352.246094 258.105469 354.542969 251.660156 C 357.351562 243.792969 359.746094 240.0625 359.765625 240.035156 L 359.929688 239.789062 L 360.050781 239.511719 C 360.265625 239.132812 361.699219 238.433594 362.558594 238.019531 C 365.097656 236.777344 368.570312 235.085938 369.914062 230.953125 C 369.933594 230.890625 369.996094 230.703125 369.996094 230.703125 C 370.046875 230.527344 370.09375 230.34375 370.128906 230.191406 C 370.167969 230.042969 370.207031 229.898438 370.238281 229.734375 C 371.253906 224.5625 368.191406 220.820312 366.359375 218.589844 C 366.015625 218.167969 365.570312 217.625 365.324219 217.265625 C 365.304688 215.570312 365.308594 210.910156 365.78125 204.082031 C 366.355469 195.75 367.660156 191.511719 367.667969 191.484375 L 367.761719 191.203125 L 367.804688 190.898438 C 367.90625 190.476562 369.097656 189.417969 369.8125 188.785156 C 371.921875 186.90625 374.816406 184.335938 374.992188 179.992188 C 374.992188 179.917969 374.996094 179.84375 375 179.738281 C 375.003906 179.554688 374.996094 179.367188 374.992188 179.210938 " fill-opacity="1" fill-rule="nonzero"/></g><g fill="#fbf7ef" fill-opacity="1"><g transform="translate(76.683463, 242.901283)"><g><path d="M 0 8.726562 C 0 10.867188 1.8125 13.007812 6.257812 13.007812 C 20.089844 13.007812 40.503906 -8.234375 56.804688 -28.484375 C 65.367188 -39.023438 73.273438 -49.890625 81.339844 -60.921875 L 88.75 -70.96875 C 100.933594 -87.597656 108.839844 -97.640625 115.09375 -104.390625 C 115.589844 -104.886719 116.082031 -105.214844 116.578125 -105.214844 C 117.398438 -105.214844 118.058594 -104.558594 117.894531 -103.402344 C 116.742188 -94.84375 110.976562 -41.164062 106.53125 -37.378906 C 100.441406 -32.273438 91.054688 -22.394531 91.054688 -13.832031 C 91.054688 -9.222656 93.855469 -6.585938 98.136719 -6.585938 C 109.824219 -6.585938 115.257812 -25.851562 116.246094 -33.753906 C 116.578125 -36.554688 117.234375 -38.695312 119.210938 -40.503906 C 143.746094 -62.898438 186.554688 -95.5 207.300781 -107.191406 C 208.289062 -107.683594 209.113281 -107.851562 209.609375 -107.851562 C 210.429688 -107.851562 210.761719 -107.355469 210.761719 -106.699219 C 210.761719 -106.203125 210.59375 -105.378906 210.101562 -104.722656 L 191.332031 -82 C 167.949219 -54.335938 140.78125 -22.230469 140.78125 -0.328125 C 140.78125 3.128906 141.441406 6.75 144.898438 6.75 C 148.847656 6.75 149.179688 1.8125 149.179688 0 C 149.179688 -18.769531 175.6875 -50.714844 198.574219 -78.046875 C 210.761719 -92.703125 221.957031 -106.039062 226.566406 -113.941406 C 227.71875 -115.917969 227.882812 -116.578125 227.882812 -117.070312 C 227.882812 -119.539062 225.25 -121.351562 221.957031 -121.351562 C 220.640625 -121.351562 219.324219 -121.1875 217.015625 -120.035156 C 203.84375 -113.449219 152.964844 -79.695312 118.882812 -47.089844 C 118.550781 -46.761719 118.058594 -46.597656 117.730469 -46.597656 C 117.234375 -46.597656 116.742188 -46.925781 116.742188 -47.75 C 116.742188 -47.914062 116.742188 -48.078125 117.070312 -49.066406 C 121.1875 -61.582031 123.984375 -107.191406 126.785156 -115.425781 L 126.949219 -115.917969 C 126.949219 -118.550781 125.304688 -120.199219 123.820312 -120.199219 C 116.742188 -120.199219 87.433594 -82.164062 82.492188 -75.578125 L 75.246094 -65.699219 C 57.628906 -41.65625 25.027344 4.28125 6.09375 4.28125 C 1.976562 4.28125 0 6.585938 0 8.726562 Z M 107.027344 -30.625 C 107.191406 -30.625 107.355469 -30.460938 107.355469 -29.804688 C 107.355469 -26.675781 102.25 -13.832031 98.957031 -13.832031 C 98.136719 -13.832031 97.804688 -14.488281 97.804688 -15.3125 C 97.804688 -18.277344 104.0625 -30.625 107.027344 -30.625 Z M 107.027344 -30.625 "/></g></g></g></svg>