<svg xmlns="http://www.w3.org/2000/svg" xmlns:xlink="http://www.w3.org/1999/xlink" width="500" zoomAndPan="magnify" viewBox="0 0 375 374.999991" height="500" preserveAspectRatio="xMidYMid meet" version="1.0"><defs><clipPath id="5852a9c211"><path d="M 187.5 375 C 291.054688 375 375 291.054688 375 187.5 C 375 83.945312 291.054688 0 187.5 0 C 83.945312 0 0 83.945312 0 187.5 C 0 291.054688 83.945312 375 187.5 375 " clip-rule="nonzero"/></clipPath><clipPath id="48d5c5a7b1"><path d="M 62.828125 255.449219 L 133.386719 255.449219 L 133.386719 323.980469 L 62.828125 323.980469 Z M 62.828125 255.449219 " clip-rule="nonzero"/></clipPath><clipPath id="5d1f7cc2a5"><path d="M 136 255 L 208.328125 255 L 208.328125 324 L 136 324 Z M 136 255 " clip-rule="nonzero"/></clipPath><clipPath id="3317b361a2"><path d="M 118 165.015625 L 151.566406 165.015625 L 151.566406 218.410156 L 118 218.410156 Z M 118 165.015625 " clip-rule="nonzero"/></clipPath><clipPath id="4dcc994bdd"><path d="M 191.992188 128.25 L 262.554688 128.25 L 262.554688 196.777344 L 191.992188 196.777344 Z M 191.992188 128.25 " clip-rule="nonzero"/></clipPath><clipPath id="a6858d36ff"><path d="M 266 128 L 337.492188 128 L 337.492188 196.804688 L 266 196.804688 Z M 266 128 " clip-rule="nonzero"/></clipPath><clipPath id="06fb4773b5"><path d="M 247 37.816406 L 280.734375 37.816406 L 280.734375 91 L 247 91 Z M 247 37.816406 " clip-rule="nonzero"/></clipPath></defs><g clip-path="url(#5852a9c211)"><rect x="-37.5" width="450" fill="#fbf7ef" y="-37.499999" height="449.999989" fill-opacity="1"/></g><path fill="#8f7650" d="M 105.515625 233.335938 C 105.480469 233.070312 105.449219 232.8125 105.410156 232.546875 C 105.304688 231.425781 105.179688 230.277344 105.121094 229.105469 C 105.082031 227.929688 104.996094 226.746094 105.039062 225.554688 L 105.0625 223.777344 C 105.089844 223.191406 105.144531 222.601562 105.183594 222.019531 C 105.230469 221.441406 105.261719 220.867188 105.320312 220.300781 C 105.402344 219.738281 105.480469 219.179688 105.558594 218.632812 C 105.640625 218.085938 105.699219 217.550781 105.796875 217.027344 C 105.910156 216.511719 106.019531 216.003906 106.128906 215.511719 C 106.328125 214.527344 106.539062 213.601562 106.820312 212.769531 C 107.078125 211.933594 107.296875 211.167969 107.519531 210.5 C 107.78125 209.84375 108.011719 209.273438 108.199219 208.804688 C 108.574219 207.871094 108.789062 207.339844 108.789062 207.339844 C 108.789062 207.339844 108.679688 207.902344 108.492188 208.890625 C 108.398438 209.382812 108.285156 209.976562 108.15625 210.660156 C 108.066406 211.347656 108 212.132812 107.910156 212.976562 C 107.800781 213.816406 107.773438 214.738281 107.765625 215.707031 C 107.753906 216.191406 107.746094 216.6875 107.734375 217.191406 C 107.738281 217.699219 107.78125 218.21875 107.804688 218.746094 C 107.832031 219.269531 107.859375 219.800781 107.890625 220.339844 C 107.9375 220.875 108.015625 221.417969 108.078125 221.964844 C 108.144531 222.507812 108.199219 223.058594 108.28125 223.605469 L 108.582031 225.246094 C 108.75 226.339844 109.050781 227.417969 109.292969 228.476562 C 109.554688 229.53125 109.878906 230.554688 110.167969 231.542969 C 110.511719 232.519531 110.792969 233.472656 111.152344 234.347656 C 111.480469 235.234375 111.816406 236.054688 112.148438 236.804688 C 112.792969 238.308594 113.402344 239.515625 113.839844 240.328125 C 114.058594 240.746094 114.230469 241.042969 114.339844 241.21875 C 114.398438 241.324219 114.816406 241.925781 115.230469 242.519531 C 119.742188 234.058594 125.5 226.441406 131.351562 221.886719 C 125.835938 210.332031 115.191406 191.253906 112.402344 184.523438 C 105.644531 189.734375 94.71875 208.046875 91.871094 219.113281 C 97.210938 224.617188 101.757812 229.359375 105.515625 233.335938 " fill-opacity="1" fill-rule="nonzero"/><path fill="#8f7650" d="M 152.777344 240.117188 C 153.203125 239.308594 153.761719 238.1875 154.355469 236.804688 C 154.691406 236.054688 155.023438 235.234375 155.355469 234.347656 C 155.710938 233.472656 155.992188 232.519531 156.339844 231.542969 C 156.628906 230.554688 156.953125 229.53125 157.214844 228.476562 C 157.457031 227.417969 157.753906 226.339844 157.925781 225.246094 L 158.222656 223.605469 C 158.308594 223.058594 158.359375 222.507812 158.429688 221.964844 C 158.492188 221.417969 158.570312 220.875 158.617188 220.339844 C 158.644531 219.800781 158.671875 219.269531 158.699219 218.746094 C 158.722656 218.21875 158.765625 217.699219 158.769531 217.191406 C 158.761719 216.6875 158.75 216.191406 158.742188 215.707031 C 158.734375 214.738281 158.707031 213.816406 158.59375 212.976562 C 158.503906 212.132812 158.4375 211.347656 158.347656 210.660156 C 158.21875 209.976562 158.105469 209.382812 158.011719 208.890625 C 157.824219 207.902344 157.71875 207.339844 157.71875 207.339844 C 157.71875 207.339844 157.933594 207.871094 158.308594 208.804688 C 158.496094 209.273438 158.726562 209.84375 158.988281 210.5 C 159.207031 211.167969 159.425781 211.933594 159.683594 212.769531 C 159.964844 213.601562 160.175781 214.527344 160.378906 215.511719 C 160.484375 216.003906 160.59375 216.511719 160.707031 217.027344 C 160.804688 217.550781 160.863281 218.085938 160.949219 218.632812 C 161.027344 219.179688 161.105469 219.738281 161.183594 220.300781 C 161.246094 220.867188 161.273438 221.441406 161.320312 222.019531 C 161.359375 222.601562 161.417969 223.191406 161.441406 223.777344 L 161.46875 225.554688 C 161.511719 226.746094 161.425781 227.929688 161.386719 229.105469 C 161.328125 230.277344 161.199219 231.425781 161.09375 232.546875 C 160.9375 233.652344 160.828125 234.742188 160.632812 235.753906 C 160.59375 235.972656 160.554688 236.179688 160.515625 236.394531 C 164.902344 231.699219 170.664062 225.675781 177.804688 218.324219 C 174.660156 207.195312 164.082031 189.609375 157.488281 184.523438 C 154.671875 191.3125 143.859375 210.675781 138.390625 222.199219 C 143.539062 226.332031 148.601562 232.816406 152.777344 240.117188 " fill-opacity="1" fill-rule="nonzero"/><g clip-path="url(#48d5c5a7b1)"><path fill="#8f7650" d="M 101.78125 273.839844 C 91.214844 267.230469 81.003906 263.09375 71.128906 259.089844 C 68.289062 257.941406 65.535156 256.824219 62.816406 255.671875 C 64.882812 261.003906 66.148438 266.046875 67.460938 271.308594 C 69.417969 279.117188 71.4375 287.191406 76.4375 296.953125 C 84.910156 313.496094 100.003906 322.621094 120.46875 323.839844 C 114.703125 321.015625 107.941406 317.007812 101.910156 312.03125 C 100.136719 310.597656 98.449219 309.0625 96.835938 307.515625 C 96.023438 306.746094 95.265625 305.925781 94.496094 305.152344 C 93.761719 304.339844 93.035156 303.535156 92.324219 302.746094 C 91.648438 301.925781 90.984375 301.121094 90.335938 300.332031 C 89.722656 299.515625 89.125 298.714844 88.542969 297.9375 C 87.433594 296.339844 86.410156 294.820312 85.5625 293.359375 C 84.664062 291.933594 84.007812 290.523438 83.351562 289.328125 C 82.78125 288.085938 82.253906 287.019531 81.875 286.117188 C 81.152344 284.300781 80.738281 283.265625 80.738281 283.265625 C 80.738281 283.265625 81.25 284.253906 82.148438 285.984375 C 82.617188 286.839844 83.242188 287.84375 83.921875 289.007812 C 84.6875 290.125 85.46875 291.4375 86.492188 292.746094 C 87.460938 294.09375 88.605469 295.476562 89.835938 296.914062 C 90.472656 297.613281 91.128906 298.328125 91.800781 299.058594 C 92.503906 299.757812 93.222656 300.472656 93.953125 301.199219 C 94.71875 301.890625 95.492188 302.59375 96.277344 303.304688 C 97.09375 303.976562 97.894531 304.6875 98.746094 305.347656 C 100.445312 306.679688 102.199219 307.980469 104.027344 309.179688 C 111.300781 314.050781 119.355469 317.550781 125.511719 319.609375 C 128.589844 320.65625 131.199219 321.359375 133.011719 321.800781 C 133.3125 321.875 135.285156 294.796875 101.78125 273.839844 " fill-opacity="1" fill-rule="nonzero"/></g><g clip-path="url(#5d1f7cc2a5)"><path fill="#8f7650" d="M 137.0625 321.375 C 138.679688 320.945312 140.660156 320.371094 142.898438 319.609375 C 149.058594 317.550781 157.113281 314.050781 164.382812 309.179688 C 166.214844 307.980469 167.96875 306.679688 169.667969 305.347656 C 170.519531 304.6875 171.316406 303.976562 172.136719 303.304688 C 172.921875 302.59375 173.695312 301.890625 174.457031 301.199219 C 175.1875 300.472656 175.90625 299.757812 176.613281 299.058594 C 177.28125 298.328125 177.9375 297.613281 178.578125 296.914062 C 179.808594 295.476562 180.953125 294.09375 181.921875 292.746094 C 182.945312 291.4375 183.722656 290.125 184.488281 289.007812 C 185.171875 287.84375 185.796875 286.839844 186.261719 285.984375 C 187.164062 284.253906 187.675781 283.265625 187.675781 283.265625 C 187.675781 283.265625 187.261719 284.300781 186.539062 286.117188 C 186.15625 287.019531 185.632812 288.085938 185.0625 289.328125 C 184.40625 290.523438 183.75 291.933594 182.847656 293.359375 C 182.003906 294.820312 180.980469 296.339844 179.871094 297.9375 C 179.289062 298.714844 178.691406 299.515625 178.078125 300.332031 C 177.429688 301.121094 176.765625 301.925781 176.089844 302.746094 C 175.378906 303.535156 174.652344 304.339844 173.917969 305.152344 C 173.148438 305.925781 172.390625 306.746094 171.582031 307.515625 C 169.964844 309.0625 168.277344 310.597656 166.503906 312.03125 C 160.378906 317.085938 153.492188 321.144531 147.671875 323.976562 C 169.664062 323.507812 185.816406 314.296875 194.703125 296.953125 C 199.707031 287.191406 201.726562 279.117188 203.679688 271.308594 C 204.996094 266.046875 206.257812 261.003906 208.328125 255.671875 C 205.605469 256.824219 202.855469 257.941406 200.011719 259.089844 C 190.136719 263.09375 179.925781 267.230469 169.359375 273.839844 C 139.535156 292.496094 136.382812 313.632812 137.0625 321.375 " fill-opacity="1" fill-rule="nonzero"/></g><g clip-path="url(#3317b361a2)"><path fill="#8f7650" d="M 123.796875 201.90625 C 126.558594 207.171875 129.351562 212.5 131.660156 217.136719 L 134.667969 184.625 L 137.757812 218.082031 C 140.152344 213.230469 143.132812 207.539062 146.082031 201.917969 C 147.957031 198.34375 149.78125 194.871094 151.339844 191.816406 C 147.609375 181.828125 141.183594 172.59375 134.667969 165.015625 C 127.867188 172.738281 121.753906 181.523438 118.136719 191.019531 C 119.78125 194.25 121.757812 198.023438 123.796875 201.90625 " fill-opacity="1" fill-rule="nonzero"/></g><path fill="#8f7650" d="M 75.085938 255.589844 C 81.445312 258.175781 87.949219 260.898438 94.628906 264.351562 C 93.535156 260.863281 92.289062 256.410156 91.277344 251.902344 C 90.71875 249.476562 90.234375 247.03125 89.835938 244.738281 C 89.625 243.59375 89.457031 242.480469 89.304688 241.425781 C 89.140625 240.375 88.996094 239.378906 88.898438 238.453125 C 88.660156 236.613281 88.515625 235.078125 88.4375 234 C 88.34375 232.925781 88.292969 232.3125 88.292969 232.3125 C 88.292969 232.3125 88.457031 232.90625 88.738281 233.949219 C 89.007812 234.988281 89.421875 236.46875 89.984375 238.21875 C 90.242188 239.101562 90.5625 240.046875 90.90625 241.039062 C 91.242188 242.035156 91.601562 243.082031 92.011719 244.15625 C 92.796875 246.304688 93.695312 248.574219 94.660156 250.8125 C 96.566406 255.292969 98.710938 259.65625 100.421875 262.847656 C 101.269531 264.453125 102.011719 265.757812 102.53125 266.660156 C 102.84375 267.1875 103.675781 268.695312 104.292969 269.824219 C 104.292969 269.824219 104.296875 269.828125 104.296875 269.828125 C 104.945312 270.230469 105.566406 270.636719 106.191406 271.046875 C 106.570312 263.441406 109.429688 254.265625 113.648438 245.679688 C 106.070312 236.980469 86.960938 217.449219 81.191406 211.550781 C 76.632812 219.289062 73.011719 244.445312 75.085938 255.589844 " fill-opacity="1" fill-rule="nonzero"/><path fill="#8f7650" d="M 163.320312 272.15625 C 163.746094 271.867188 164.160156 271.574219 164.597656 271.285156 C 165.578125 269.582031 166.9375 267.210938 167.261719 266.660156 C 167.785156 265.757812 168.523438 264.453125 169.371094 262.847656 C 171.085938 259.65625 173.226562 255.292969 175.132812 250.8125 C 176.097656 248.574219 176.996094 246.304688 177.785156 244.15625 C 178.195312 243.082031 178.550781 242.035156 178.886719 241.039062 C 179.234375 240.046875 179.550781 239.101562 179.808594 238.21875 C 180.371094 236.46875 180.785156 234.988281 181.054688 233.949219 C 181.339844 232.90625 181.5 232.3125 181.5 232.3125 C 181.5 232.3125 181.449219 232.925781 181.359375 234 C 181.28125 235.078125 181.132812 236.613281 180.898438 238.453125 C 180.796875 239.378906 180.652344 240.375 180.492188 241.425781 C 180.335938 242.480469 180.171875 243.59375 179.957031 244.738281 C 179.5625 247.03125 179.078125 249.476562 178.515625 251.902344 C 177.425781 256.765625 176.0625 261.582031 174.90625 265.167969 C 174.90625 265.171875 174.902344 265.171875 174.902344 265.175781 C 181.296875 261.773438 187.519531 259.089844 193.613281 256.585938 C 196.125 246.027344 192.414062 219.53125 187.714844 211.550781 C 182.039062 217.355469 163.441406 236.359375 155.625 245.261719 C 160.164062 254.390625 163.179688 264.222656 163.320312 272.15625 " fill-opacity="1" fill-rule="nonzero"/><path fill="#8f7650" d="M 110.945312 272.730469 C 110.945312 273.277344 110.996094 273.839844 111.027344 274.398438 C 120.785156 281.585938 127.457031 292.175781 131.699219 299.207031 L 134.667969 254.703125 L 137.890625 299.207031 C 141.792969 291.746094 148.210938 283.574219 158.382812 275.730469 C 158.480469 274.71875 158.535156 273.71875 158.535156 272.730469 C 158.535156 257.828125 146.535156 234.277344 134.738281 225.488281 C 122.945312 234.277344 110.945312 257.828125 110.945312 272.730469 " fill-opacity="1" fill-rule="nonzero"/><path fill="#8f7650" d="M 234.683594 106.132812 C 234.648438 105.871094 234.617188 105.613281 234.578125 105.34375 C 234.472656 104.226562 234.34375 103.078125 234.289062 101.90625 C 234.25 100.726562 234.160156 99.546875 234.203125 98.351562 L 234.230469 96.578125 C 234.253906 95.988281 234.3125 95.398438 234.351562 94.820312 C 234.398438 94.238281 234.429688 93.664062 234.488281 93.097656 C 234.566406 92.535156 234.648438 91.980469 234.726562 91.429688 C 234.808594 90.886719 234.867188 90.347656 234.964844 89.828125 C 235.078125 89.3125 235.1875 88.804688 235.292969 88.308594 C 235.496094 87.324219 235.707031 86.402344 235.988281 85.570312 C 236.246094 84.734375 236.464844 83.96875 236.683594 83.300781 C 236.949219 82.644531 237.179688 82.074219 237.367188 81.601562 C 237.742188 80.671875 237.953125 80.136719 237.953125 80.136719 C 237.953125 80.136719 237.847656 80.703125 237.660156 81.691406 C 237.566406 82.179688 237.453125 82.777344 237.324219 83.457031 C 237.234375 84.148438 237.167969 84.929688 237.078125 85.773438 C 236.964844 86.617188 236.9375 87.539062 236.933594 88.507812 C 236.921875 88.988281 236.910156 89.488281 236.902344 89.992188 C 236.90625 90.5 236.949219 91.019531 236.972656 91.542969 C 237 92.066406 237.027344 92.601562 237.054688 93.136719 C 237.101562 93.675781 237.179688 94.21875 237.242188 94.765625 C 237.3125 95.308594 237.363281 95.859375 237.449219 96.40625 L 237.746094 98.046875 C 237.917969 99.140625 238.214844 100.21875 238.460938 101.273438 C 238.71875 102.332031 239.042969 103.355469 239.335938 104.34375 C 239.679688 105.320312 239.960938 106.273438 240.320312 107.148438 C 240.648438 108.03125 240.980469 108.855469 241.3125 109.605469 C 241.960938 111.105469 242.570312 112.3125 243.003906 113.128906 C 243.226562 113.546875 243.398438 113.84375 243.503906 114.019531 C 243.566406 114.121094 243.984375 114.726562 244.398438 115.320312 C 248.90625 106.855469 254.667969 99.242188 260.515625 94.6875 C 255 83.132812 244.359375 64.054688 241.566406 57.320312 C 234.8125 62.535156 223.882812 80.847656 221.035156 91.914062 C 226.375 97.417969 230.925781 102.15625 234.683594 106.132812 " fill-opacity="1" fill-rule="nonzero"/><path fill="#8f7650" d="M 281.945312 112.914062 C 282.371094 112.109375 282.929688 110.988281 283.523438 109.605469 C 283.855469 108.855469 284.191406 108.03125 284.519531 107.148438 C 284.878906 106.273438 285.160156 105.320312 285.503906 104.34375 C 285.792969 103.355469 286.121094 102.332031 286.382812 101.273438 C 286.625 100.21875 286.921875 99.140625 287.089844 98.046875 L 287.390625 96.40625 C 287.476562 95.859375 287.527344 95.308594 287.597656 94.765625 C 287.65625 94.21875 287.738281 93.675781 287.78125 93.136719 C 287.8125 92.601562 287.839844 92.066406 287.867188 91.542969 C 287.890625 91.019531 287.933594 90.5 287.9375 89.992188 C 287.925781 89.488281 287.917969 88.988281 287.90625 88.507812 C 287.898438 87.539062 287.871094 86.617188 287.757812 85.773438 C 287.671875 84.929688 287.605469 84.148438 287.515625 83.457031 C 287.386719 82.777344 287.273438 82.179688 287.179688 81.691406 C 286.992188 80.703125 286.882812 80.136719 286.882812 80.136719 C 286.882812 80.136719 287.097656 80.671875 287.472656 81.601562 C 287.660156 82.074219 287.890625 82.644531 288.152344 83.300781 C 288.375 83.96875 288.59375 84.734375 288.851562 85.570312 C 289.132812 86.402344 289.34375 87.324219 289.546875 88.308594 C 289.652344 88.804688 289.761719 89.3125 289.875 89.828125 C 289.972656 90.347656 290.03125 90.886719 290.113281 91.429688 C 290.191406 91.980469 290.269531 92.535156 290.351562 93.097656 C 290.410156 93.664062 290.441406 94.238281 290.488281 94.820312 C 290.527344 95.398438 290.585938 95.988281 290.609375 96.578125 L 290.632812 98.351562 C 290.679688 99.546875 290.589844 100.726562 290.550781 101.90625 C 290.496094 103.078125 290.367188 104.226562 290.261719 105.34375 C 290.101562 106.453125 289.996094 107.539062 289.796875 108.550781 C 289.761719 108.773438 289.722656 108.980469 289.683594 109.191406 C 294.070312 104.5 299.832031 98.476562 306.972656 91.121094 C 303.828125 79.996094 293.25 62.410156 286.652344 57.320312 C 283.835938 64.113281 273.027344 83.476562 267.554688 95 C 272.707031 99.132812 277.769531 105.617188 281.945312 112.914062 " fill-opacity="1" fill-rule="nonzero"/><g clip-path="url(#4dcc994bdd)"><path fill="#8f7650" d="M 230.949219 146.640625 C 220.382812 140.03125 210.171875 135.890625 200.296875 131.890625 C 197.453125 130.738281 194.703125 129.625 191.980469 128.46875 C 194.050781 133.804688 195.3125 138.847656 196.628906 144.105469 C 198.582031 151.917969 200.601562 159.992188 205.605469 169.753906 C 214.078125 186.292969 229.171875 195.421875 249.632812 196.640625 C 243.867188 193.8125 237.105469 189.804688 231.078125 184.828125 C 229.304688 183.398438 227.617188 181.863281 226 180.316406 C 225.1875 179.542969 224.433594 178.726562 223.660156 177.949219 C 222.929688 177.136719 222.203125 176.335938 221.488281 175.546875 C 220.8125 174.726562 220.152344 173.917969 219.5 173.132812 C 218.890625 172.3125 218.292969 171.515625 217.707031 170.738281 C 216.601562 169.140625 215.578125 167.621094 214.730469 166.160156 C 213.832031 164.730469 213.171875 163.324219 212.519531 162.128906 C 211.945312 160.882812 211.421875 159.816406 211.042969 158.917969 C 210.316406 157.101562 209.902344 156.0625 209.902344 156.0625 C 209.902344 156.0625 210.417969 157.050781 211.316406 158.78125 C 211.785156 159.636719 212.40625 160.644531 213.089844 161.808594 C 213.855469 162.925781 214.636719 164.234375 215.660156 165.542969 C 216.625 166.890625 217.773438 168.273438 219 169.714844 C 219.640625 170.410156 220.296875 171.128906 220.96875 171.859375 C 221.671875 172.558594 222.390625 173.273438 223.121094 174 C 223.882812 174.691406 224.660156 175.394531 225.441406 176.101562 C 226.261719 176.777344 227.0625 177.484375 227.914062 178.148438 C 229.609375 179.476562 231.367188 180.78125 233.195312 181.976562 C 240.464844 186.851562 248.523438 190.347656 254.679688 192.410156 C 257.757812 193.457031 260.363281 194.160156 262.179688 194.601562 C 262.480469 194.675781 264.453125 167.59375 230.949219 146.640625 " fill-opacity="1" fill-rule="nonzero"/></g><g clip-path="url(#a6858d36ff)"><path fill="#8f7650" d="M 266.230469 194.175781 C 267.847656 193.746094 269.828125 193.171875 272.066406 192.410156 C 278.222656 190.347656 286.28125 186.851562 293.550781 181.976562 C 295.378906 180.78125 297.136719 179.476562 298.835938 178.148438 C 299.6875 177.484375 300.484375 176.777344 301.304688 176.101562 C 302.085938 175.394531 302.863281 174.691406 303.625 174 C 304.355469 173.273438 305.074219 172.558594 305.777344 171.859375 C 306.449219 171.128906 307.105469 170.410156 307.746094 169.714844 C 308.972656 168.273438 310.121094 166.890625 311.089844 165.542969 C 312.109375 164.234375 312.890625 162.925781 313.65625 161.808594 C 314.339844 160.644531 314.964844 159.636719 315.429688 158.78125 C 316.328125 157.050781 316.84375 156.0625 316.84375 156.0625 C 316.84375 156.0625 316.429688 157.101562 315.707031 158.917969 C 315.324219 159.816406 314.800781 160.882812 314.230469 162.128906 C 313.574219 163.324219 312.914062 164.730469 312.015625 166.160156 C 311.167969 167.621094 310.148438 169.140625 309.039062 170.738281 C 308.453125 171.515625 307.855469 172.3125 307.246094 173.132812 C 306.597656 173.917969 305.933594 174.726562 305.257812 175.546875 C 304.542969 176.335938 303.816406 177.136719 303.085938 177.949219 C 302.3125 178.726562 301.558594 179.542969 300.746094 180.316406 C 299.132812 181.863281 297.445312 183.398438 295.667969 184.828125 C 289.546875 189.882812 282.660156 193.945312 276.839844 196.777344 C 298.832031 196.308594 314.984375 187.097656 323.871094 169.753906 C 328.871094 159.992188 330.890625 151.917969 332.847656 144.105469 C 334.160156 138.847656 335.425781 133.804688 337.492188 128.46875 C 334.773438 129.625 332.019531 130.738281 329.179688 131.890625 C 319.304688 135.890625 309.09375 140.03125 298.527344 146.640625 C 268.699219 165.296875 265.550781 186.433594 266.230469 194.175781 " fill-opacity="1" fill-rule="nonzero"/></g><g clip-path="url(#06fb4773b5)"><path fill="#8f7650" d="M 252.964844 74.707031 C 255.722656 79.96875 258.519531 85.300781 260.828125 89.9375 L 263.835938 57.425781 L 266.925781 90.878906 C 269.320312 86.03125 272.300781 80.339844 275.25 74.71875 C 277.125 71.144531 278.949219 67.667969 280.507812 64.617188 C 276.773438 54.628906 270.347656 45.394531 263.835938 37.816406 C 257.03125 45.539062 250.921875 54.324219 247.304688 63.820312 C 248.949219 67.050781 250.925781 70.820312 252.964844 74.707031 " fill-opacity="1" fill-rule="nonzero"/></g><path fill="#8f7650" d="M 204.253906 128.386719 C 210.613281 130.972656 217.113281 133.699219 223.796875 137.152344 C 222.703125 133.664062 221.457031 129.210938 220.445312 124.703125 C 219.882812 122.273438 219.398438 119.832031 219.003906 117.539062 C 218.789062 116.394531 218.625 115.28125 218.46875 114.226562 C 218.308594 113.175781 218.164062 112.179688 218.0625 111.253906 C 217.828125 109.414062 217.683594 107.878906 217.601562 106.800781 C 217.511719 105.726562 217.460938 105.113281 217.460938 105.113281 C 217.460938 105.113281 217.621094 105.707031 217.90625 106.746094 C 218.175781 107.789062 218.589844 109.269531 219.152344 111.019531 C 219.410156 111.902344 219.726562 112.84375 220.074219 113.839844 C 220.410156 114.835938 220.765625 115.882812 221.175781 116.957031 C 221.964844 119.105469 222.863281 121.375 223.828125 123.613281 C 225.734375 128.09375 227.875 132.457031 229.585938 135.648438 C 230.433594 137.25 231.179688 138.558594 231.699219 139.460938 C 232.011719 139.988281 232.84375 141.496094 233.460938 142.625 C 233.460938 142.625 233.460938 142.625 233.464844 142.628906 C 234.109375 143.03125 234.734375 143.4375 235.359375 143.847656 C 235.738281 136.242188 238.597656 127.066406 242.8125 118.480469 C 235.238281 109.78125 216.128906 90.246094 210.359375 84.351562 C 205.800781 92.089844 202.175781 117.242188 204.253906 128.386719 " fill-opacity="1" fill-rule="nonzero"/><path fill="#8f7650" d="M 292.484375 144.957031 C 292.910156 144.667969 293.328125 144.375 293.765625 144.085938 C 294.742188 142.378906 296.101562 140.011719 296.429688 139.460938 C 296.949219 138.558594 297.691406 137.25 298.539062 135.648438 C 300.25 132.457031 302.394531 128.09375 304.300781 123.613281 C 305.265625 121.375 306.160156 119.105469 306.949219 116.957031 C 307.359375 115.882812 307.71875 114.835938 308.054688 113.839844 C 308.398438 112.84375 308.71875 111.902344 308.976562 111.019531 C 309.539062 109.269531 309.953125 107.789062 310.222656 106.746094 C 310.503906 105.707031 310.667969 105.113281 310.667969 105.113281 C 310.667969 105.113281 310.617188 105.726562 310.523438 106.800781 C 310.445312 107.878906 310.300781 109.414062 310.0625 111.253906 C 309.964844 112.179688 309.820312 113.175781 309.65625 114.226562 C 309.503906 115.28125 309.335938 116.394531 309.125 117.539062 C 308.726562 119.832031 308.242188 122.273438 307.683594 124.703125 C 306.589844 129.566406 305.226562 134.378906 304.074219 137.96875 C 304.070312 137.96875 304.070312 137.972656 304.070312 137.976562 C 310.464844 134.574219 316.6875 131.890625 322.78125 129.386719 C 325.289062 118.828125 321.582031 92.328125 316.882812 84.351562 C 311.207031 90.152344 292.609375 109.160156 284.792969 118.0625 C 289.332031 127.191406 292.347656 137.023438 292.484375 144.957031 " fill-opacity="1" fill-rule="nonzero"/><path fill="#8f7650" d="M 240.113281 145.53125 C 240.113281 146.078125 240.160156 146.640625 240.191406 147.199219 C 249.949219 154.382812 256.621094 164.976562 260.863281 172.007812 L 263.835938 127.503906 L 267.054688 172.007812 C 270.960938 164.546875 277.375 156.375 287.546875 148.527344 C 287.648438 147.519531 287.699219 146.515625 287.699219 145.53125 C 287.699219 130.625 275.703125 107.078125 263.90625 98.289062 C 252.109375 107.078125 240.113281 130.625 240.113281 145.53125 " fill-opacity="1" fill-rule="nonzero"/></svg>