<svg xmlns="http://www.w3.org/2000/svg" xmlns:xlink="http://www.w3.org/1999/xlink" width="1640" zoomAndPan="magnify" viewBox="0 0 1230 693.000001" height="924" preserveAspectRatio="xMidYMid meet" version="1.0"><defs><g/><clipPath id="f4a056a2f2"><path d="M 0.886719 204 L 148 204 L 148 443 L 0.886719 443 Z M 0.886719 204 " clip-rule="nonzero"/></clipPath></defs><g clip-path="url(#f4a056a2f2)"><g fill="#fbf7ef" fill-opacity="1"><g transform="translate(1.120204, 442.779323)"><g><path d="M 48.253906 0 C 51.722656 0 53.929688 -2.523438 53.929688 -5.992188 L 53.929688 -6.625 C 52.355469 -32.800781 51.722656 -58.347656 51.722656 -84.523438 C 64.023438 -77.269531 68.125 -72.539062 135.617188 -13.5625 C 136.5625 -12.617188 138.136719 -11.984375 140.03125 -11.984375 C 141.921875 -11.984375 143.5 -12.617188 144.761719 -14.191406 C 145.707031 -15.769531 146.339844 -17.03125 146.339844 -18.292969 C 146.339844 -19.871094 145.707031 -21.445312 144.132812 -23.023438 C 77.269531 -82.316406 70.332031 -88.308594 55.507812 -96.824219 C 113.222656 -127.414062 138.769531 -159.898438 138.769531 -184.816406 C 138.769531 -210.046875 113.855469 -226.761719 70.644531 -226.761719 L 65.285156 -226.761719 C 63.707031 -226.761719 61.816406 -226.761719 60.238281 -226.445312 L 60.871094 -231.492188 C 61.183594 -235.277344 58.660156 -238.429688 54.878906 -238.429688 C 51.40625 -238.429688 49.199219 -236.222656 48.253906 -232.753906 L 47.308594 -225.183594 C 37.53125 -223.921875 28.699219 -221.714844 19.554688 -218.878906 C 16.714844 -217.929688 15.136719 -215.40625 15.136719 -212.886719 C 15.136719 -211.9375 15.136719 -211.308594 15.453125 -210.992188 C 16.085938 -208.152344 17.976562 -206.578125 21.445312 -206.578125 C 22.390625 -206.578125 23.023438 -206.578125 23.339844 -206.890625 C 30.59375 -209.101562 38.160156 -210.992188 46.046875 -212.253906 C 42.261719 -176.300781 40.054688 -140.03125 39.421875 -103.761719 C 33.746094 -105.339844 28.070312 -105.96875 22.390625 -105.96875 C 4.414062 -105.96875 -8.515625 -97.769531 -11.984375 -89.882812 C -12.617188 -88.308594 -12.929688 -86.730469 -12.929688 -85.46875 C -12.929688 -79.476562 -8.199219 -74.117188 0.316406 -74.117188 C 3.152344 -74.117188 6.308594 -74.429688 9.777344 -76.007812 C 20.183594 -80.109375 29.960938 -83.890625 39.109375 -88.625 C 39.109375 -60.871094 39.421875 -33.429688 41.628906 -5.675781 C 41.628906 -2.207031 44.152344 0 47.625 0 Z M 52.039062 -109.4375 C 52.984375 -144.445312 55.191406 -178.824219 58.976562 -213.832031 C 60.871094 -214.144531 62.761719 -214.144531 64.652344 -214.144531 L 70.644531 -214.144531 C 95.878906 -214.144531 125.839844 -208.152344 125.839844 -183.871094 C 125.839844 -153.90625 78.53125 -123.316406 52.039062 -109.4375 Z M 0.628906 -86.414062 C 2.839844 -88.625 9.144531 -92.40625 18.921875 -93.355469 C 4.730469 -86.730469 2.207031 -86.414062 0.628906 -86.414062 Z M 0.628906 -86.414062 "/></g></g></g></g><g fill="#fbf7ef" fill-opacity="1"><g transform="translate(147.458559, 442.779323)"><g><path d="M -0.945312 -44.785156 C 1.890625 -42.890625 5.046875 -41.945312 8.515625 -41.945312 C 20.183594 -41.945312 33.746094 -55.507812 41 -67.175781 C 40.054688 -52.355469 46.992188 -41.945312 58.03125 -41.945312 C 70.644531 -41.945312 88.9375 -55.507812 109.125 -92.40625 C 109.4375 -93.667969 109.753906 -94.617188 109.753906 -95.246094 C 109.753906 -97.769531 108.492188 -99.660156 106.285156 -100.921875 C 105.652344 -101.238281 104.707031 -101.554688 103.445312 -101.554688 C 100.921875 -101.554688 99.03125 -100.609375 97.769531 -98.398438 C 87.675781 -78.214844 69.070312 -54.878906 59.921875 -54.878906 C 56.453125 -54.878906 54.5625 -57.714844 54.5625 -66.230469 C 54.5625 -70.332031 54.878906 -75.378906 56.136719 -81.683594 C 57.085938 -88.308594 58.347656 -94.929688 60.554688 -100.921875 C 62.128906 -105.652344 59.292969 -109.753906 54.5625 -109.753906 C 52.355469 -109.753906 50.460938 -108.492188 48.882812 -105.96875 C 41.316406 -91.460938 29.015625 -67.492188 16.085938 -58.03125 C 13.246094 -55.824219 11.039062 -54.878906 8.832031 -54.878906 C 5.363281 -54.878906 3.785156 -57.398438 3.785156 -62.761719 C 3.785156 -79.160156 22.390625 -115.746094 56.136719 -115.746094 C 59.609375 -115.746094 62.445312 -118.585938 62.445312 -122.054688 C 62.445312 -125.523438 59.609375 -128.363281 56.136719 -128.363281 C 16.714844 -128.363281 -8.515625 -88.308594 -8.515625 -62.761719 C -8.515625 -54.878906 -5.992188 -48.253906 -0.945312 -44.785156 Z M -0.945312 -44.785156 "/></g></g></g><g fill="#fbf7ef" fill-opacity="1"><g transform="translate(241.758496, 442.779323)"><g><path d="M 7.882812 -44.152344 C 10.722656 -42.578125 13.5625 -41.628906 16.398438 -41.628906 C 35.953125 -41.628906 56.769531 -73.800781 66.863281 -92.40625 C 67.175781 -93.667969 67.492188 -94.617188 67.492188 -95.246094 C 67.492188 -97.453125 66.546875 -99.347656 64.339844 -100.921875 C 63.078125 -101.238281 62.128906 -101.554688 61.5 -101.554688 C 58.976562 -101.554688 57.085938 -100.609375 55.507812 -98.398438 C 42.578125 -75.378906 26.175781 -54.5625 16.714844 -54.5625 C 15.769531 -54.5625 15.136719 -54.878906 14.191406 -55.191406 C 11.984375 -56.453125 11.039062 -59.609375 11.039062 -64.96875 C 11.039062 -81.054688 20.816406 -111.644531 23.339844 -119.847656 C 24.285156 -123.316406 22.390625 -126.785156 18.921875 -127.730469 C 15.453125 -128.675781 11.984375 -126.46875 11.039062 -123 C 5.992188 -104.390625 -1.261719 -82.316406 -1.261719 -65.601562 C -1.261719 -55.824219 1.261719 -48.253906 7.882812 -44.152344 Z M 25.546875 -145.390625 C 28.699219 -145.390625 30.59375 -146.96875 31.539062 -149.808594 L 34.378906 -159.269531 C 35.636719 -164 31.855469 -167.152344 28.070312 -167.152344 C 25.546875 -167.152344 23.023438 -165.890625 22.078125 -162.421875 L 20.816406 -158.007812 L 19.554688 -153.277344 C 18.609375 -149.492188 20.816406 -145.390625 25.546875 -145.390625 Z M 25.546875 -145.390625 "/></g></g></g><g fill="#fbf7ef" fill-opacity="1"><g transform="translate(294.112269, 442.779323)"><g><path d="M -8.515625 -46.992188 C -9.144531 -45.414062 -9.460938 -43.839844 -9.460938 -42.261719 C -9.460938 -34.378906 -2.523438 -29.644531 5.363281 -29.644531 C 15.769531 -29.644531 27.753906 -37.53125 27.753906 -58.660156 L 27.753906 -61.183594 C 27.753906 -62.128906 27.753906 -63.078125 27.4375 -64.023438 C 42.261719 -75.0625 57.085938 -84.207031 74.746094 -90.199219 C 77.585938 -91.144531 79.160156 -93.355469 79.160156 -96.191406 C 79.160156 -97.136719 79.160156 -98.085938 78.847656 -98.398438 C 77.898438 -100.921875 75.691406 -102.5 73.167969 -102.5 C 72.222656 -102.5 71.277344 -102.5 70.960938 -102.183594 C 53.617188 -96.191406 39.109375 -87.675781 24.914062 -77.585938 C 22.390625 -87.675781 14.824219 -103.761719 14.824219 -114.800781 C 14.824219 -118.585938 15.769531 -121.421875 17.347656 -123 C 18.292969 -123.945312 20.183594 -126.152344 23.652344 -126.152344 C 25.863281 -126.152344 28.382812 -125.523438 31.222656 -123.945312 C 32.484375 -123.632812 33.429688 -123.316406 34.0625 -123.316406 C 36.269531 -123.316406 38.160156 -124.261719 39.738281 -126.46875 C 40.371094 -127.414062 40.683594 -128.363281 40.683594 -129.625 C 40.683594 -132.144531 39.421875 -134.039062 37.214844 -134.984375 C 32.800781 -137.507812 28.382812 -138.769531 23.652344 -138.769531 C 11.984375 -138.769531 2.207031 -129.9375 2.207031 -113.855469 C 2.207031 -111.644531 2.523438 -109.753906 2.839844 -107.230469 C 5.363281 -93.039062 11.355469 -83.578125 14.191406 -69.382812 C -1.890625 -57.085938 -6.308594 -52.984375 -8.515625 -46.992188 Z M 3.152344 -42.578125 C 4.101562 -44.785156 7.570312 -47.9375 14.824219 -53.929688 C 13.246094 -42.261719 5.363281 -41 3.152344 -42.578125 Z M 3.152344 -42.578125 "/></g></g></g><g fill="#fbf7ef" fill-opacity="1"><g transform="translate(359.712231, 442.779323)"><g><path d="M 33.117188 -41.945312 C 53.617188 -41.945312 78.847656 -53.617188 102.5 -92.40625 C 103.132812 -93.355469 103.445312 -94.300781 103.445312 -95.5625 C 103.445312 -98.398438 102.5 -99.976562 100.292969 -100.921875 C 99.347656 -101.554688 98.085938 -101.871094 97.136719 -101.871094 C 94.929688 -101.871094 93.039062 -100.921875 91.777344 -99.03125 C 80.738281 -80.421875 68.753906 -68.125 56.136719 -60.871094 C 48.882812 -57.085938 40.371094 -54.5625 31.855469 -54.5625 C 20.183594 -54.5625 10.09375 -59.609375 10.09375 -73.167969 C 10.09375 -74.746094 10.40625 -76.324219 10.722656 -78.53125 C 31.855469 -80.109375 56.769531 -95.5625 56.769531 -112.277344 C 56.769531 -121.421875 49.832031 -128.675781 39.738281 -128.675781 C 33.429688 -128.675781 25.863281 -125.839844 17.976562 -118.269531 C 5.675781 -106.601562 -2.207031 -88.625 -2.207031 -73.167969 C -2.207031 -56.453125 7.570312 -41.945312 33.117188 -41.945312 Z M 15.136719 -92.09375 C 23.652344 -109.753906 34.0625 -116.0625 40.054688 -116.0625 C 42.261719 -116.0625 43.523438 -115.429688 43.839844 -113.855469 C 45.414062 -106.601562 30.59375 -94.617188 15.136719 -92.09375 Z M 15.136719 -92.09375 "/></g></g></g><g fill="#fbf7ef" fill-opacity="1"><g transform="translate(447.389108, 442.779323)"><g/></g></g><g fill="#fbf7ef" fill-opacity="1"><g transform="translate(510.465947, 442.779323)"><g><path d="M 12.617188 -40.371094 C 16.085938 -40.371094 18.609375 -43.523438 18.609375 -46.992188 C 17.660156 -64.339844 17.347656 -80.738281 17.347656 -96.824219 C 17.347656 -134.984375 19.554688 -170.625 24.285156 -205.632812 L 97.769531 -207.523438 C 101.238281 -207.523438 104.078125 -210.363281 104.078125 -213.832031 C 104.078125 -217.300781 101.238281 -220.136719 97.453125 -220.136719 L 25.863281 -218.246094 C 28.070312 -232.125 30.59375 -245.683594 33.117188 -259.246094 C 34.0625 -263.03125 31.222656 -266.816406 27.125 -266.816406 C 23.96875 -266.816406 21.761719 -265.238281 20.816406 -261.769531 C 17.976562 -247.578125 15.453125 -233.070312 13.246094 -218.246094 L -44.46875 -216.355469 C -47.9375 -216.355469 -50.460938 -214.144531 -50.460938 -210.675781 L -50.460938 -210.046875 C -50.460938 -206.578125 -47.625 -203.738281 -44.152344 -203.738281 L 11.355469 -205.316406 C 6.9375 -170.625 4.730469 -134.355469 4.730469 -96.824219 C 4.730469 -80.421875 5.046875 -64.023438 5.992188 -46.363281 C 5.992188 -42.890625 8.832031 -40.371094 12.300781 -40.371094 Z M 12.617188 -40.371094 "/></g></g></g><g fill="#fbf7ef" fill-opacity="1"><g transform="translate(569.758194, 442.779323)"><g><path d="M 11.984375 -45.101562 C 23.023438 -67.175781 44.46875 -116.0625 56.769531 -116.0625 C 60.238281 -116.0625 62.445312 -112.59375 64.652344 -103.761719 C 71.90625 -69.699219 85.152344 -53.617188 101.554688 -53.617188 C 116.378906 -53.617188 133.722656 -66.863281 150.4375 -92.09375 C 151.070312 -93.039062 151.382812 -93.984375 151.382812 -95.246094 C 151.382812 -97.453125 150.4375 -99.347656 148.546875 -100.609375 C 147.601562 -101.238281 146.339844 -101.554688 145.078125 -101.554688 C 142.871094 -101.554688 140.976562 -101.238281 139.714844 -99.03125 C 127.730469 -81.371094 111.015625 -64.023438 98.714844 -66.546875 C 94.929688 -67.175781 91.144531 -70.015625 87.675781 -75.378906 C 74.429688 -96.191406 80.109375 -123.945312 60.238281 -128.046875 C 59.292969 -128.363281 58.03125 -128.363281 56.136719 -128.363281 C 38.792969 -128.363281 24.601562 -99.347656 14.507812 -78.53125 C 17.03125 -128.046875 18.609375 -183.871094 25.230469 -218.878906 C 26.175781 -222.347656 23.652344 -225.5 20.183594 -226.445312 C 16.714844 -226.761719 13.875 -224.554688 12.929688 -221.085938 C 5.363281 -177.246094 3.46875 -105.023438 0 -48.570312 C -0.316406 -44.46875 3.152344 -41.945312 6.625 -41.945312 C 8.832031 -41.945312 10.722656 -42.890625 11.984375 -45.101562 Z M 11.984375 -45.101562 "/></g></g></g><g fill="#fbf7ef" fill-opacity="1"><g transform="translate(705.68887, 442.779323)"><g><path d="M 33.117188 -41.945312 C 53.617188 -41.945312 78.847656 -53.617188 102.5 -92.40625 C 103.132812 -93.355469 103.445312 -94.300781 103.445312 -95.5625 C 103.445312 -98.398438 102.5 -99.976562 100.292969 -100.921875 C 99.347656 -101.554688 98.085938 -101.871094 97.136719 -101.871094 C 94.929688 -101.871094 93.039062 -100.921875 91.777344 -99.03125 C 80.738281 -80.421875 68.753906 -68.125 56.136719 -60.871094 C 48.882812 -57.085938 40.371094 -54.5625 31.855469 -54.5625 C 20.183594 -54.5625 10.09375 -59.609375 10.09375 -73.167969 C 10.09375 -74.746094 10.40625 -76.324219 10.722656 -78.53125 C 31.855469 -80.109375 56.769531 -95.5625 56.769531 -112.277344 C 56.769531 -121.421875 49.832031 -128.675781 39.738281 -128.675781 C 33.429688 -128.675781 25.863281 -125.839844 17.976562 -118.269531 C 5.675781 -106.601562 -2.207031 -88.625 -2.207031 -73.167969 C -2.207031 -56.453125 7.570312 -41.945312 33.117188 -41.945312 Z M 15.136719 -92.09375 C 23.652344 -109.753906 34.0625 -116.0625 40.054688 -116.0625 C 42.261719 -116.0625 43.523438 -115.429688 43.839844 -113.855469 C 45.414062 -106.601562 30.59375 -94.617188 15.136719 -92.09375 Z M 15.136719 -92.09375 "/></g></g></g><g fill="#fbf7ef" fill-opacity="1"><g transform="translate(793.365724, 442.779323)"><g/></g></g><g fill="#fbf7ef" fill-opacity="1"><g transform="translate(856.442518, 442.779323)"><g><path d="M 6.9375 -19.871094 C 10.40625 -19.871094 12.929688 -23.023438 12.929688 -26.492188 C 12.929688 -31.855469 12.617188 -37.53125 12.617188 -42.890625 C 12.617188 -50.777344 12.929688 -58.347656 13.246094 -66.230469 C 15.769531 -94.929688 47.308594 -116.378906 60.871094 -116.378906 C 63.078125 -116.378906 64.96875 -115.746094 65.914062 -114.484375 C 67.175781 -112.90625 67.808594 -110.699219 67.808594 -108.175781 C 67.808594 -102.816406 65.601562 -95.878906 64.339844 -92.09375 C 26.808594 -77.898438 13.875 -59.609375 13.875 -48.253906 C 13.875 -41 18.921875 -36.269531 26.492188 -36.269531 C 37.847656 -36.269531 56.769531 -47.9375 67.808594 -69.070312 C 70.332031 -73.800781 71.90625 -78.214844 74.117188 -82.316406 C 87.675781 -87.046875 99.976562 -89.253906 111.644531 -89.253906 C 115.117188 -89.253906 117.953125 -92.09375 117.953125 -95.5625 C 117.953125 -99.03125 115.117188 -101.871094 111.644531 -101.871094 C 101.238281 -101.871094 90.199219 -100.292969 78.847656 -97.136719 C 79.792969 -101.238281 80.421875 -104.707031 80.421875 -108.175781 C 80.421875 -121.738281 72.222656 -128.675781 61.183594 -128.675781 C 52.039062 -128.675781 40.683594 -124.261719 29.332031 -115.429688 C 38.476562 -130.253906 46.046875 -146.023438 52.039062 -163.054688 C 59.292969 -183.238281 61.816406 -197.117188 61.816406 -207.207031 C 61.816406 -221.398438 56.136719 -226.761719 50.144531 -226.761719 C 46.046875 -226.761719 42.261719 -225.183594 39.421875 -221.714844 C 30.277344 -211.9375 19.871094 -186.390625 12.300781 -154.855469 C 4.414062 -121.738281 0 -84.207031 0 -44.152344 L 0 -35.007812 C 0 -32.167969 0 -29.015625 0.316406 -25.863281 C 0.316406 -22.390625 3.152344 -19.871094 6.625 -19.871094 Z M 18.609375 -122.371094 C 25.230469 -165.261719 39.421875 -203.738281 48.882812 -213.199219 C 49.199219 -211.625 49.515625 -209.730469 49.515625 -207.207031 C 49.515625 -190.492188 38.160156 -153.59375 18.609375 -122.371094 Z M 26.492188 -48.570312 C 24.601562 -50.460938 32.484375 -62.445312 56.769531 -75.0625 C 47.308594 -57.085938 32.167969 -49.515625 26.492188 -48.570312 Z M 26.492188 -48.570312 "/></g></g></g><g fill="#fbf7ef" fill-opacity="1"><g transform="translate(961.150155, 442.779323)"><g><path d="M -0.945312 -44.785156 C 1.890625 -42.890625 5.046875 -41.945312 8.515625 -41.945312 C 20.183594 -41.945312 33.746094 -55.507812 41 -67.175781 C 40.054688 -52.355469 46.992188 -41.945312 58.03125 -41.945312 C 70.644531 -41.945312 88.9375 -55.507812 109.125 -92.40625 C 109.4375 -93.667969 109.753906 -94.617188 109.753906 -95.246094 C 109.753906 -97.769531 108.492188 -99.660156 106.285156 -100.921875 C 105.652344 -101.238281 104.707031 -101.554688 103.445312 -101.554688 C 100.921875 -101.554688 99.03125 -100.609375 97.769531 -98.398438 C 87.675781 -78.214844 69.070312 -54.878906 59.921875 -54.878906 C 56.453125 -54.878906 54.5625 -57.714844 54.5625 -66.230469 C 54.5625 -70.332031 54.878906 -75.378906 56.136719 -81.683594 C 57.085938 -88.308594 58.347656 -94.929688 60.554688 -100.921875 C 62.128906 -105.652344 59.292969 -109.753906 54.5625 -109.753906 C 52.355469 -109.753906 50.460938 -108.492188 48.882812 -105.96875 C 41.316406 -91.460938 29.015625 -67.492188 16.085938 -58.03125 C 13.246094 -55.824219 11.039062 -54.878906 8.832031 -54.878906 C 5.363281 -54.878906 3.785156 -57.398438 3.785156 -62.761719 C 3.785156 -79.160156 22.390625 -115.746094 56.136719 -115.746094 C 59.609375 -115.746094 62.445312 -118.585938 62.445312 -122.054688 C 62.445312 -125.523438 59.609375 -128.363281 56.136719 -128.363281 C 16.714844 -128.363281 -8.515625 -88.308594 -8.515625 -62.761719 C -8.515625 -54.878906 -5.992188 -48.253906 -0.945312 -44.785156 Z M -0.945312 -44.785156 "/></g></g></g><g fill="#fbf7ef" fill-opacity="1"><g transform="translate(1055.450081, 442.779323)"><g><path d="M 6.308594 -44.46875 C 9.777344 -44.46875 12.617188 -46.992188 12.617188 -50.460938 C 14.191406 -84.207031 46.992188 -121.421875 63.390625 -118.269531 C 66.863281 -117.324219 69.699219 -119.53125 70.644531 -123 C 71.59375 -126.46875 69.382812 -129.625 65.914062 -130.570312 C 63.707031 -130.882812 62.128906 -131.199219 60.871094 -131.199219 C 43.207031 -131.199219 24.601562 -110.699219 15.453125 -95.5625 C 16.398438 -104.707031 16.714844 -114.167969 16.714844 -123.945312 C 16.714844 -127.414062 13.875 -130.253906 10.40625 -130.253906 C 6.9375 -130.253906 4.101562 -127.414062 4.101562 -123.945312 C 3.785156 -99.976562 0.316406 -75.691406 0 -50.777344 C 0 -47.308594 2.839844 -44.785156 6.308594 -44.46875 Z M 6.308594 -44.46875 "/></g></g></g><g fill="#fbf7ef" fill-opacity="1"><g transform="translate(1128.303873, 442.779323)"><g/></g></g><g fill="#fbf7ef" fill-opacity="1"><g transform="translate(1191.380758, 442.779323)"><g><path d="M 18.921875 -51.09375 C 22.390625 -51.09375 25.230469 -53.617188 25.230469 -57.085938 L 28.382812 -221.085938 C 28.382812 -224.871094 25.863281 -227.707031 22.390625 -227.707031 C 18.921875 -227.707031 15.769531 -224.871094 15.769531 -221.398438 L 12.617188 -57.398438 C 12.617188 -53.929688 15.136719 -51.09375 18.609375 -51.09375 Z M 17.347656 0 C 22.078125 0 25.230469 -3.152344 25.230469 -7.882812 C 25.230469 -12.617188 22.078125 -15.769531 17.347656 -15.769531 C 12.617188 -15.769531 9.460938 -12.617188 9.460938 -7.882812 C 9.460938 -3.152344 12.617188 0 17.347656 0 Z M 17.347656 -7.570312 L 17.03125 -7.882812 L 17.347656 -8.199219 L 17.660156 -7.882812 Z M 17.347656 -7.570312 "/></g></g></g></svg>