<svg xmlns="http://www.w3.org/2000/svg" xmlns:xlink="http://www.w3.org/1999/xlink" width="1640" zoomAndPan="magnify" viewBox="0 0 1230 693.000001" height="924" preserveAspectRatio="xMidYMid meet" version="1.0"><defs><g/></defs><g fill="#fbf7ef" fill-opacity="1"><g transform="translate(0.886166, 488.673135)"><g><path d="M 226.40625 -73.6875 L 333.4375 -316.96875 L 425.65625 -316.96875 L 425.65625 -301.328125 C 416.875 -301.054688 409.804688 -299.957031 404.453125 -298.03125 C 399.097656 -296.113281 394.976562 -292.890625 392.09375 -288.359375 C 389.21875 -283.835938 387.300781 -277.597656 386.34375 -269.640625 C 385.382812 -261.679688 384.90625 -251.523438 384.90625 -239.171875 L 384.90625 -77.796875 C 384.90625 -64.078125 385.453125 -53.238281 386.546875 -45.28125 C 387.640625 -37.320312 389.765625 -31.144531 392.921875 -26.75 C 396.078125 -22.363281 400.601562 -19.484375 406.5 -18.109375 C 412.40625 -16.734375 420.160156 -15.910156 429.765625 -15.640625 L 429.765625 0 L 296.390625 0 L 296.390625 -15.640625 C 305.992188 -15.910156 313.742188 -16.800781 319.640625 -18.3125 C 325.546875 -19.820312 330.144531 -22.632812 333.4375 -26.75 C 336.726562 -30.875 338.921875 -36.707031 340.015625 -44.25 C 341.117188 -51.800781 341.671875 -62.023438 341.671875 -74.921875 L 341.671875 -265.9375 L 337.5625 -265.9375 L 217.359375 4.109375 L 208.296875 4.109375 L 90.15625 -265.9375 L 88.5 -265.9375 L 88.5 -77.796875 C 88.5 -64.078125 89.046875 -53.238281 90.140625 -45.28125 C 91.242188 -37.320312 93.375 -31.144531 96.53125 -26.75 C 99.6875 -22.363281 104.210938 -19.484375 110.109375 -18.109375 C 116.015625 -16.734375 123.769531 -15.910156 133.375 -15.640625 L 133.375 0 L 18.53125 0 L 18.53125 -15.640625 C 28.132812 -15.910156 35.882812 -16.800781 41.78125 -18.3125 C 47.6875 -19.820312 52.285156 -22.632812 55.578125 -26.75 C 58.867188 -30.875 61.0625 -36.707031 62.15625 -44.25 C 63.257812 -51.800781 63.8125 -62.023438 63.8125 -74.921875 L 63.8125 -242.046875 C 63.8125 -253.578125 63.328125 -263.113281 62.359375 -270.65625 C 61.398438 -278.207031 59.476562 -284.175781 56.59375 -288.5625 C 53.71875 -292.957031 49.535156 -296.046875 44.046875 -297.828125 C 38.554688 -299.617188 31.421875 -300.785156 22.640625 -301.328125 L 22.640625 -316.96875 L 121.03125 -316.96875 L 224.765625 -73.6875 Z M 226.40625 -73.6875 "/></g></g></g><g fill="#fbf7ef" fill-opacity="1"><g transform="translate(449.584216, 488.673135)"><g><path d="M 143.671875 -121.84375 C 128.023438 -115.8125 114.78125 -109.910156 103.9375 -104.140625 C 93.101562 -98.378906 84.390625 -92.617188 77.796875 -86.859375 C 71.210938 -81.097656 66.476562 -75.332031 63.59375 -69.5625 C 60.71875 -63.800781 59.28125 -57.90625 59.28125 -51.875 C 59.28125 -42.8125 62.296875 -35.398438 68.328125 -29.640625 C 74.367188 -23.878906 82.332031 -21 92.21875 -21 C 99.34375 -21 105.992188 -22.78125 112.171875 -26.34375 C 118.347656 -29.914062 123.769531 -34.785156 128.4375 -40.953125 C 133.101562 -47.128906 136.804688 -54.398438 139.546875 -62.765625 C 142.296875 -71.140625 143.671875 -79.992188 143.671875 -89.328125 Z M 143.671875 -139.546875 L 143.671875 -156.421875 C 143.671875 -189.910156 129.398438 -206.65625 100.859375 -206.65625 C 96.191406 -206.65625 92.210938 -206.242188 88.921875 -205.421875 C 85.628906 -204.597656 82.882812 -203.222656 80.6875 -201.296875 C 78.488281 -199.378906 76.5 -196.632812 74.71875 -193.0625 C 72.9375 -189.5 71.21875 -185.109375 69.5625 -179.890625 C 66.550781 -171.929688 63.601562 -166.648438 60.71875 -164.046875 C 57.832031 -161.441406 53.644531 -160.140625 48.15625 -160.140625 C 34.4375 -160.140625 27.578125 -167 27.578125 -180.71875 C 27.578125 -193.882812 34.570312 -204.101562 48.5625 -211.375 C 62.5625 -218.65625 82.460938 -222.296875 108.265625 -222.296875 C 135.710938 -222.296875 155.195312 -217.421875 166.71875 -207.671875 C 178.25 -197.929688 184.015625 -181.398438 184.015625 -158.078125 L 184.015625 -65.859375 C 184.015625 -34.578125 190.1875 -18.9375 202.53125 -18.9375 C 206.375 -18.9375 210.078125 -19.414062 213.640625 -20.375 C 217.210938 -21.332031 220.234375 -23.875 222.703125 -28 L 228.46875 -18.109375 C 225.175781 -11.796875 219.140625 -6.515625 210.359375 -2.265625 C 201.578125 1.984375 192.382812 4.109375 182.78125 4.109375 C 170.695312 4.109375 161.707031 0.269531 155.8125 -7.40625 C 149.914062 -15.09375 146.96875 -25.9375 146.96875 -39.9375 L 144.90625 -39.9375 C 137.769531 -26.488281 127.890625 -15.851562 115.265625 -8.03125 C 102.640625 -0.207031 88.644531 3.703125 73.28125 3.703125 C 55.988281 3.703125 42.398438 -0.6875 32.515625 -9.46875 C 22.640625 -18.25 17.703125 -30.050781 17.703125 -44.875 C 17.703125 -51.457031 18.867188 -57.765625 21.203125 -63.796875 C 23.535156 -69.835938 27.304688 -75.601562 32.515625 -81.09375 C 37.734375 -86.582031 44.59375 -92.003906 53.09375 -97.359375 C 61.601562 -102.710938 72.035156 -108.128906 84.390625 -113.609375 Z M 143.671875 -139.546875 "/></g></g></g><g fill="#fbf7ef" fill-opacity="1"><g transform="translate(677.638013, 488.673135)"><g><path d="M 86.03125 -64.21875 C 86.03125 -53.789062 86.441406 -45.421875 87.265625 -39.109375 C 88.085938 -32.796875 89.800781 -27.851562 92.40625 -24.28125 C 95.019531 -20.71875 98.726562 -18.25 103.53125 -16.875 C 108.332031 -15.5 114.710938 -14.675781 122.671875 -14.40625 L 122.671875 0 L 9.0625 0 L 9.0625 -14.40625 C 17.289062 -14.675781 23.875 -15.566406 28.8125 -17.078125 C 33.75 -18.585938 37.660156 -20.988281 40.546875 -24.28125 C 43.429688 -27.582031 45.351562 -32.179688 46.3125 -38.078125 C 47.269531 -43.972656 47.75 -51.726562 47.75 -61.34375 L 47.75 -238.765625 C 47.75 -253.578125 47.539062 -265.992188 47.125 -276.015625 C 46.71875 -286.035156 46.101562 -292.828125 45.28125 -296.390625 C 43.90625 -302.703125 40.679688 -306.957031 35.609375 -309.15625 C 30.535156 -311.351562 21.410156 -312.453125 8.234375 -312.453125 L 8.234375 -326.4375 L 86.03125 -341.671875 Z M 86.03125 -64.21875 "/></g></g></g><g fill="#fbf7ef" fill-opacity="1"><g transform="translate(811.424078, 488.673135)"><g><path d="M 16.46875 -192.25 L 16.46875 -207.46875 C 31.007812 -215.976562 42.394531 -224.488281 50.625 -233 C 58.863281 -241.507812 65.175781 -251.660156 69.5625 -263.453125 L 81.515625 -263.453125 L 81.515625 -211.59375 L 136.671875 -211.59375 L 136.671875 -192.25 L 81.515625 -192.25 L 81.515625 -67.09375 C 81.515625 -57.488281 81.992188 -49.394531 82.953125 -42.8125 C 83.910156 -36.226562 85.484375 -30.945312 87.671875 -26.96875 C 89.867188 -22.988281 92.75 -20.171875 96.3125 -18.515625 C 99.882812 -16.867188 104.414062 -16.046875 109.90625 -16.046875 C 116.769531 -16.046875 122.601562 -17.488281 127.40625 -20.375 C 132.207031 -23.257812 136.941406 -28.128906 141.609375 -34.984375 L 151.90625 -27.171875 C 148.0625 -17.015625 141.40625 -9.257812 131.9375 -3.90625 C 122.46875 1.4375 110.734375 4.109375 96.734375 4.109375 C 78.617188 4.109375 64.828125 -0.207031 55.359375 -8.84375 C 45.898438 -17.488281 41.171875 -29.910156 41.171875 -46.109375 L 41.171875 -192.25 Z M 16.46875 -192.25 "/></g></g></g><g fill="#fbf7ef" fill-opacity="1"><g transform="translate(967.027542, 488.673135)"><g><path d="M 115.671875 64.625 C 103.046875 92.894531 83.425781 107.03125 56.8125 107.03125 C 39.519531 107.03125 30.875 100.582031 30.875 87.6875 C 30.875 80.820312 33.273438 75.8125 38.078125 72.65625 C 42.878906 69.5 51.726562 66.820312 64.625 64.625 C 70.394531 63.800781 75.335938 62.632812 79.453125 61.125 C 83.566406 59.613281 87.269531 57.691406 90.5625 55.359375 C 93.851562 53.035156 96.800781 50.085938 99.40625 46.515625 C 102.019531 42.953125 104.5625 38.5625 107.03125 33.34375 L 121.4375 4.53125 L 42.40625 -167.125 C 38.832031 -174.8125 35.742188 -180.921875 33.140625 -185.453125 C 30.535156 -189.984375 27.789062 -193.550781 24.90625 -196.15625 C 22.019531 -198.757812 18.789062 -200.539062 15.21875 -201.5 C 11.65625 -202.46875 7.128906 -203.222656 1.640625 -203.765625 L 1.640625 -218.171875 L 110.734375 -218.171875 L 110.734375 -203.765625 C 92.347656 -203.765625 83.15625 -199.238281 83.15625 -190.1875 C 83.15625 -186.613281 84.25 -180.984375 86.4375 -173.296875 C 88.632812 -165.617188 91.382812 -157.800781 94.6875 -149.84375 L 139.96875 -40.34375 L 142.015625 -40.34375 L 179.484375 -132.96875 C 183.046875 -142.019531 185.992188 -149.425781 188.328125 -155.1875 C 190.660156 -160.957031 192.441406 -165.691406 193.671875 -169.390625 C 194.910156 -173.097656 195.734375 -176.1875 196.140625 -178.65625 C 196.554688 -181.125 196.765625 -183.457031 196.765625 -185.65625 C 196.765625 -192.789062 194.773438 -197.59375 190.796875 -200.0625 C 186.816406 -202.53125 179.203125 -203.765625 167.953125 -203.765625 L 167.953125 -218.171875 L 258.515625 -218.171875 L 258.515625 -203.765625 C 253.304688 -203.765625 248.914062 -203.078125 245.34375 -201.703125 C 241.78125 -200.335938 238.144531 -197.253906 234.4375 -192.453125 C 230.726562 -187.648438 226.609375 -180.71875 222.078125 -171.65625 C 217.554688 -162.601562 212.003906 -150.390625 205.421875 -135.015625 Z M 115.671875 64.625 "/></g></g></g></svg>